<?xml version="1.0" encoding="UTF-8" standalone="no"?>
<!-- Created with Inkscape (http://www.inkscape.org/) -->

<svg
   width="87.676567mm"
   height="39.508442mm"
   viewBox="0 0 87.676567 39.508443"
   version="1.1"
   id="svg1"
   inkscape:version="1.4.2 (1:1.4.2+202505120738+ebf0e940d0)"
   sodipodi:docname="arXiv_icon.svg"
   xml:space="preserve"
   xmlns:inkscape="http://www.inkscape.org/namespaces/inkscape"
   xmlns:sodipodi="http://sodipodi.sourceforge.net/DTD/sodipodi-0.dtd"
   xmlns="http://www.w3.org/2000/svg"
   xmlns:svg="http://www.w3.org/2000/svg"><sodipodi:namedview
     id="namedview1"
     pagecolor="#ffffff"
     bordercolor="#000000"
     borderopacity="0.25"
     inkscape:showpageshadow="2"
     inkscape:pageopacity="0.0"
     inkscape:pagecheckerboard="0"
     inkscape:deskcolor="#d1d1d1"
     inkscape:document-units="mm"
     inkscape:zoom="2.043487"
     inkscape:cx="192.07365"
     inkscape:cy="39.393449"
     inkscape:window-width="1858"
     inkscape:window-height="1016"
     inkscape:window-x="0"
     inkscape:window-y="0"
     inkscape:window-maximized="1"
     inkscape:current-layer="layer1" /><defs
     id="defs1" /><g
     inkscape:label="Layer 1"
     inkscape:groupmode="layer"
     id="layer1"
     transform="translate(125.83999,258.86689)"><path
       style="fill:#636363;fill-opacity:1;stroke:#636363;stroke-width:0.63885;stroke-opacity:1"
       d="m -67.839539,-219.77866 c -0.10953,-0.0447 -2.27733,-2.30059 -4.81733,-5.01315 -2.54,-2.71257 -5.25994,-5.61746 -6.04433,-6.45532 -0.78438,-0.83786 -1.47724,-1.58492 -1.53968,-1.66013 -0.0624,-0.0752 -1.74684,1.59818 -3.74311,3.71864 -1.99627,2.12046 -4.20224,4.46216 -4.90217,5.20378 -1.18417,1.25471 -1.32025,1.34839 -1.95872,1.34839 -1.17586,0 -1.9045,-0.97159 -1.54516,-2.06038 0.10575,-0.32045 1.10345,-1.65961 2.21711,-2.97593 1.11366,-1.31631 2.75985,-3.26289 3.65821,-4.32574 0.89835,-1.06285 2.0255,-2.39233 2.50479,-2.9544 l 0.87141,-1.02196 -1.09173,-1.15729 c -1.73398,-1.83811 -1.7574,-2.26464 -0.22006,-4.00859 l 0.9714,-1.10197 -1.29282,-1.5327 c -0.71106,-0.84298 -1.75583,-2.09655 -2.32173,-2.7857 -0.5659,-0.68915 -2.51931,-3.0532 -4.34091,-5.25343 -3.24687,-3.92175 -3.84228,-4.74378 -3.84228,-5.30469 0,-0.40461 1.08616,-1.42824 1.51547,-1.42824 0.20134,0 0.50375,0.0737 0.67201,0.16373 0.32998,0.1766 3.09515,3.09283 8.70442,9.17993 1.94651,2.11234 3.58391,3.84061 3.63866,3.84061 0.15034,0 1.96839,-1.9017 5.49418,-5.74699 1.74745,-1.9058 3.39646,-3.67427 3.66447,-3.92992 0.74505,-0.71071 1.84748,-0.59249 2.54881,0.27332 0.6954,0.85848 0.70168,0.84918 -6.49538,9.6294 -1.28295,1.56517 -2.33263,2.89985 -2.33263,2.96596 0,0.0661 0.31344,0.42088 0.69653,0.78837 1.10572,1.06068 1.66987,1.92106 1.66987,2.54667 0,0.45257 -0.19848,0.77223 -1.03424,1.66567 -0.92022,0.98372 -1.00884,1.13816 -0.80377,1.40068 0.38247,0.4896 3.26243,3.91765 7.3991,8.80723 2.15183,2.54347 3.98671,4.76332 4.07751,4.93299 0.0908,0.16967 0.1651,0.57295 0.1651,0.89618 0,0.97131 -1.2091,1.73581 -2.143,1.35498 z m -22.12919,-3.82203 c 0.31357,-0.30213 2.52965,-2.62757 4.92461,-5.16763 l 4.35447,-4.61828 -1.08168,-1.09332 -1.08167,-1.09333 -0.33806,0.40905 c -0.18593,0.22497 -1.26158,1.50212 -2.39033,2.83811 -1.12875,1.33599 -2.98153,3.52972 -4.11729,4.87494 -1.88003,2.22677 -2.36641,2.92649 -2.36641,3.40432 0,0.30015 0.82282,0.99549 1.178,0.99549 0.19152,0 0.60478,-0.2472 0.91836,-0.54935 z m 13.96141,-15.25591 c 0,-0.56323 -0.0135,-0.57945 -4.72678,-5.66145 -2.11239,-2.27767 -5.79744,-6.25197 -8.189,-8.83177 -2.71545,-2.9292 -4.46736,-4.69056 -4.66537,-4.69056 -0.1744,0 -0.52301,0.17712 -0.77469,0.3936 -0.34841,0.29969 -0.43302,0.49149 -0.35462,0.80386 0.0566,0.22563 1.11401,1.63133 2.34974,3.12376 1.23573,1.49244 3.46379,4.18608 4.95125,5.98586 1.48746,1.79978 4.21985,5.09479 6.072,7.32223 l 3.36753,4.0499 0.98497,-1.01909 c 0.70673,-0.7312 0.98497,-1.14825 0.98497,-1.47634 z m -48.889041,7.36788 -0.55201,-0.493 -0.0593,-2.50727 c -0.0844,-3.5646 0.243,-4.65649 1.60154,-5.34167 0.6787,-0.3423 0.85604,-0.37496 5.21897,-0.96136 2.13822,-0.28738 4.05882,-0.56019 4.26799,-0.60623 0.35775,-0.0788 0.38032,-0.16837 0.38032,-1.51042 v -1.4267 l -5.30692,-0.0491 c -4.84306,-0.0448 -5.33645,-0.0758 -5.64471,-0.355 -0.70363,-0.63724 -0.54246,-1.96392 0.27998,-2.30459 0.32175,-0.13327 2.20716,-0.17667 6.20085,-0.14273 5.62668,0.0478 5.74882,0.0561 6.26702,0.42576 1.07499,0.7668 1.07727,0.7851 1.07727,8.64936 v 7.11594 h -6.58947 -6.58947 z m 10.85746,-4.66238 c 0,-1.95811 -0.0375,-2.2819 -0.26461,-2.2819 -0.14554,0 -1.57173,0.18565 -3.1693,0.41257 -1.59757,0.2269 -3.38008,0.46492 -3.96111,0.52891 l -1.05644,0.11636 v 1.75298 1.75298 h 4.22573 4.22573 z m 8.45146,4.81733 c -0.52782,-0.52782 -0.46868,-1.73203 0.10731,-2.18511 0.38221,-0.30065 0.68185,-0.35032 2.11287,-0.35032 h 1.66749 v -5.23992 -5.2399 h -1.49846 c -1.26002,0 -1.56934,-0.0558 -1.94384,-0.35033 -0.576,-0.45308 -0.63513,-1.65728 -0.10731,-2.18511 0.30448,-0.30448 0.56343,-0.33805 2.6071,-0.33805 h 2.26903 l 0.393188,0.4774 0.393173,0.4774 0.44813,-0.4774 0.44813,-0.4774 h 3.21443 c 1.76794,0 3.33756,0.0473 3.48805,0.10499 0.55541,0.21314 0.7682,0.99477 0.7682,2.82182 0,1.52502 -0.0468,1.81997 -0.35032,2.20578 -0.28422,0.36132 -0.49155,0.44537 -1.09869,0.44537 -1.08978,0 -1.42448,-0.39717 -1.42448,-1.6903 v -1.01417 h -2.10897 c -2.0268,0 -2.1191,0.0155 -2.36909,0.39699 -0.22155,0.33813 -0.25345,1.10866 -0.21518,5.19765 l 0.0449,4.80066 2.14981,0.0845 c 2.52571,0.0993 2.75204,0.21917 2.75204,1.45771 0,0.6048 -0.0854,0.8387 -0.39904,1.09265 -0.37396,0.30281 -0.73263,0.32313 -5.704743,0.32313 -5.080328,0 -5.320058,-0.0144 -5.643758,-0.33806 z m 37.705791,-0.10731 c -0.48635,-0.61829 -0.45839,-1.49029 0.0646,-2.01324 0.39641,-0.3964 0.50936,-0.41488 2.53544,-0.41488 h 2.12055 v -5.23992 -5.2399 h -1.78249 c -1.66715,0 -1.80934,-0.0268 -2.19739,-0.41489 -0.53447,-0.53448 -0.56875,-1.55359 -0.0702,-2.08868 0.32885,-0.35297 0.47848,-0.36992 3.26377,-0.36992 2.2534,0 2.99395,0.0547 3.24723,0.23977 0.31208,0.22807 0.33223,0.55209 0.41262,6.6344 l 0.0845,6.39461 2.17063,0.0845 c 2.02626,0.0789 2.19209,0.11106 2.49318,0.48356 0.46017,0.5693 0.41832,1.46439 -0.0923,1.97505 l -0.41489,0.41489 h -5.7424 -5.74241 z m 19.8158,0.19208 c -0.23384,-0.16379 -0.79215,-1.3435 -1.5799,-3.33833 -0.67005,-1.69677 -1.93698,-4.90221 -2.8154,-7.12318 -1.09234,-2.76185 -1.56586,-4.16273 -1.4982,-4.43234 0.26049,-1.03786 1.71995,-1.46194 2.40683,-0.69935 0.30368,0.33715 1.62777,3.53241 4.45327,10.74652 0.48528,1.23905 0.94236,2.18984 1.01573,2.11287 0.0734,-0.077 1.20821,-2.95428 2.52188,-6.39402 1.49618,-3.91762 2.51913,-6.36459 2.73819,-6.54988 0.85391,-0.7223 2.3406,-0.0542 2.3406,1.05191 0,0.62529 -5.23942,14.07356 -5.66719,14.54624 -0.2599,0.28718 -0.52437,0.33285 -1.92771,0.33285 -1.17148,0 -1.72765,-0.0709 -1.9881,-0.25329 z m -15.30558,-20.49586 c -0.63744,-0.39522 -1.03407,-1.28599 -0.91273,-2.04981 0.13913,-0.87571 1.07829,-1.71048 1.92346,-1.70964 1.41109,0.001 2.46516,1.29286 2.08657,2.55648 -0.39443,1.31648 -1.94373,1.91822 -3.0973,1.20297 z"
       id="path3" /></g></svg>
