<?xml version="1.0" encoding="UTF-8" standalone="no"?>
<!-- Created with Inkscape (http://www.inkscape.org/) -->

<svg
   width="92.406487mm"
   height="92.841599mm"
   viewBox="0 0 92.406487 92.841599"
   version="1.1"
   id="svg1"
   xml:space="preserve"
   xmlns="http://www.w3.org/2000/svg"
   xmlns:svg="http://www.w3.org/2000/svg"><defs
     id="defs1"><marker
       style="overflow:visible"
       id="ArrowTriangleStylized"
       refX="0"
       refY="0"
       orient="auto-start-reverse"
       markerWidth="1"
       markerHeight="1"
       viewBox="0 0 1 1"
       preserveAspectRatio="xMidYMid"><path
         transform="scale(0.5)"
         style="fill:context-stroke;fill-rule:evenodd;stroke:context-stroke;stroke-width:1pt"
         d="m 6,0 c -3,1 -7,3 -9,5 0,0 0,-4 2,-5 -2,-1 -2,-5 -2,-5 2,2 6,4 9,5 z"
         id="path4" /></marker><filter
       style="color-interpolation-filters:sRGB"
       id="filter1-1-94-5-8"
       x="-0.52272"
       y="-0.52272"
       width="2.04544"
       height="2.04544"><feGaussianBlur
         stdDeviation="0.86119652"
         id="feGaussianBlur1-06-9-6-5" /></filter><filter
       style="color-interpolation-filters:sRGB"
       id="filter1-1-94-5-8-6"
       x="-0.52272"
       y="-0.52272"
       width="2.04544"
       height="2.04544"><feGaussianBlur
         stdDeviation="0.86119652"
         id="feGaussianBlur1-06-9-6-5-0" /></filter><filter
       style="color-interpolation-filters:sRGB"
       id="filter1-1-94-5-8-6-7"
       x="-0.52272"
       y="-0.52272"
       width="2.04544"
       height="2.04544"><feGaussianBlur
         stdDeviation="0.86119652"
         id="feGaussianBlur1-06-9-6-5-0-6" /></filter><filter
       style="color-interpolation-filters:sRGB"
       id="filter1-1-94-5-8-2"
       x="-0.52272"
       y="-0.52272"
       width="2.04544"
       height="2.04544"><feGaussianBlur
         stdDeviation="0.86119652"
         id="feGaussianBlur1-06-9-6-5-5" /></filter><filter
       style="color-interpolation-filters:sRGB"
       id="filter1-1-94-5-8-2-1"
       x="-0.52272"
       y="-0.52272"
       width="2.04544"
       height="2.04544"><feGaussianBlur
         stdDeviation="0.86119652"
         id="feGaussianBlur1-06-9-6-5-5-2" /></filter><filter
       style="color-interpolation-filters:sRGB"
       id="filter1-1-94-5-8-2-10"
       x="-0.52272"
       y="-0.52272"
       width="2.04544"
       height="2.04544"><feGaussianBlur
         stdDeviation="0.86119652"
         id="feGaussianBlur1-06-9-6-5-5-8" /></filter><filter
       style="color-interpolation-filters:sRGB"
       id="filter1-1-94-5-8-2-5"
       x="-0.52272"
       y="-0.52272"
       width="2.04544"
       height="2.04544"><feGaussianBlur
         stdDeviation="0.86119652"
         id="feGaussianBlur1-06-9-6-5-5-86" /></filter><filter
       style="color-interpolation-filters:sRGB"
       id="filter1-1-94-5-8-2-0"
       x="-0.52272"
       y="-0.52272"
       width="2.04544"
       height="2.04544"><feGaussianBlur
         stdDeviation="0.86119652"
         id="feGaussianBlur1-06-9-6-5-5-6" /></filter><filter
       style="color-interpolation-filters:sRGB"
       id="filter1-1-94-5-8-2-3"
       x="-0.52272"
       y="-0.52272"
       width="2.04544"
       height="2.04544"><feGaussianBlur
         stdDeviation="0.86119652"
         id="feGaussianBlur1-06-9-6-5-5-1" /></filter><filter
       style="color-interpolation-filters:sRGB"
       id="filter1-1-94-5-8-2-9"
       x="-0.52272"
       y="-0.52272"
       width="2.04544"
       height="2.04544"><feGaussianBlur
         stdDeviation="0.86119652"
         id="feGaussianBlur1-06-9-6-5-5-69" /></filter><filter
       style="color-interpolation-filters:sRGB"
       id="filter1-1-94-5-8-2-4"
       x="-0.52272"
       y="-0.52272"
       width="2.04544"
       height="2.04544"><feGaussianBlur
         stdDeviation="0.86119652"
         id="feGaussianBlur1-06-9-6-5-5-0" /></filter><filter
       style="color-interpolation-filters:sRGB"
       id="filter1-1-94-5-8-2-6"
       x="-0.52272"
       y="-0.52272"
       width="2.04544"
       height="2.04544"><feGaussianBlur
         stdDeviation="0.86119652"
         id="feGaussianBlur1-06-9-6-5-5-13" /></filter></defs><g
     id="g372"
     transform="translate(-55.125074,-131.43367)"><circle
       style="fill:#d5f6ff;fill-opacity:1;stroke:none;stroke-width:0.0532633"
       id="path28"
       cx="101.32832"
       cy="178.07202"
       r="46.203247" /><circle
       style="fill:#b7bec8;fill-opacity:1;stroke:#6f7c91;stroke-width:0.5;stroke-dasharray:none;stroke-opacity:1"
       id="path28-93"
       cx="101.32832"
       cy="178.07202"
       r="38.221493" /><circle
       style="fill:#d5f6ff;fill-opacity:1;stroke:none;stroke-width:0.0395483"
       id="path28-2"
       cx="101.32832"
       cy="178.07202"
       r="34.306213" /><circle
       style="fill:#b7bec8;fill-opacity:1;stroke:#6f7c91;stroke-width:0.459268;stroke-dasharray:none;stroke-opacity:1"
       id="path28-93-1"
       cx="101.32832"
       cy="178.07202"
       r="35.107857" /><circle
       style="fill:#d5f6ff;fill-opacity:0.7;stroke:none;stroke-width:0.0473211"
       id="path28-93-9"
       cx="101.32832"
       cy="178.07202"
       r="41.04882" /><circle
       style="fill:#d5f6ff;fill-opacity:1;stroke:none;stroke-width:0.0401427"
       id="path28-2-4"
       cx="101.33941"
       cy="178.07202"
       r="34.821854" /><rect
       style="fill:#ffffff;fill-opacity:1;stroke:none;stroke-width:1.59179;stroke-dasharray:0.793135, 0.793135;stroke-dashoffset:0;stroke-opacity:1"
       id="rect363"
       width="18.556019"
       height="23.632999"
       x="91.856689"
       y="131.43367" /><circle
       style="fill:#ffffff;fill-opacity:1;stroke:none;stroke-width:0.0291882"
       id="path28-9"
       cx="101.32832"
       cy="178.07202"
       r="25.319195" /><g
       transform="matrix(3.4032652,0,0,3.4032652,94.199606,169.60218)"
       id="g356"
       style="fill:#000000"><g
   id="g355"
   transform="matrix(0.352778,0,0,0.352778,-77.3561,-4.5119)"
   style="fill:#000000">
    <g
   style="fill:#000000;fill-opacity:1"
   id="g354">
      <g
   id="g353"
   transform="translate(218.32401,26.899)"
   style="fill:#000000">
        
      <path
   style="fill:#000000;stroke:none"
   d="m 7.515625,-2.671875 c 3.34375,-0.28125 5.3125,-2.375 5.3125,-4.375 0,-2.078125 -2.046875,-4.109375 -5.3125,-4.390625 v -1.1875 c 0,-0.734375 0.046875,-0.953125 1.609375,-0.953125 h 0.453125 v -0.53125 C 8.734375,-14.0625 7.75,-14.0625 6.875,-14.0625 c -0.859375,0 -1.875,0 -2.71875,-0.04687 v 0.53125 h 0.453125 c 1.5625,0 1.609375,0.21875 1.609375,0.953125 v 1.1875 c -3.25,0.28125 -5.265625,2.328125 -5.265625,4.375 0,2.125 2.109375,4.109375 5.265625,4.390625 v 1.1875 c 0,0.734375 -0.046875,0.953125 -1.609375,0.953125 H 4.15625 V 0 C 5,-0.046875 6.015625,-0.046875 6.875,-0.046875 c 0.875,0 1.859375,0 2.703125,0.046875 V -0.53125 H 9.125 c -1.5625,0 -1.609375,-0.21875 -1.609375,-0.953125 z M 6.21875,-3.015625 c -1.859375,-0.203125 -3.734375,-1.28125 -3.734375,-4.03125 0,-2.828125 1.9375,-3.859375 3.734375,-4.046875 z m 1.296875,-8.078125 c 1.640625,0.140625 3.78125,1.078125 3.78125,4.03125 0,3.03125 -2.234375,3.90625 -3.78125,4.046875 z m 0,0"
   id="path30" /></g>
    </g>
  </g>
</g><g
       transform="matrix(1.1884402,0,0,1.1884402,102.87844,205.25378)"
       id="g42-4-5-9-9-0"
       style="fill:#6f7c91;fill-opacity:1"><g
         id="g41-9-6-3-4-6"
         transform="matrix(0.352778,0,0,0.352778,-75.652365,-6.4374719)"
         style="fill:#6f7c91;fill-opacity:1"><g
           style="fill:#6f7c91;fill-opacity:1"
           id="g38-2-6-6-7-1"><g
             id="g37-0-4-8-8-5"
             transform="translate(213.369,26.899)"
             style="fill:#6f7c91;fill-opacity:1"><path
               style="fill:#6f7c91;fill-opacity:1;stroke:none"
               d="m 9.5625,-5.21875 c 0,-2.015625 -1.140625,-3.890625 -3.328125,-3.890625 -2.703125,0 -5.40625,2.953125 -5.40625,5.890625 0,1.796875 1.109375,3.421875 3.21875,3.421875 1.28125,0 2.8125,-0.5 4.28125,-1.734375 0.28125,1.15625 0.921875,1.734375 1.8125,1.734375 1.109375,0 1.671875,-1.15625 1.671875,-1.421875 0,-0.1875 -0.140625,-0.1875 -0.203125,-0.1875 -0.171875,0 -0.1875,0.0625 -0.25,0.234375 -0.1875,0.515625 -0.65625,0.96875 -1.15625,0.96875 -0.640625,0 -0.640625,-1.328125 -0.640625,-2.578125 2.109375,-2.53125 2.609375,-5.125 2.609375,-5.15625 0,-0.1875 -0.171875,-0.1875 -0.234375,-0.1875 -0.1875,0 -0.203125,0.0625 -0.28125,0.4375 -0.28125,0.90625 -0.8125,2.515625 -2.09375,4.21875 z m -1.296875,3.1875 C 6.4375,-0.390625 4.8125,-0.203125 4.09375,-0.203125 c -1.46875,0 -1.890625,-1.3125 -1.890625,-2.28125 0,-0.875 0.46875,-2.984375 1.109375,-4.125 0.84375,-1.453125 2,-2.09375 2.921875,-2.09375 2,0 2,2.625 2,4.359375 0,0.515625 -0.015625,1.0625 -0.015625,1.578125 0,0.40625 0.015625,0.515625 0.046875,0.734375 z m 0,0"
               id="path36-6-0-0-4-5" /></g></g><g
           style="fill:#6f7c91;fill-opacity:1"
           id="g40-8-0-2-5-4"><g
             id="g39-9-4-1-0-7"
             transform="translate(226.237,29.997999)"
             style="fill:#6f7c91;fill-opacity:1"><path
               style="fill:#6f7c91;fill-opacity:1;stroke:none"
               d="m 6.046875,-4.875 c 1.421875,-0.328125 2.53125,-1.234375 2.53125,-2.34375 0,-1.390625 -1.625,-2.578125 -3.6875,-2.578125 H 0.609375 V -9.375 h 0.28125 c 1.03125,0 1.078125,0.140625 1.078125,0.671875 v 7.609375 c 0,0.53125 -0.046875,0.671875 -1.078125,0.671875 H 0.609375 V 0 c 0.328125,-0.03125 1.5,-0.03125 1.921875,-0.03125 0.40625,0 1.59375,0 1.921875,0.03125 v -0.421875 h -0.28125 c -1.03125,0 -1.078125,-0.140625 -1.078125,-0.671875 v -3.671875 h 1.671875 c 0.5625,0 1.09375,0.15625 1.46875,0.5625 0.5,0.546875 0.5,0.84375 0.5,1.84375 0,1.125 0,1.5 0.625,2.109375 0.21875,0.21875 0.8125,0.546875 1.625,0.546875 1.109375,0 1.296875,-1.25 1.296875,-1.546875 0,-0.078125 0,-0.21875 -0.15625,-0.21875 -0.140625,0 -0.140625,0.09375 -0.15625,0.234375 -0.078125,0.859375 -0.484375,1.25 -0.953125,1.25 -0.65625,0 -0.796875,-0.671875 -0.90625,-1.4375 C 8.09375,-1.515625 8,-2.140625 7.953125,-2.5 7.859375,-3.21875 7.796875,-3.671875 7.375,-4.109375 7.21875,-4.28125 6.84375,-4.65625 6.046875,-4.875 Z M 4.703125,-5.046875 H 3.09375 V -8.8125 c 0,-0.328125 0,-0.5 0.3125,-0.546875 C 3.53125,-9.375 3.953125,-9.375 4.25,-9.375 c 1.15625,0 3,0 3,2.15625 0,1.25 -0.6875,2.171875 -2.546875,2.171875 z m 0,0"
               id="path38-2-6-0-3-6" /></g></g></g></g><g
       transform="matrix(1.186323,0,0,1.2490504,106.44542,198.90477)"
       id="g53-5-4-2-7"
       style="fill:#00aad4;stroke:none"><g
         id="g52-5-7-9-4"
         transform="matrix(0.3205634,0,0,0.3205634,-76.390112,-0.07452969)"
         style="fill:#00aad4;stroke:none"><g
           style="fill:#00aad4;fill-opacity:1;stroke:none"
           id="g44-4-6-9-5"><g
             id="g43-7-3-0-2"
             transform="translate(201.549,26.899)"
             style="fill:#00aad4;stroke:none"><path
               style="fill:#00aad4;stroke:none"
               d="m 8.390625,-14.25 c -0.171875,-0.359375 -0.25,-0.359375 -0.421875,-0.359375 -0.25,0 -0.265625,0.04687 -0.40625,0.328125 L 0.875,-0.34375 C 0.84375,-0.3125 0.765625,-0.125 0.765625,-0.109375 0.765625,-0.015625 0.78125,0 1.15625,0 h 13.609375 c 0.375,0 0.390625,-0.015625 0.390625,-0.109375 0,-0.015625 -0.07813,-0.203125 -0.09375,-0.234375 z m -0.9375,1.21875 5.71875,11.875 H 1.71875 Z m 0,0"
               id="path13-6-1-8-5" /></g></g><g
           style="fill:#00aad4;fill-opacity:1;stroke:none"
           id="g46-5-7-13-4"><g
             id="g45-6-5-1-7"
             transform="translate(217.502,29.997999)"
             style="fill:#00aad4;stroke:none"><path
               style="fill:#00aad4;stroke:none"
               d="m 6.421875,-4.59375 c 0,-1.1875 -0.0625,-2.34375 -0.578125,-3.4375 -0.59375,-1.1875 -1.625,-1.5 -2.328125,-1.5 -0.828125,0 -1.859375,0.40625 -2.375,1.59375 -0.40625,0.90625 -0.546875,1.796875 -0.546875,3.34375 0,1.390625 0.09375,2.4375 0.609375,3.453125 0.5625,1.09375 1.546875,1.4375 2.296875,1.4375 1.25,0 1.96875,-0.734375 2.375,-1.578125 0.515625,-1.078125 0.546875,-2.484375 0.546875,-3.3125 z M 3.5,0.015625 C 3.046875,0.015625 2.109375,-0.25 1.84375,-1.8125 1.671875,-2.671875 1.671875,-3.765625 1.671875,-4.765625 1.671875,-5.9375 1.671875,-7 1.90625,-7.84375 2.15625,-8.8125 2.890625,-9.25 3.5,-9.25 c 0.546875,0 1.375,0.328125 1.65625,1.5625 0.171875,0.8125 0.171875,1.953125 0.171875,2.921875 0,0.96875 0,2.046875 -0.15625,2.921875 C 4.90625,-0.265625 4,0.015625 3.5,0.015625 Z m 0,0"
               id="path14-9-9-1-4" /></g></g><g
           style="fill:#00aad4;fill-opacity:1;stroke:none"
           id="g48-3-6-0-4"><g
             id="g47-7-2-3-3"
             transform="translate(225.024,26.899)"
             style="fill:#00aad4;stroke:none" /></g><g
           style="fill:#00aad4;fill-opacity:1;stroke:none"
           id="g51-5-1-4-0"><g
             id="g49-2-7-0-7"
             transform="translate(234.401,18.368)"
             style="fill:#00aad4;stroke:none" /><g
             id="g50-4-8-3-8"
             transform="translate(239.19263,18.368)"
             style="fill:#00aad4;stroke:none" /></g></g></g><g
       transform="matrix(1.2685464,0,0,1.2685464,115.83592,185.17088)"
       id="g36-8-7-6-1-31"
       style="fill:#008033;stroke:none"><g
         id="g35-1-2-4-2-4"
         transform="matrix(0.352778,0,0,0.352778,-79.725856,6.6767688)"
         style="fill:#008033;stroke:none"><g
           style="fill:#008033;fill-opacity:1;stroke:none"
           id="g34-2-4-3-9-9"
           transform="translate(1.7348666)"><g
             id="g33-9-0-0-3-2"
             transform="translate(219.13499,26.899)"
             style="fill:#008033;stroke:none"><path
               style="fill:#008033;stroke:none"
               d="m 2.96875,-0.453125 c 0.515625,0.46875 1.28125,0.65625 1.984375,0.65625 1.328125,0 2.234375,-0.890625 2.703125,-1.53125 0.21875,1.09375 1.078125,1.53125 1.796875,1.53125 0.625,0 1.125,-0.375 1.5,-1.109375 0.328125,-0.703125 0.609375,-1.96875 0.609375,-2.046875 0,-0.109375 -0.07813,-0.1875 -0.203125,-0.1875 -0.1875,0 -0.203125,0.109375 -0.28125,0.40625 -0.3125,1.21875 -0.703125,2.53125 -1.5625,2.53125 C 8.921875,-0.203125 8.875,-0.75 8.875,-1.15625 8.875,-1.625 9.0625,-2.375 9.21875,-3 L 9.796875,-5.21875 C 9.875,-5.625 10.09375,-6.546875 10.203125,-6.921875 c 0.125,-0.5 0.359375,-1.375 0.359375,-1.46875 0,-0.3125 -0.25,-0.515625 -0.5625,-0.515625 -0.1875,0 -0.625,0.09375 -0.78125,0.703125 l -1.453125,5.75 C 7.65625,-2.046875 7.65625,-2 7.390625,-1.671875 c -0.25,0.34375 -1.046875,1.46875 -2.34375,1.46875 -1.15625,0 -1.53125,-0.84375 -1.53125,-1.828125 0,-0.59375 0.1875,-1.3125 0.265625,-1.671875 l 0.921875,-3.71875 C 4.8125,-7.8125 4.984375,-8.46875 4.984375,-8.59375 c 0,-0.328125 -0.28125,-0.515625 -0.546875,-0.515625 -0.1875,0 -0.640625,0.0625 -0.796875,0.71875 l -3,11.96875 c -0.015625,0.09375 -0.0625,0.21875 -0.0625,0.34375 0,0.3125 0.25,0.515625 0.5625,0.515625 0.59375,0 0.71875,-0.46875 0.859375,-1.046875 z m 0,0"
               id="path32-3-6-3-1-0" /></g></g></g></g><g
       transform="matrix(1.1845252,0,0,1.1845252,83.180448,200.74872)"
       id="g256-6-6"
       style="fill:#ff6600;fill-opacity:1"><g
         id="g255-1-6"
         transform="matrix(0.352778,0,0,0.352778,-76.1617,-4.5119)"
         style="fill:#ff6600;fill-opacity:1"><g
           style="fill:#ff6600;fill-opacity:1"
           id="g252-0-4"><g
             id="g251-6-9"
             transform="translate(214.782,26.899)"
             style="fill:#ff6600;fill-opacity:1"><path
               style="fill:#ff6600;fill-opacity:1;stroke:none"
               d="m 12.78125,-11.8125 c 0.703125,-1.125 1.34375,-1.609375 2.40625,-1.703125 0.203125,-0.01563 0.359375,-0.01563 0.359375,-0.390625 0,-0.07813 -0.03125,-0.203125 -0.21875,-0.203125 -0.375,0 -1.265625,0.04687 -1.640625,0.04687 -0.59375,0 -1.21875,-0.04687 -1.796875,-0.04687 -0.15625,0 -0.359375,0 -0.359375,0.390625 0,0.1875 0.1875,0.203125 0.265625,0.203125 0.765625,0.0625 0.84375,0.4375 0.84375,0.6875 0,0.3125 -0.28125,0.78125 -0.3125,0.8125 L 5.84375,-1.734375 4.40625,-12.875 c 0,-0.59375 1.0625,-0.640625 1.296875,-0.640625 0.3125,0 0.5,0 0.5,-0.390625 0,-0.203125 -0.234375,-0.203125 -0.296875,-0.203125 -0.34375,0 -0.765625,0.04687 -1.109375,0.04687 h -1.15625 c -1.515625,0 -2.125,-0.04687 -2.15625,-0.04687 -0.125,0 -0.375,0 -0.375,0.375 0,0.21875 0.15625,0.21875 0.484375,0.21875 1.046875,0 1.109375,0.1875 1.171875,0.703125 l 1.65625,12.75 c 0.0625,0.4375 0.0625,0.5 0.34375,0.5 0.25,0 0.359375,-0.0625 0.5625,-0.390625 z m 0,0"
               id="path251-3-50" /></g></g><g
           style="fill:#ff6600;fill-opacity:1"
           id="g254-2-4"><g
             id="g253-0-8"
             transform="translate(226.577,29.997999)"
             style="fill:#ff6600;fill-opacity:1"><path
               style="fill:#ff6600;fill-opacity:1;stroke:none"
               d="M 7.671875,-9.296875 C 7.78125,-9.484375 7.78125,-9.5 7.78125,-9.59375 c 0,-0.203125 -0.0625,-0.203125 -0.34375,-0.203125 H 1.140625 L 0.96875,-6.59375 H 1.296875 C 1.390625,-8.21875 1.84375,-9.375 4.15625,-9.375 H 6.453125 L 0.78125,-0.34375 C 0.78125,-0.015625 0.78125,0 1.125,0 h 6.5 l 0.234375,-3.78125 h -0.3125 C 7.4375,-1.765625 7.140625,-0.4375 4.53125,-0.4375 H 2.109375 Z m 0,0"
               id="path252-6-7" /></g></g></g></g><path
       style="fill:#000000;fill-opacity:1;stroke:none;stroke-width:0.550987"
       d="m 119.97873,169.28861 c -0.12907,0 -0.24966,0 -0.24966,-0.043 0,-0.0172 0.13781,-0.7576 0.18079,-0.9298 0.24967,-1.01587 0.8523,-1.73904 1.54104,-1.73904 0.51656,0 0.749,0.38742 0.749,0.81787 0,0.90396 -1.00727,1.89401 -2.22117,1.89401 z m -0.33575,0.40464 c 0.043,0.008 0.12907,0.0172 0.26688,0.0172 1.29999,0 2.48805,-1.24832 2.48805,-2.49666 0,-0.48212 -0.21523,-1.06754 -0.87813,-1.06754 -1.13641,0 -1.61853,1.60992 -2.0576,3.0907 -0.91257,-0.1722 -1.29137,-0.6543 -1.29137,-1.18807 0,-0.20662 0.16358,-1.05894 0.62847,-1.62714 0.0861,-0.10335 0.0861,-0.11192 0.0861,-0.12907 0,-0.0689 -0.0689,-0.0689 -0.0775,-0.0689 -0.21522,0 -0.81787,1.15362 -0.81787,1.91124 0,0.87813 0.69734,1.36025 1.33442,1.5066 l -0.41324,1.33442 c -0.0345,0.1205 -0.0345,0.13781 -0.0345,0.16357 0,0.18941 0.18941,0.19803 0.20663,0.19803 0.0775,0 0.21522,-0.0259 0.2841,-0.18941 0.0171,-0.0689 0.24105,-1.29138 0.27549,-1.45495 z m 0,0"
       id="path196-2" /><path
       style="fill:none;fill-opacity:1;stroke:#000000;stroke-width:0.2;stroke-dasharray:none;stroke-opacity:1;marker-start:url(#ArrowTriangleStylized)"
       d="m 127.50907,179.14901 c 0.04,0.15999 0.0801,0.32001 0.13296,0.54925 0.0529,0.22924 0.11865,0.52774 0.191,0.90649 0.0724,0.37874 0.15129,0.83773 0.2206,1.33907 0.0693,0.50134 0.12896,1.04501 0.17087,1.59083 0.0419,0.54582 0.0661,1.09375 0.0782,1.51383 0.0121,0.42009 0.0121,0.71231 -0.003,1.11074 -0.0153,0.39843 -0.0459,0.90305 -0.0952,1.43681 -0.0493,0.53377 -0.11719,1.09663 -0.19608,1.61969 -0.0789,0.52307 -0.16877,1.00628 -0.24422,1.37842 -0.0755,0.37213 -0.13648,0.63317 -0.20179,0.89344 -0.0653,0.26027 -0.13489,0.51975 -0.20448,0.77924"
       id="path362"
       transform="rotate(-27.547705,87.306364,186.28262)" /><g
       transform="matrix(1.1310873,0,0,1.1310873,137.62136,161.66777)"
       id="g258-9"
       style="fill:#6600ff;fill-opacity:1"><g
   id="g257-7"
   transform="matrix(0.352778,0,0,0.352778,-76.623271,-4.5119)"
   style="fill:#6600ff;fill-opacity:1">
    <g
   style="fill:#6600ff;fill-opacity:1"
   id="g3-7">
      <g
   id="use2-6"
   transform="translate(217.271,26.899)"
   style="fill:#6600ff;fill-opacity:1">
        <path
   style="fill:#6600ff;fill-opacity:1;stroke:none"
   d="m 10.453125,-8.573454 c -0.71875,2.890625 -3.125,4.578125 -5.0625,4.578125 -1.484375,0 -2.5,-0.984375 -2.5,-2.703125 0,-0.078125 0,-0.703125 0.234375,-1.609375 l 2.015625,-8.109375 c 0.1875,-0.703125 0.234375,-0.921875 1.703125,-0.921875 0.359375,0 0.578125,0 0.578125,-0.359375 0,-0.234375 -0.1875,-0.234375 -0.3125,-0.234375 -0.375,0 -0.8125,0.04687 -1.203125,0.04687 h -2.4375 c -0.390625,0 -0.828125,-0.04687 -1.21875,-0.04687 -0.140625,0 -0.390625,0 -0.390625,0.390625 0,0.203125 0.140625,0.203125 0.53125,0.203125 1.25,0 1.25,0.171875 1.25,0.40625 0,0.109375 -0.15625,0.71875 -0.25,1.0625 L 1.59375,-8.635954 c -0.0625,0.234375 -0.1875,0.78125 -0.1875,1.34375 0,2.265625 1.625,3.90625 3.875,3.90625 2.09375,0 4.40625,-1.65625 5.453125,-4.28125 0.15625,-0.34375 0.34375,-1.078125 0.46875,-1.625 0.203125,-0.75 0.640625,-2.5625 0.78125,-3.109375 l 0.78125,-3.09375 c 0.265625,-1.078125 0.4375,-1.75 2.25,-1.84375 0.171875,-0.01563 0.25,-0.171875 0.25,-0.359375 0,-0.234375 -0.1875,-0.234375 -0.265625,-0.234375 -0.296875,0 -0.671875,0.04687 -0.953125,0.04687 h -0.96875 c -1.28125,0 -1.9375,-0.04687 -1.96875,-0.04687 -0.125,0 -0.375,0 -0.375,0.390625 0,0.203125 0.171875,0.203125 0.3125,0.203125 1.25,0.04687 1.328125,0.515625 1.328125,0.890625 0,0.1875 0,0.25 -0.07813,0.546875 z m 0,0"
   id="path257-7" />
      </g>
    </g>
  </g>
</g><g
       id="g1"
       transform="rotate(14.586189,101.44451,178.15168)"><circle
         style="fill:#ffffff;fill-opacity:1;stroke:#6f7c91;stroke-width:0.341716;stroke-dasharray:none;stroke-opacity:1"
         id="path27-4-18-1-3-9-9-6-1"
         cx="101.18989"
         cy="141.51839"
         r="1.9770352" /><circle
         style="fill:#ffffff;fill-opacity:1;stroke:#6f7c91;stroke-width:0.341716;stroke-dasharray:none;stroke-opacity:1"
         id="path27-4-18-1-3-9-9-6-1-4-9"
         cx="209.79216"
         cy="82.361404"
         r="1.9770352"
         transform="rotate(30.760293)" /><circle
         style="mix-blend-mode:normal;fill:#a995ff;fill-opacity:1;stroke:none;stroke-width:0.341716;stroke-dasharray:none;stroke-opacity:1;filter:url(#filter1-1-94-5-8)"
         id="path27-4-18-1-3-0-9-0-7-8-8"
         cx="103.21873"
         cy="165.13123"
         r="1.9770352"
         transform="matrix(0.49119543,0.29235004,-0.29235004,0.49119543,135.72947,66.784312)" /><circle
         style="fill:#ffffff;fill-opacity:1;stroke:#6f7c91;stroke-width:0.341716;stroke-dasharray:none;stroke-opacity:1"
         id="path27-4-18-1-3-9-9-6-1-4-9-8"
         cx="196.9361"
         cy="132.76385"
         r="1.9770352"
         transform="rotate(30.760293)" /><circle
         style="mix-blend-mode:normal;fill:#a995ff;fill-opacity:1;stroke:none;stroke-width:0.341716;stroke-dasharray:none;stroke-opacity:1;filter:url(#filter1-1-94-5-8-6)"
         id="path27-4-18-1-3-0-9-0-7-8-8-8"
         cx="103.21873"
         cy="165.13123"
         r="1.9770352"
         transform="matrix(0.49119543,0.29235004,-0.29235004,0.49119543,98.903878,103.52067)" /><circle
         style="fill:#ffffff;fill-opacity:1;stroke:#6f7c91;stroke-width:0.341716;stroke-dasharray:none;stroke-opacity:1"
         id="path27-4-18-1-3-9-9-6-1-4-9-8-0"
         cx="146.69327"
         cy="119.91663"
         r="1.9770352"
         transform="rotate(30.760293)" /><circle
         style="mix-blend-mode:normal;fill:#a995ff;fill-opacity:1;stroke:none;stroke-width:0.341716;stroke-dasharray:none;stroke-opacity:1;filter:url(#filter1-1-94-5-8-6-7)"
         id="path27-4-18-1-3-0-9-0-7-8-8-8-3"
         cx="103.21873"
         cy="165.13123"
         r="1.9770352"
         transform="matrix(0.49119543,0.29235004,-0.29235004,0.49119543,62.300153,66.784325)" /><circle
         style="fill:#ffffff;fill-opacity:1;stroke:#6f7c91;stroke-width:0.341716;stroke-dasharray:none;stroke-opacity:1"
         id="path27-4-18-1-3-9-9-6-1-4-9-5-8"
         cx="141.43163"
         cy="101.04333"
         r="1.9770352"
         transform="rotate(30.760293)" /><circle
         style="mix-blend-mode:normal;fill:#a995ff;fill-opacity:1;stroke:none;stroke-width:0.341716;stroke-dasharray:none;stroke-opacity:1;filter:url(#filter1-1-94-5-8-2-9)"
         id="path27-4-18-1-3-0-9-0-7-8-8-9-05"
         cx="103.21873"
         cy="165.13123"
         r="1.9770352"
         transform="matrix(0.49119543,0.29235004,-0.29235004,0.49119543,67.43145,47.875137)" /><circle
         style="fill:#ffffff;fill-opacity:1;stroke:#6f7c91;stroke-width:0.341716;stroke-dasharray:none;stroke-opacity:1"
         id="path27-4-18-1-3-9-9-6-1-4-9-5-62"
         cx="146.25087"
         cy="82.978745"
         r="1.9770352"
         transform="rotate(30.760293)" /><circle
         style="mix-blend-mode:normal;fill:#a995ff;fill-opacity:1;stroke:none;stroke-width:0.341716;stroke-dasharray:none;stroke-opacity:1;filter:url(#filter1-1-94-5-8-2-4)"
         id="path27-4-18-1-3-0-9-0-7-8-8-9-67"
         cx="103.21873"
         cy="165.13123"
         r="1.9770352"
         transform="matrix(0.49119543,0.29235004,-0.29235004,0.49119543,80.81177,34.816761)" /><circle
         style="fill:#ffffff;fill-opacity:1;stroke:#6f7c91;stroke-width:0.341716;stroke-dasharray:none;stroke-opacity:1"
         id="path27-4-18-1-3-9-9-6-1-4-9-5-9"
         cx="159.81033"
         cy="133.15639"
         r="1.9770352"
         transform="rotate(30.760293)" /><circle
         style="mix-blend-mode:normal;fill:#a995ff;fill-opacity:1;stroke:none;stroke-width:0.341716;stroke-dasharray:none;stroke-opacity:1;filter:url(#filter1-1-94-5-8-2-0)"
         id="path27-4-18-1-3-0-9-0-7-8-8-9-0"
         cx="103.21873"
         cy="165.13123"
         r="1.9770352"
         transform="matrix(0.49119543,0.29235004,-0.29235004,0.49119543,66.800415,84.870102)" /><circle
         style="fill:#ffffff;fill-opacity:1;stroke:#6f7c91;stroke-width:0.341716;stroke-dasharray:none;stroke-opacity:1"
         id="path27-4-18-1-3-9-9-6-1-4-9-5-34"
         cx="177.88205"
         cy="138.0228"
         r="1.9770352"
         transform="rotate(30.760293)" /><circle
         style="mix-blend-mode:normal;fill:#a995ff;fill-opacity:1;stroke:none;stroke-width:0.341716;stroke-dasharray:none;stroke-opacity:1;filter:url(#filter1-1-94-5-8-2-3)"
         id="path27-4-18-1-3-0-9-0-7-8-8-9-03"
         cx="103.21873"
         cy="165.13123"
         r="1.9770352"
         transform="matrix(0.49119543,0.29235004,-0.29235004,0.49119543,79.84077,98.294612)" /><circle
         style="fill:#ffffff;fill-opacity:1;stroke:#6f7c91;stroke-width:0.341716;stroke-dasharray:none;stroke-opacity:1"
         id="path27-4-18-1-3-9-9-6-1-4-9-5"
         cx="178.30901"
         cy="64.522797"
         r="1.9770352"
         transform="rotate(30.760293)" /><circle
         style="mix-blend-mode:normal;fill:#a995ff;fill-opacity:1;stroke:none;stroke-width:0.341716;stroke-dasharray:none;stroke-opacity:1;filter:url(#filter1-1-94-5-8-2)"
         id="path27-4-18-1-3-0-9-0-7-8-8-9"
         cx="103.21873"
         cy="165.13123"
         r="1.9770352"
         transform="matrix(0.49119543,0.29235004,-0.29235004,0.49119543,117.79905,35.353358)" /><circle
         style="mix-blend-mode:normal;fill:#a995ff;fill-opacity:1;stroke:none;stroke-width:0.341716;stroke-dasharray:none;stroke-opacity:1;filter:url(#filter1-1-94-5-8-2-6)"
         id="path27-4-18-1-3-0-9-0-7-8-8-9-5"
         cx="103.21873"
         cy="165.13123"
         r="1.9770352"
         transform="matrix(0.49119543,0.29235004,-0.29235004,0.49119543,98.765448,30.230677)" /><circle
         style="fill:#ffffff;fill-opacity:1;stroke:#6f7c91;stroke-width:0.341716;stroke-dasharray:none;stroke-opacity:1"
         id="path27-4-18-1-3-9-9-6-1-4-9-5-3"
         cx="196.40746"
         cy="69.495354"
         r="1.9770352"
         transform="rotate(30.760293)" /><circle
         style="mix-blend-mode:normal;fill:#a995ff;fill-opacity:1;stroke:none;stroke-width:0.341716;stroke-dasharray:none;stroke-opacity:1;filter:url(#filter1-1-94-5-8-2-1)"
         id="path27-4-18-1-3-0-9-0-7-8-8-9-6"
         cx="103.21873"
         cy="165.13123"
         r="1.9770352"
         transform="matrix(0.49119543,0.29235004,-0.29235004,0.49119543,130.80811,48.882756)" /><circle
         style="fill:#ffffff;fill-opacity:1;stroke:#6f7c91;stroke-width:0.341716;stroke-dasharray:none;stroke-opacity:1"
         id="path27-4-18-1-3-9-9-6-1-4-9-5-6"
         cx="214.66774"
         cy="101.72282"
         r="1.9770352"
         transform="rotate(30.760293)" /><circle
         style="mix-blend-mode:normal;fill:#a995ff;fill-opacity:1;stroke:none;stroke-width:0.341716;stroke-dasharray:none;stroke-opacity:1;filter:url(#filter1-1-94-5-8-2-10)"
         id="path27-4-18-1-3-0-9-0-7-8-8-9-4"
         cx="103.21873"
         cy="165.13123"
         r="1.9770352"
         transform="matrix(0.49119543,0.29235004,-0.29235004,0.49119543,130.01678,85.915451)" /><circle
         style="fill:#ffffff;fill-opacity:1;stroke:#6f7c91;stroke-width:0.341716;stroke-dasharray:none;stroke-opacity:1"
         id="path27-4-18-1-3-9-9-6-1-4-9-5-4"
         cx="209.87939"
         cy="119.52912"
         r="1.9770352"
         transform="rotate(30.760293)" /><circle
         style="mix-blend-mode:normal;fill:#a995ff;fill-opacity:1;stroke:none;stroke-width:0.341716;stroke-dasharray:none;stroke-opacity:1;filter:url(#filter1-1-94-5-8-2-5)"
         id="path27-4-18-1-3-0-9-0-7-8-8-9-7"
         cx="103.21873"
         cy="165.13123"
         r="1.9770352"
         transform="matrix(0.49119543,0.29235004,-0.29235004,0.49119543,116.79509,98.767693)" /></g><g
       transform="matrix(1.0233757,0,0,1.0233757,97.101721,134.94301)"
       id="g357"
       style="fill:#6f7c91;fill-opacity:1"><g
   id="g256"
   transform="matrix(0.352778,0,0,0.352778,-72.114,-4.67175)"
   style="fill:#6f7c91;fill-opacity:1">
    <g
   style="fill:#6f7c91;fill-opacity:1"
   id="g252">
      <g
   id="g251"
   transform="translate(203.855,26.899)"
   style="fill:#6f7c91;fill-opacity:1">
        
      </g>
    </g>
    <g
   style="fill:#6f7c91;fill-opacity:1"
   id="g253">
      <g
   id="use6"
   transform="translate(216.49699,26.899)"
   style="fill:#6f7c91;fill-opacity:1">
        
      </g>
    </g>
    <g
   style="fill:#6f7c91;fill-opacity:1"
   id="g255">
      <g
   id="g254"
   transform="translate(237.11404,26.899)"
   style="fill:#6f7c91;fill-opacity:1">
        <path
   style="fill:#6f7c91;fill-opacity:1;stroke:none"
   d="m 13.553319,-11.555245 c 0,-0.4375 -0.03125,-0.453125 -0.3125,-0.453125 -0.8125,0.96875 -2.03125,1.28125 -3.1875,1.328125 -0.0625,0 -0.1562498,0 -0.1874998,0.03125 -0.015625,0.04687 -0.015625,0.09375 -0.015625,0.515625 0.6406248,0 1.7187498,-0.109375 2.5468748,-0.609375 V 0.1322548 c 0,0.734375 -0.04687,0.984375 -1.828125,0.984375 H 9.9595692 v 0.53125 c 0.9843748,-0.015625 2.0156248,-0.046875 3.0156248,-0.046875 0.984375,0 2.015625,0.03125 3.015625,0.046875 v -0.53125 h -0.625 c -1.78125,0 -1.8125,-0.234375 -1.8125,-0.984375 z m 0,0"
   id="path253" />
      </g>
    </g>
  </g>
</g><g
       transform="matrix(0.78723021,0,0,0.78723021,78.973674,135.64155)"
       id="g365"
       style="fill:#6f7c91;fill-opacity:1"><g
   id="g364"
   transform="matrix(0.352778,0,0,0.352778,-69.7909,-4.5119)"
   style="fill:#6f7c91;fill-opacity:1">
    <g
   style="fill:#6f7c91;fill-opacity:1"
   id="g359">
      <g
   id="g358"
   transform="translate(198.09801,26.899)"
   style="fill:#6f7c91;fill-opacity:1">
        
      </g>
    </g>
    <g
   style="fill:#6f7c91;fill-opacity:1"
   id="g361">
      <g
   id="g360"
   transform="translate(213.371,26.899)"
   style="fill:#6f7c91;fill-opacity:1">
        
      </g>
    </g>
    <g
   style="fill:#6f7c91;fill-opacity:1"
   id="g363">
      <g
   id="g362"
   transform="translate(233.98399,26.899)"
   style="fill:#6f7c91;fill-opacity:1">
        <path
   style="fill:#6f7c91;fill-opacity:1;stroke:none"
   d="m 4.0920899,-8.8349554 c 0.234375,-0.890625 0.5625,-1.5156246 2.125,-1.5781246 0.0625,0 0.3125,-0.01563 0.3125,-0.359375 0,-0.234375 -0.1875,-0.234375 -0.265625,-0.234375 -0.40625,0 -1.46875,0.04687 -1.875,0.04687 h -1 c -0.28125,0 -0.65625,-0.04687 -0.9375,-0.04687 -0.125,0 -0.375,0 -0.375,0.390625 0,0.203125 0.15625,0.203125 0.3125,0.203125 1.234375,0.04687 1.3125,0.5156246 1.3125,0.8906246 0,0.1875 -0.01563,0.25 -0.07813,0.546875 l -2.34375,9.31250003 -4.406245,-10.98437463 c -0.15625,-0.34375 -0.171875,-0.359375 -0.625,-0.359375 h -2.515625 c -0.421875,0 -0.609375,0 -0.609375,0.390625 0,0.203125 0.15625,0.203125 0.546875,0.203125 0.09375,0 1.3125,0 1.3125,0.1875 0,0.04687 -0.03125,0.21875 -0.0625,0.2656246 l -2.75,10.95312503 c -0.234375,1.01562497 -0.734375,1.45312497 -2.09375,1.51562497 -0.1093749,0 -0.3124999,0.015625 -0.3124999,0.390625 0,0.203125 0.203125,0.203125 0.2656249,0.203125 0.40625,0 1.46875,-0.046875 1.875,-0.046875 h 1 c 0.28125,0 0.640625,0.046875 0.921875,0.046875 0.15625,0 0.375,0 0.375,-0.390625 0,-0.1875 -0.203125,-0.203125 -0.28125,-0.203125 -0.6875,-0.03125 -1.34375,-0.15625 -1.34375,-0.890625 0,-0.171875 0.03125,-0.359375 0.078125,-0.515625 l 2.78125,-11.0625 c 0.125,0.21875 0.125,0.25 0.21875,0.4375 l 4.90624998,12.25 c 0.109375,0.25 0.140625,0.375 0.328125,0.375 0.21875002,0 0.23437502,-0.0625 0.31250002,-0.40625 z m 0,0"
   id="path361" />
      </g>
    </g>
  </g>
</g><path
       style="fill:#000000;stroke-width:0.175832"
       d="m 100.15739,149.24025 c -1.095911,-0.14654 -2.581155,-0.61784 -3.67526,-1.16624 -0.536998,-0.26916 -1.44973,-0.81884 -1.941729,-1.16938 -0.433163,-0.30861 -0.992106,-0.74969 -0.950034,-0.74969 0.01526,0 0.169704,0.0917 0.343215,0.20388 0.400657,0.25893 1.360467,0.76338 1.873975,0.98491 3.078044,1.32789 5.872673,1.38755 8.244643,0.17598 0.40305,-0.20588 1.22246,-0.73136 1.39999,-0.89781 0.0208,-0.0195 -0.12003,-0.22149 -0.31279,-0.44892 -0.27506,-0.32441 -0.3333,-0.41751 -0.27039,-0.43219 0.18582,-0.0433 3.47746,-0.63778 3.48946,-0.63016 0.0135,0.009 -1.19442,3.3809 -1.22023,3.40671 -0.008,0.008 -0.15362,-0.15268 -0.32385,-0.35678 l -0.30954,-0.37112 -0.34986,0.20685 c -1.19515,0.70659 -2.38129,1.11588 -3.69352,1.27452 -0.54838,0.0663 -1.69344,0.0511 -2.30408,-0.0306 z"
       id="path365" /><g
       transform="matrix(1.2903998,0,0,1.2903998,99.497133,137.47166)"
       id="g371"><g
   id="g370"
   transform="matrix(0.352778,0,0,0.352778,-78.3241,-3.36484)">
    <g
   style="fill:#000000;fill-opacity:1"
   id="g367">
      <g
   id="g366"
   transform="translate(222.16901,23.084999)">
        <path
   style="stroke:none"
   d="M 7.75,-13.546875 C 7.046875,-12.875 6.65625,-12.46875 6.015625,-12.46875 5.5625,-12.46875 5.25,-12.703125 4.8125,-13.015625 c -0.40625,-0.28125 -0.75,-0.53125 -1.203125,-0.53125 -0.734375,0 -1.25,0.59375 -2.125,1.546875 l 0.234375,0.21875 c 0.703125,-0.671875 1.09375,-1.0625 1.734375,-1.0625 0.453125,0 0.765625,0.21875 1.1875,0.53125 0.421875,0.296875 0.75,0.53125 1.203125,0.53125 0.75,0 1.265625,-0.59375 2.125,-1.546875 z m 0,0"
   id="path366" />
      </g>
    </g>
    <g
   style="fill:#000000;fill-opacity:1"
   id="g369">
      <g
   id="g368"
   transform="translate(221.56799,26.899)">
        <path
   style="stroke:none"
   d="m 4.15625,-8.296875 h 1.890625 c 0.390625,0 0.609375,0 0.609375,-0.375 0,-0.234375 -0.125,-0.234375 -0.546875,-0.234375 h -1.8125 L 5.0625,-11.921875 c 0.078125,-0.28125 0.078125,-0.328125 0.078125,-0.46875 0,-0.328125 -0.265625,-0.515625 -0.53125,-0.515625 -0.171875,0 -0.640625,0.0625 -0.8125,0.71875 L 3,-8.90625 H 1.046875 c -0.40625,0 -0.59375,0 -0.59375,0.390625 0,0.21875 0.140625,0.21875 0.53125,0.21875 h 1.84375 L 1.46875,-2.84375 c -0.171875,0.71875 -0.234375,0.921875 -0.234375,1.1875 0,0.96875 0.6875,1.859375 1.84375,1.859375 2.09375,0 3.203125,-3.015625 3.203125,-3.15625 0,-0.125 -0.078125,-0.1875 -0.203125,-0.1875 -0.046875,0 -0.125,0 -0.171875,0.078125 -0.015625,0.03125 -0.046875,0.046875 -0.1875,0.375 -0.4375,1.03125 -1.375,2.484375 -2.578125,2.484375 -0.625,0 -0.65625,-0.515625 -0.65625,-0.96875 0,-0.03125 0,-0.421875 0.0625,-0.671875 z m 0,0"
   id="path367" />
      </g>
    </g>
  </g>
</g></g></svg>
