<?xml version="1.0" encoding="UTF-8" standalone="no"?>
<!-- Created with Inkscape (http://www.inkscape.org/) -->

<svg
   width="87.479172mm"
   height="44.819027mm"
   viewBox="0 0 87.479171 44.819027"
   version="1.1"
   id="svg1"
   xml:space="preserve"
   inkscape:version="1.4.2 (1:1.4.2+202505120738+ebf0e940d0)"
   sodipodi:docname="APS_icon.svg"
   xmlns:inkscape="http://www.inkscape.org/namespaces/inkscape"
   xmlns:sodipodi="http://sodipodi.sourceforge.net/DTD/sodipodi-0.dtd"
   xmlns="http://www.w3.org/2000/svg"
   xmlns:svg="http://www.w3.org/2000/svg"><sodipodi:namedview
     id="namedview1"
     pagecolor="#ffffff"
     bordercolor="#000000"
     borderopacity="0.25"
     inkscape:showpageshadow="2"
     inkscape:pageopacity="0.0"
     inkscape:pagecheckerboard="0"
     inkscape:deskcolor="#d1d1d1"
     inkscape:document-units="mm"
     inkscape:zoom="1.0217435"
     inkscape:cx="305.84975"
     inkscape:cy="122.82926"
     inkscape:window-width="1858"
     inkscape:window-height="1016"
     inkscape:window-x="0"
     inkscape:window-y="0"
     inkscape:window-maximized="1"
     inkscape:current-layer="layer1" /><defs
     id="defs1" /><g
     inkscape:label="Layer 1"
     inkscape:groupmode="layer"
     id="layer1"
     transform="translate(-2.8674686,-2.5635019)"><path
       style="fill:#636363;fill-opacity:1;stroke-width:0.275809"
       d="M 56.692537,47.266505 C 52.268383,46.7203 46.787041,45.204225 41.529079,43.072468 35.95942,40.814344 29.587576,37.398427 24.328291,33.851228 18.796022,30.119905 14.264128,26.323734 10.598304,22.350228 9.861266,21.551324 9.745042,21.393536 9.823499,21.29835 9.874269,21.23674 9.772079,21.27693 9.59642,21.38753 8.96025,21.788245 8.375782,21.958281 7.5062511,21.995614 6.5485858,22.036714 6.0249616,21.928274 5.2112523,21.520357 4.1757123,21.001225 3.2857927,19.898926 2.9818836,18.758953 2.8302071,18.190012 2.8291534,17.065028 2.9798076,16.510195 3.2256943,15.604471 3.9517458,14.564476 4.7346332,13.996573 4.855041,13.909234 4.908631,13.846458 4.8537207,13.857078 4.787847,13.869783 4.6812409,13.665394 4.5403261,13.256102 2.9697701,8.6943754 4.8959013,5.523278 9.835445,4.5384606 c 3.394557,-0.6767895 7.891963,-0.3374564 13.095594,0.9880891 0.776732,0.1978619 1.439247,0.3764342 1.47225,0.3968366 0.03301,0.020427 -0.02339,0.2419133 -0.125317,0.492255 -0.101928,0.25035 -0.21255,0.5263501 -0.245826,0.6133401 -0.06019,0.15734 -0.06616,0.156302 -1.149898,-0.199697 C 20.426376,6.0225414 17.990376,5.4492915 15.732625,5.1468022 14.210355,4.9428453 11.654834,4.9237301 10.572605,5.1081897 9.119472,5.3558908 8.115739,5.7118812 7.2606691,6.2828393 5.2595735,7.6190304 4.7840696,9.8571424 5.9086343,12.646623 c 0.2867636,0.711317 0.2758143,0.662524 0.1577863,0.703104 -0.050171,0.01727 -0.025542,0.01918 0.05473,0.0042 1.3245162,-0.245625 2.1572464,-0.154425 3.1693384,0.34708 1.150987,0.570344 2.08439,1.758313 2.333672,2.97013 0.192344,0.935036 0.06075,2.023094 -0.347573,2.873848 -0.111336,0.231973 -0.186991,0.406336 -0.168119,0.387461 0.01887,-0.01885 0.694149,0.613922 1.500613,1.406208 2.108589,2.071514 5.238024,4.77687 5.371036,4.643188 0.03544,-0.03562 2.08429,-5.217268 4.553004,-11.51478 2.468714,-6.2975106 4.524546,-11.4860062 4.568519,-11.5299913 0.109968,-0.1099915 6.52742,-0.1126322 6.637355,-0.00249 0.09443,0.094397 10.884075,27.7955003 10.929807,28.0609463 0.01991,0.115647 -0.01473,0.236184 -0.08934,0.310802 -0.111196,0.111195 -0.449079,0.12023 -3.851478,0.102983 l -3.72959,-0.01898 -0.158376,-0.401354 c -0.08711,-0.220755 -0.54508,-1.427573 -1.017718,-2.681823 L 34.962958,26.026701 H 30.244315 25.52567 l -0.152555,0.456083 c -0.08391,0.250857 -0.432898,1.265551 -0.775536,2.254886 l -0.622979,1.798785 1.435671,0.945133 c 9.771931,6.433042 19.785293,11.084384 28.472772,13.225998 2.496017,0.615308 4.326416,0.876785 6.12769,0.875357 0.902355,-8.31e-4 1.377457,-0.03629 1.885771,-0.141172 3.304799,-0.681946 3.709688,-3.328097 1.169733,-7.644747 -1.482477,-2.519468 -3.964129,-5.613681 -6.512287,-8.119767 l -0.554643,-0.545491 v -0.766345 -0.766346 l 0.591175,0.582085 c 4.231206,4.166158 7.660494,9.347993 8.643472,13.060753 0.234677,0.886376 0.317844,2.20336 0.183045,2.898543 -0.251609,1.297586 -1.192519,2.30587 -2.606633,2.793276 -1.015698,0.350078 -1.499317,0.414698 -3.308275,0.442034 -1.350403,0.02043 -1.947567,-0.0025 -2.809525,-0.10922 z M 10.837293,20.352884 c 0.09077,-0.115746 0.08819,-0.11832 -0.02755,-0.02757 -0.07023,0.05505 -0.127705,0.11255 -0.127705,0.127704 0,0.06004 0.05993,0.02142 0.155255,-0.100152 z m 22.040843,-0.638185 c 0.0413,-0.04127 -2.510178,-7.550964 -2.565928,-7.552185 -0.03752,-8.3e-4 -2.6326,7.435384 -2.629059,7.533601 0.0022,0.05945 5.135716,0.07789 5.194987,0.0186 z M 5.4662806,13.562096 c -0.02247,-0.0225 -0.081352,-5e-5 -0.1308531,0.04982 -0.071537,0.07208 -0.06315,0.08046 0.040846,0.04085 0.071969,-0.0274 0.1124703,-0.06817 0.090003,-0.09067 z m 72.8632324,18.29909 c -2.48201,-0.179128 -4.837205,-0.962671 -6.760476,-2.249122 -0.730724,-0.488776 -2.013852,-1.66076 -2.188935,-1.999337 -0.231273,-0.447233 -0.133889,-0.60052 1.417212,-2.23083 2.771605,-2.913133 3.018642,-3.149914 3.286288,-3.149914 0.335314,0 0.584552,0.151369 0.941995,0.572112 0.402583,0.473896 1.29033,1.138038 2.047018,1.531437 1.58728,0.825211 3.622049,0.92038 4.549023,0.212767 0.595716,-0.454747 0.86367,-1.338449 0.608703,-2.007491 -0.318424,-0.835591 -1.406296,-1.508037 -3.572439,-2.208235 -2.001538,-0.646996 -2.599998,-0.875108 -3.474691,-1.324466 -0.877956,-0.451035 -1.95884,-1.208006 -2.568933,-1.799109 -0.96372,-0.933716 -1.713519,-2.590656 -1.986902,-4.390745 -0.674398,-4.4405836 2.154463,-8.5163 6.759735,-9.7391862 2.810731,-0.7463584 5.503346,-0.6821371 8.015199,0.1911691 2.034047,0.7071896 4.684025,2.3931846 4.901293,3.1183435 0.06195,0.2066307 0.05788,0.3211146 -0.01777,0.50153 -0.100201,0.239115 -4.082326,4.6472566 -4.30652,4.7672456 -0.06809,0.03645 -0.243349,0.06626 -0.389404,0.06626 -0.232273,0 -0.341193,-0.07249 -0.869155,-0.578066 -0.760707,-0.728514 -1.366458,-1.121199 -2.116528,-1.3720376 -0.531033,-0.177593 -0.69451,-0.197314 -1.647653,-0.198759 -0.986403,-0.0017 -1.085334,0.01113 -1.459493,0.186444 -1.014446,0.4752986 -1.414404,1.2655086 -1.025938,2.0269636 0.326612,0.640211 0.913031,0.965063 3.135217,1.736772 0.866767,0.301003 1.937163,0.694178 2.378658,0.873722 1.593134,0.647867 3.252415,1.63868 4.005591,2.391847 0.853651,0.853652 1.568746,2.137313 1.92242,3.450901 0.175383,0.651422 0.192506,0.837309 0.196741,2.136507 0.0033,1.120816 -0.02367,1.551864 -0.128601,2.02982 -0.150538,0.685542 -0.494414,1.757458 -0.748475,2.333099 -0.644347,1.4599 -2.309508,3.046408 -4.189545,3.991633 -1.419843,0.713857 -2.559725,1.013399 -4.305495,1.131429 -1.159496,0.07839 -1.286261,0.07822 -2.408165,-0.0025 z M 47.402866,31.339212 c -0.127418,-0.127421 -0.127418,-28.2305173 0,-28.3579385 0.11594,-0.115937 10.886427,-0.1250546 11.937876,-0.010131 4.415163,0.4827058 7.217226,2.6025306 8.149888,6.1655819 0.504681,1.9280406 0.421558,4.5353466 -0.202291,6.3450676 -1.159884,3.364724 -4.301802,5.381823 -8.917384,5.724951 -0.561907,0.04177 -1.62095,0.07606 -2.353434,0.07623 l -1.331786,2.74e-4 v 4.930581 c 0,3.259225 -0.02559,4.978435 -0.07555,5.071736 -0.07308,0.136563 -0.19013,0.141155 -3.597647,0.141155 -2.642118,0 -3.543988,-0.02184 -3.609678,-0.08757 z M 58.000461,14.896966 c 1.583793,-0.276191 2.501919,-1.102556 2.657097,-2.39154 0.212924,-1.768609 -0.576478,-2.8488026 -2.307431,-3.1574536 -0.357011,-0.06369 -1.130293,-0.101314 -2.113683,-0.102934 l -1.55071,-0.0025 v 2.8824996 2.8825 h 1.340471 c 0.869622,0 1.563093,-0.03886 1.974256,-0.110523 z"
       id="path2" /></g></svg>
