<?xml version="1.0" encoding="UTF-8" standalone="no"?>
<!-- Created with Inkscape (http://www.inkscape.org/) -->

<svg
   width="67.06089mm"
   height="56.365154mm"
   viewBox="0 0 67.060889 56.365154"
   version="1.1"
   id="svg1"
   xml:space="preserve"
   sodipodi:docname="WS_icon.svg"
   inkscape:version="1.4.2 (1:1.4.2+202505120738+ebf0e940d0)"
   xmlns:inkscape="http://www.inkscape.org/namespaces/inkscape"
   xmlns:sodipodi="http://sodipodi.sourceforge.net/DTD/sodipodi-0.dtd"
   xmlns="http://www.w3.org/2000/svg"
   xmlns:svg="http://www.w3.org/2000/svg"><sodipodi:namedview
     id="namedview1"
     pagecolor="#ffffff"
     bordercolor="#000000"
     borderopacity="0.25"
     inkscape:showpageshadow="2"
     inkscape:pageopacity="0.0"
     inkscape:pagecheckerboard="0"
     inkscape:deskcolor="#d1d1d1"
     inkscape:document-units="mm"
     inkscape:zoom="2.043487"
     inkscape:cx="117.20163"
     inkscape:cy="130.41434"
     inkscape:window-width="1858"
     inkscape:window-height="1016"
     inkscape:window-x="0"
     inkscape:window-y="0"
     inkscape:window-maximized="1"
     inkscape:current-layer="layer1" /><defs
     id="defs1"><inkscape:path-effect
       effect="bspline"
       id="path-effect2"
       is_visible="true"
       lpeversion="1.3"
       weight="33.333333"
       steps="2"
       helper_size="0"
       apply_no_weight="true"
       apply_with_weight="true"
       only_selected="false"
       uniform="false" /></defs><g
     inkscape:label="Layer 1"
     inkscape:groupmode="layer"
     id="layer1"
     transform="translate(2,2)"><path
       style="fill:#636363;fill-opacity:1;stroke:none;stroke-width:0.528343"
       d="m 30.730472,54.32778 c -0.25838,-0.05665 -0.54978,-0.188141 -0.64757,-0.292218 -0.23828,-0.253602 -0.96445,-2.288376 -1.48936,-4.173264 -0.14389,-0.51666 -0.49405,-1.46186 -0.67493,-1.821866 -0.0592,-0.117847 -0.15512,-0.430314 -0.21312,-0.694363 -0.058,-0.264051 -0.15192,-0.576512 -0.20872,-0.694364 -0.13283,-0.2756 -0.39318,-1.02434 -0.63348,-1.821867 -0.10425,-0.34598 -0.4115,-1.258115 -0.68279,-2.026964 -0.27128,-0.768842 -0.49521,-1.490706 -0.49761,-1.604125 -0.004,-0.172927 -0.27596,-0.964124 -0.84314,-2.449796 -0.0942,-0.246726 -0.56033,-1.662218 -1.72634,-5.242149 -0.18782,-0.576633 -0.45349,-1.425864 -0.59037,-1.887171 -0.13689,-0.46131 -0.30068,-0.898503 -0.36398,-0.971546 -0.0633,-0.07304 -0.11509,-0.2208 -0.11509,-0.328349 0,-0.107554 -0.0855,-0.393774 -0.19,-0.636046 -0.1045,-0.242276 -0.41424,-1.132464 -0.68828,-1.978197 -0.27405,-0.845734 -0.72189,-2.166752 -0.99518,-2.935602 -0.2733,-0.768849 -0.49827,-1.490929 -0.49994,-1.604623 -0.004,-0.251887 -0.63546,-2.018737 -0.91733,-2.565472 -0.11221,-0.217666 -0.20403,-0.566795 -0.20403,-0.775839 0,-0.209049 -0.0553,-0.439844 -0.12281,-0.512887 -0.0675,-0.07304 -0.26018,-0.604594 -0.42807,-1.181231 -0.16789,-0.576633 -0.4535,-1.425864 -0.63469,-1.887171 -0.31406,-0.799614 -0.42498,-1.146333 -0.98382,-3.075395 -0.13365,-0.461307 -0.29781,-0.898499 -0.36481,-0.971543 -0.067,-0.07304 -0.12182,-0.273771 -0.12182,-0.446069 0,-0.172297 -0.0548,-0.347126 -0.12173,-0.388505 -0.067,-0.04137 -0.16238,-0.280988 -0.21206,-0.532464 -0.0497,-0.251475 -0.24076,-0.866116 -0.42462,-1.365864 -0.18387,-0.499755 -0.44474,-1.286075 -0.57973,-1.747387 -0.13499,-0.461306 -0.28851,-0.901648 -0.34116,-0.978532 -0.0527,-0.07689 -0.23994,-0.611583 -0.4162,-1.188221 -0.17627,-0.576633 -0.44332,-1.394411 -0.59347,-1.817276 -0.15013,-0.422869 -0.30695,-0.926115 -0.34846,-1.118326 -0.0415,-0.192211 -0.13159,-0.420803 -0.20016,-0.507985 -0.19721,-0.25072 -0.16893,-1.064129 0.0513,-1.47503598 0.36808,-0.686808 1.46236,-1.624737 2.48555,-2.13041402 C 16.173372,-1.985133 16.250942,-2 17.799212,-2 c 1.2374,0 1.77438,0.06278 2.39121,0.279583 0.4375,0.153768 0.91072,0.279577 1.05161,0.279577 0.14088,0 0.4019,0.157267 0.58004,0.349478 0.17813,0.19221602 0.43081,0.34947702 0.56151,0.34947702 0.13069,0 0.40629,0.200442 0.61243,0.445429 0.51646,0.613781 1.42442,2.19113098 1.42442,2.47457098 0,0.128139 0.0845,0.357059 0.1877,0.508714 0.10323,0.151655 0.25349,0.52736 0.33391,0.834897 0.16155,0.617828 0.71359,2.257284 0.87081,2.58613 0.0551,0.115326 0.20996,0.58712 0.34407,1.048426 0.13409,0.461312 0.29349,0.935166 0.35421,1.053018 0.0607,0.117852 0.15637,0.423556 0.21255,0.679343 0.0562,0.255791 0.25289,0.805944 0.43715,1.222568 0.18425,0.416618 0.33499,0.88565 0.33499,1.042277 0,0.156632 0.0776,0.422187 0.1725,0.590126 0.0949,0.167934 0.24673,0.588415 0.33745,0.934395 0.16715,0.637366 0.68892,2.213944 0.90215,2.725918 0.064,0.153769 0.40713,1.160261 0.76242,2.236647 0.35529,1.076387 0.70333,2.01683 0.77343,2.089869 0.0701,0.07304 0.12745,0.327809 0.12745,0.566155 0,0.238341 0.0557,0.493108 0.12372,0.566151 0.068,0.07304 0.31383,0.730407 0.54619,1.460809 l 0.42247,1.328014 0.038,4.473294 c 0.0209,2.460316 0.0267,9.330557 0.0129,15.2672 -0.0235,10.125596 -0.0402,10.801483 -0.26967,10.916302 -0.13455,0.06732 -0.45604,0.07605 -0.71442,0.01941 z m -15.01997,-0.241931 c -0.12431,-0.137363 -0.3256,-0.499071 -0.4473,-0.803796 -0.12171,-0.304726 -0.27256,-0.679859 -0.33523,-0.833628 -0.0627,-0.153771 -0.22379,-0.657017 -0.35806,-1.118323 -0.13426,-0.461311 -0.30682,-0.996009 -0.38347,-1.188221 -0.0767,-0.192211 -0.34659,-1.009989 -0.5999,-1.817276 -0.2533,-0.80729 -0.62425,-1.901651 -0.82433,-2.431911 -0.20008,-0.53026 -0.36379,-1.081538 -0.36379,-1.225062 0,-0.14353 -0.0598,-0.370188 -0.13301,-0.503695 -0.31475,-0.574367 -1.97633,-5.484588 -1.96716,-5.813234 0.002,-0.06527 -0.0876,-0.316888 -0.19867,-0.559159 -0.23854,-0.520216 -1.07428,-2.912461 -1.57014,-4.494423 -0.19279,-0.61508 -0.49399,-1.527216 -0.66932,-2.026964 -0.17533,-0.499753 -0.39778,-1.191719 -0.49433,-1.537698 -0.0966,-0.34598 -0.30169,-0.97504 -0.45586,-1.397904 -0.15417,-0.42287 -0.32433,-0.894663 -0.37812,-1.048432 -0.39266,-1.122352 -0.77208,-2.259181 -1.07307,-3.215179 -0.19366,-0.61508 -0.40325,-1.24414 -0.46577,-1.39791 C 4.825982,22.262291 4.491387,21.225572 4.293661,20.506281 4.198551,20.160303 4.037409,19.657056 3.935561,19.387956 3.64865,18.629912 2.211031,14.402687 1.487212,12.188742 1.260981,11.496778 1.009992,10.741909 0.929457,10.511256 0.848927,10.280603 0.21788,8.393428 -0.472848,6.317539 -1.163581,4.241651 -1.789762,2.433964 -1.864364,2.300458 -1.938964,2.166951 -2,1.947683 -2,1.813199 c 0,-0.379471 0.724616,-1.72023998 1.01316,-1.87466398 0.142087,-0.07604 0.316677,-0.291698 0.387977,-0.479233 0.09017,-0.237173 0.237083,-0.340976 0.482578,-0.340976 0.194112,0 0.491458,-0.13852602 0.660771,-0.30783902 0.292754,-0.292754 0.424597,-0.308071 2.690969,-0.312636 1.979517,-0.0042 2.489667,0.03794 3.012187,0.247508 0.34598,0.138769 0.82943,0.30336802 1.07432,0.36577102 0.65566,0.167067 1.99698,1.244167 2.56899,2.06291798 0.33309,0.476776 0.72396,1.405844 1.17353,2.789393 1.08029,3.32461 1.37174,4.162942 1.49636,4.304178 0.0644,0.07304 0.11717,0.252251 0.11717,0.398243 0,0.145996 0.0847,0.463667 0.18819,0.705945 0.10351,0.242271 0.26801,0.692117 0.36557,0.99966 0.0975,0.307537 0.25871,0.747879 0.35813,0.978532 0.19933,0.462469 0.86195,2.465996 1.24827,3.774346 0.1362,0.46131 0.29529,0.901647 0.35353,0.978532 0.0582,0.07689 0.15116,0.391417 0.2065,0.698954 0.0554,0.307537 0.14947,0.62207 0.20916,0.698954 0.0597,0.07688 0.14262,0.297056 0.18429,0.489267 0.0417,0.19221 0.27704,0.884176 0.523,1.537698 0.24597,0.653516 0.49832,1.376934 0.56076,1.607593 0.0624,0.230653 0.24194,0.765351 0.39888,1.188215 0.15695,0.422869 0.34395,1.020471 0.41557,1.328014 0.16921,0.726655 0.69352,2.267804 0.9431,2.772191 0.10771,0.217661 0.19583,0.466119 0.19583,0.552123 0,0.128625 0.4963,1.568923 0.97394,2.826468 0.0584,0.153768 0.21449,0.625562 0.34685,1.048431 0.13235,0.422864 0.29432,0.894657 0.35992,1.048427 0.0656,0.153769 0.21969,0.657015 0.34242,1.118325 0.12272,0.461307 0.3064,1.058916 0.40819,1.32801 0.30448,0.805014 0.52204,1.442967 0.64357,1.887175 0.0631,0.230653 0.47056,1.425864 0.90547,2.65602 0.43489,1.230154 0.93841,2.70844 1.11892,3.285079 0.3867,1.235294 0.99404,3.111067 1.19944,3.704449 0.0798,0.230653 0.33245,0.985522 0.56136,1.677487 0.22891,0.691964 0.47215,1.383924 0.54054,1.537692 0.0684,0.153775 0.22131,0.594111 0.33983,0.978538 0.11852,0.384421 0.46984,1.457696 0.78072,2.385045 0.31087,0.927352 0.56522,1.7294 0.56522,1.782329 0,0.05292 -2.6952,0.09623 -5.98933,0.09623 -5.57333,0 -6.00503,-0.01734 -6.21535,-0.249749 z m 17.45646,0.125551 c -0.0578,-0.09358 -0.11821,-15.064923 -0.084,-20.823346 l 0.004,-0.747805 0.94419,1.866131 c 1.04235,2.060128 2.13233,3.534837 3.38029,4.573394 0.9789,0.814651 2.89509,1.981062 3.82289,2.327042 0.36771,0.13712 0.70168,0.302888 0.74215,0.368365 0.0405,0.06549 0.24459,0.119056 0.4536,0.119056 0.209,0 0.50409,0.08339 0.65575,0.185322 0.15165,0.101921 0.63235,0.294894 1.0682,0.428818 0.43586,0.133924 0.81951,0.317876 0.85257,0.408788 0.0331,0.09091 0.0741,2.606804 0.0911,5.590876 0.0231,4.036672 -0.0117,5.477039 -0.13579,5.626573 -0.14013,0.16885 -1.09025,0.200984 -5.94274,0.200984 -3.21638,0 -5.80996,-0.05504 -5.8527,-0.124198 z m 13.75974,-12.669546 c -0.34598,-0.111395 -0.76257,-0.20349 -0.92575,-0.204653 -0.43208,-0.0031 -2.3597,-0.645 -3.37909,-1.125253 -0.48398,-0.228011 -0.91839,-0.414569 -0.96534,-0.414569 -0.047,0 -0.29156,-0.157261 -0.54356,-0.349478 -0.252,-0.19221 -0.49366,-0.349471 -0.53702,-0.349471 -0.0954,0 -1.52867,-1.054682 -2.09161,-1.539145 -0.3474,-0.298963 -0.90887,-0.87176 -1.76343,-1.798985 -0.25834,-0.280318 -1.70396,-2.61028 -1.91857,-3.092239 -0.42012,-0.943514 -1.01594,-2.576863 -1.01594,-2.785051 0,-0.128937 -0.0611,-0.29556 -0.13586,-0.370273 -0.0747,-0.07471 -0.17759,-0.584954 -0.2286,-1.133859 l -0.0928,-0.998012 0.75282,-0.07708 c 0.41405,-0.04237 2.74827,-0.114931 5.18716,-0.161192 l 4.43434,-0.08411 0.49325,0.771073 c 0.48477,0.757811 1.41023,1.763115 1.62309,1.763115 0.0596,0 0.19607,0.08771 0.30327,0.19491 0.23758,0.23758 1.22837,0.694338 2.0072,0.925334 0.91808,0.272291 2.49969,0.113382 3.40948,-0.342555 1.3452,-0.67415 1.60436,-0.82068 1.74738,-0.988001 0.86229,-1.008775 1.45597,-1.963837 1.54093,-2.478955 0.0541,-0.327694 0.15694,-0.668618 0.22863,-0.757606 0.24484,-0.303881 -0.71588,-0.463219 -2.32872,-0.386224 -0.84573,0.04036 -3.07889,0.0026 -4.96256,-0.08412 -1.88368,-0.08665 -5.8361,-0.168579 -8.78315,-0.182072 -6.27278,-0.02868 -5.76375,0.121819 -5.66391,-1.674966 0.064,-1.152643 0.42347,-3.122192 0.61719,-3.38202 0.0573,-0.07688 0.14841,-0.436569 0.2024,-0.799292 0.054,-0.362728 0.18524,-0.73176 0.29166,-0.820082 0.10642,-0.08832 0.25965,-0.406291 0.34051,-0.706605 0.38243,-1.420217 2.10547,-3.753419 3.71399,-5.029169 0.68384,-0.54237 1.42281,-1.138054 1.64215,-1.323735 0.21933,-0.185687 0.47732,-0.337611 0.57329,-0.337611 0.096,0 0.45121,-0.14297 0.78942,-0.317714 0.75388,-0.38951 2.03066,-0.89118 2.5021,-0.983123 0.19221,-0.03751 0.82127,-0.198995 1.3979,-0.358902 0.57664,-0.159914 1.30047,-0.292227 1.60852,-0.294039 0.30805,-0.0016 0.77984,-0.06946 1.04843,-0.150335 1.06585,-0.320941 5.10731,-0.0092 5.66753,0.43724 0.0807,0.06431 0.42668,0.16021 0.76885,0.213124 0.34217,0.05291 0.77939,0.20321 0.9716,0.333991 0.19221,0.130786 0.70516,0.403774 1.13989,0.606642 0.43472,0.202874 0.96942,0.518521 1.18822,0.701438 0.21879,0.182923 0.52361,0.372778 0.67738,0.421903 0.15378,0.04914 0.83464,0.623882 1.51304,1.277241 0.6784,0.653358 1.29174,1.18793 1.36296,1.18793 0.0712,0 0.1295,0.06351 0.1295,0.141142 0,0.07763 0.3318,0.596598 0.73734,1.15327 0.40553,0.556672 0.84082,1.2323 0.96732,1.501396 1.1408,2.426823 1.37131,2.971127 1.37518,3.24726 0.003,0.17457 0.0968,0.439506 0.20969,0.588753 0.30675,0.405571 0.26745,1.293107 -0.0651,1.471111 -0.17038,0.09118 -1.91543,0.143947 -4.71794,0.142647 -4.7953,-0.0022 -5.04412,-0.03651 -5.22649,-0.720569 -0.0547,-0.20524 -0.39777,-0.791172 -0.76234,-1.302079 -0.55011,-0.770893 -0.80831,-0.997384 -1.51786,-1.331391 -1.00424,-0.472739 -2.81174,-0.882638 -3.14331,-0.712828 -0.12535,0.06419 -0.58192,0.151396 -1.0146,0.193785 -0.43268,0.04237 -0.90447,0.143107 -1.04843,0.223822 -0.14395,0.08071 -0.57626,0.281807 -0.96069,0.446876 -0.84472,0.362724 -1.13453,0.605951 -1.48626,1.24738 -0.14756,0.269095 -0.38885,0.689471 -0.53619,0.934167 -0.14734,0.244697 -0.30661,0.685039 -0.35394,0.978533 -0.0473,0.2935 -0.11163,0.661442 -0.1429,0.817657 -0.13162,0.657623 -0.13348,0.657511 10.61546,0.633831 8.56119,-0.01886 10.11779,0.008 10.35044,0.178501 0.2303,0.168805 0.27987,0.397562 0.31187,1.439346 0.042,1.367213 -0.20187,3.787036 -0.39361,3.905538 -0.0672,0.04153 -0.12417,0.276254 -0.12658,0.52159 -0.003,0.245341 -0.19113,0.821905 -0.41937,1.281256 -0.22825,0.459351 -0.41499,0.916959 -0.41499,1.016906 0,0.205536 -0.91862,1.710731 -1.68505,2.760996 -0.6062,0.830717 -1.73936,1.884586 -2.74265,2.550731 -0.39864,0.264677 -0.75872,0.569636 -0.80018,0.677688 -0.0415,0.108046 -0.16228,0.196453 -0.26849,0.196453 -0.1062,0 -0.45361,0.188714 -0.77202,0.419373 -0.31841,0.230652 -0.61217,0.419371 -0.65281,0.419371 -0.0406,0 -0.32301,0.157261 -0.62749,0.349471 -0.30448,0.192218 -0.67853,0.349478 -0.83122,0.349478 -0.24099,0 -0.82287,0.20851 -1.54522,0.553714 -0.30081,0.143751 -1.6083,0.505554 -2.58613,0.715613 -1.25249,0.269068 -3.50944,0.298592 -4.26361,0.05577 z M 33.029092,16.452353 c -0.0538,-0.499748 -0.0784,-4.027991 -0.0547,-7.84054 l 0.0431,-6.931904 0.5292,-0.79687698 c 0.30178,-0.454438 0.69214,-0.858837 0.90838,-0.941047 0.20855,-0.07929 0.49138,-0.2457 0.6285,-0.369792 0.13713,-0.124097 0.70339,-0.411003 1.25837,-0.63757202 0.85126,-0.347522 1.25661,-0.42243 2.59208,-0.479011 1.51233,-0.06408 1.63893,-0.04708 2.83475,0.380682 1.01601,0.36343602 1.38919,0.58128202 1.98164,1.15677302 1.42506,1.38427298 1.33987,1.07770198 1.35396,4.87203498 l 0.0124,3.339614 h -0.74839 c -0.78863,0 -2.71323,0.569902 -4.22157,1.250069 -2.0742,0.93534 -4.47177,3.119829 -5.76231,5.25019 -0.3962,0.654024 -1.06276,1.983587 -1.15636,2.306547 -0.0783,0.270305 -0.12344,0.14363 -0.19909,-0.559167 z"
       id="path1" /></g></svg>
