<?xml version="1.0" encoding="UTF-8" standalone="no"?>
<!-- Created with Inkscape (http://www.inkscape.org/) -->

<svg
   width="110.65529mm"
   height="53.498158mm"
   viewBox="0 0 110.65529 53.498158"
   version="1.1"
   id="svg1"
   inkscape:export-filename="../AR.png"
   inkscape:export-xdpi="96"
   inkscape:export-ydpi="96"
   inkscape:version="1.3.2 (1:1.3.2+202311252150+091e20ef0f)"
   sodipodi:docname="MAIN_MajoranaWire.svg"
   xml:space="preserve"
   xmlns:inkscape="http://www.inkscape.org/namespaces/inkscape"
   xmlns:sodipodi="http://sodipodi.sourceforge.net/DTD/sodipodi-0.dtd"
   xmlns="http://www.w3.org/2000/svg"
   xmlns:svg="http://www.w3.org/2000/svg"><sodipodi:namedview
     id="namedview1"
     pagecolor="#ffffff"
     bordercolor="#000000"
     borderopacity="0.25"
     inkscape:showpageshadow="2"
     inkscape:pageopacity="0.0"
     inkscape:pagecheckerboard="0"
     inkscape:deskcolor="#d1d1d1"
     inkscape:document-units="mm"
     inkscape:zoom="0.70710685"
     inkscape:cx="408.70768"
     inkscape:cy="1388.7576"
     inkscape:window-width="1850"
     inkscape:window-height="1016"
     inkscape:window-x="0"
     inkscape:window-y="0"
     inkscape:window-maximized="1"
     inkscape:current-layer="svg1"
     showguides="true"
     showgrid="false" /><defs
     id="defs1"><marker
       style="overflow:visible"
       id="marker5-9-3-8-4"
       refX="0"
       refY="0"
       orient="auto-start-reverse"
       inkscape:stockid="Stylized triangle arrow"
       markerWidth="1"
       markerHeight="1"
       viewBox="0 0 1 1"
       inkscape:isstock="true"
       inkscape:collect="always"
       preserveAspectRatio="xMidYMid"><path
         transform="scale(0.5)"
         style="fill:context-stroke;fill-rule:evenodd;stroke:context-stroke;stroke-width:1pt"
         d="m 6,0 c -3,1 -7,3 -9,5 0,0 0,-4 2,-5 -2,-1 -2,-5 -2,-5 2,2 6,4 9,5 z"
         id="path5-2-90-7-7" /></marker><marker
       style="overflow:visible"
       id="marker5-9-9-8-1-6"
       refX="0"
       refY="0"
       orient="auto-start-reverse"
       inkscape:stockid="Stylized triangle arrow"
       markerWidth="1"
       markerHeight="1"
       viewBox="0 0 1 1"
       inkscape:isstock="true"
       inkscape:collect="always"
       preserveAspectRatio="xMidYMid"><path
         transform="scale(0.5)"
         style="fill:context-stroke;fill-rule:evenodd;stroke:context-stroke;stroke-width:1pt"
         d="m 6,0 c -3,1 -7,3 -9,5 0,0 0,-4 2,-5 -2,-1 -2,-5 -2,-5 2,2 6,4 9,5 z"
         id="path5-2-4-8-7-8" /></marker><marker
       style="overflow:visible"
       id="marker5-9-3-8-4-0"
       refX="0"
       refY="0"
       orient="auto-start-reverse"
       inkscape:stockid="Stylized triangle arrow"
       markerWidth="1"
       markerHeight="1"
       viewBox="0 0 1 1"
       inkscape:isstock="true"
       inkscape:collect="always"
       preserveAspectRatio="xMidYMid"><path
         transform="scale(0.5)"
         style="fill:context-stroke;fill-rule:evenodd;stroke:context-stroke;stroke-width:1pt"
         d="m 6,0 c -3,1 -7,3 -9,5 0,0 0,-4 2,-5 -2,-1 -2,-5 -2,-5 2,2 6,4 9,5 z"
         id="path5-2-90-7-7-3" /></marker><marker
       style="overflow:visible"
       id="marker5-9-9-8-1-6-3"
       refX="0"
       refY="0"
       orient="auto-start-reverse"
       inkscape:stockid="Stylized triangle arrow"
       markerWidth="1"
       markerHeight="1"
       viewBox="0 0 1 1"
       inkscape:isstock="true"
       inkscape:collect="always"
       preserveAspectRatio="xMidYMid"><path
         transform="scale(0.5)"
         style="fill:context-stroke;fill-rule:evenodd;stroke:context-stroke;stroke-width:1pt"
         d="m 6,0 c -3,1 -7,3 -9,5 0,0 0,-4 2,-5 -2,-1 -2,-5 -2,-5 2,2 6,4 9,5 z"
         id="path5-2-4-8-7-8-3" /></marker><filter
       inkscape:collect="always"
       style="color-interpolation-filters:sRGB"
       id="filter1"
       x="-0.52272"
       y="-0.52272"
       width="2.04544"
       height="2.04544"><feGaussianBlur
         inkscape:collect="always"
         stdDeviation="0.86119652"
         id="feGaussianBlur1" /></filter><filter
       inkscape:collect="always"
       style="color-interpolation-filters:sRGB"
       id="filter1-7"
       x="-0.52272"
       y="-0.52272"
       width="2.04544"
       height="2.04544"><feGaussianBlur
         inkscape:collect="always"
         stdDeviation="0.86119652"
         id="feGaussianBlur1-0" /></filter><filter
       inkscape:collect="always"
       style="color-interpolation-filters:sRGB"
       id="filter1-1"
       x="-0.52272"
       y="-0.52272"
       width="2.04544"
       height="2.04544"><feGaussianBlur
         inkscape:collect="always"
         stdDeviation="0.86119652"
         id="feGaussianBlur1-06" /></filter><filter
       inkscape:collect="always"
       style="color-interpolation-filters:sRGB"
       id="filter1-1-5"
       x="-0.52272"
       y="-0.52272"
       width="2.04544"
       height="2.04544"><feGaussianBlur
         inkscape:collect="always"
         stdDeviation="0.86119652"
         id="feGaussianBlur1-06-5" /></filter><filter
       inkscape:collect="always"
       style="color-interpolation-filters:sRGB"
       id="filter1-1-9"
       x="-0.52272"
       y="-0.52272"
       width="2.04544"
       height="2.04544"><feGaussianBlur
         inkscape:collect="always"
         stdDeviation="0.86119652"
         id="feGaussianBlur1-06-3" /></filter><filter
       inkscape:collect="always"
       style="color-interpolation-filters:sRGB"
       id="filter1-1-4"
       x="-0.52272"
       y="-0.52272"
       width="2.04544"
       height="2.04544"><feGaussianBlur
         inkscape:collect="always"
         stdDeviation="0.86119652"
         id="feGaussianBlur1-06-7" /></filter><filter
       inkscape:collect="always"
       style="color-interpolation-filters:sRGB"
       id="filter1-1-8"
       x="-0.52272"
       y="-0.52272"
       width="2.04544"
       height="2.04544"><feGaussianBlur
         inkscape:collect="always"
         stdDeviation="0.86119652"
         id="feGaussianBlur1-06-6" /></filter><filter
       inkscape:collect="always"
       style="color-interpolation-filters:sRGB"
       id="filter1-1-49"
       x="-0.52272"
       y="-0.52272"
       width="2.04544"
       height="2.04544"><feGaussianBlur
         inkscape:collect="always"
         stdDeviation="0.86119652"
         id="feGaussianBlur1-06-2" /></filter><filter
       inkscape:collect="always"
       style="color-interpolation-filters:sRGB"
       id="filter1-1-6"
       x="-0.52272"
       y="-0.52272"
       width="2.04544"
       height="2.04544"><feGaussianBlur
         inkscape:collect="always"
         stdDeviation="0.86119652"
         id="feGaussianBlur1-06-64" /></filter></defs><rect
     style="fill:#d5f6ff;fill-opacity:1;stroke:none;stroke-width:0.534128"
     id="rect1-5-2-2-1-8"
     width="89.519203"
     height="53.498154"
     x="10.425841"
     y="1.7573286e-06"
     inkscape:export-filename="../HFMF.svg"
     inkscape:export-xdpi="96"
     inkscape:export-ydpi="96" /><rect
     style="fill:#fff6d5;fill-opacity:1;stroke:none;stroke-width:0.180872"
     id="rect1-5-2-3-1-3-2"
     width="10.265172"
     height="53.498123"
     x="-1.1183329e-06"
     y="3.2274907e-05" /><path
     style="fill:#ffe6d5;fill-opacity:1;stroke:#000000;stroke-width:0.468416"
     d="M 10.187752,0.01655975 V 53.498156 Z"
     id="path10-3-7-9" /><rect
     style="fill:#fff6d5;fill-opacity:1;stroke:none;stroke-width:0.180872"
     id="rect1-5-2-3-9-0"
     width="10.265172"
     height="53.498123"
     x="100.39012"
     y="3.2274907e-05" /><rect
     style="fill:#b7bec8;fill-opacity:1;stroke:#6f7c91;stroke-width:0.399687"
     id="rect2-0-2-5"
     width="89.119507"
     height="3.3596394"
     x="10.625693"
     y="39.279537" /><rect
     style="fill:#d5f6ff;fill-opacity:0.7;stroke:none;stroke-width:0.176275"
     id="rect1-5-2-0-0-5-9-4"
     width="89.519203"
     height="5.8266144"
     x="10.425841"
     y="37.876957" /><circle
     style="fill:#ffffff;fill-opacity:1;stroke:#000000;stroke-width:0.341716;stroke-dasharray:none"
     id="path27-4-18-1"
     cx="10.136001"
     cy="40.959232"
     r="1.9770352" /><circle
     style="fill:#ffffff;fill-opacity:1;stroke:#6f7c91;stroke-width:0.341716;stroke-dasharray:none;stroke-opacity:1"
     id="path27-4-18-1-3"
     cx="21.36492"
     cy="40.959232"
     r="1.9770352" /><circle
     style="fill:#ffffff;fill-opacity:1;stroke:#6f7c91;stroke-width:0.341716;stroke-dasharray:none;stroke-opacity:1"
     id="path27-4-18-1-3-9"
     cx="32.593834"
     cy="40.959232"
     r="1.9770352" /><path
     style="fill:#ffe6d5;fill-opacity:1;stroke:#000000;stroke-width:0.468489"
     d="M 100.16759,3.9750249e-5 V 53.498156 Z"
     id="path10-3-6-20-8" /><circle
     style="fill:#ffffff;fill-opacity:1;stroke:#000000;stroke-width:0.341716;stroke-dasharray:none"
     id="path27-4-2-3"
     cx="100.1676"
     cy="40.725132"
     r="1.9770352" /><circle
     style="fill:#ffffff;fill-opacity:1;stroke:#6f7c91;stroke-width:0.341716;stroke-dasharray:none;stroke-opacity:1"
     id="path27-4-18-1-3-9-9"
     cx="43.856133"
     cy="40.959232"
     r="1.9770352" /><circle
     style="fill:#ffffff;fill-opacity:1;stroke:#6f7c91;stroke-width:0.341716;stroke-dasharray:none;stroke-opacity:1"
     id="path27-4-18-1-3-9-0"
     cx="55.118431"
     cy="40.790257"
     r="1.9770352" /><circle
     style="fill:#ffffff;fill-opacity:1;stroke:#6f7c91;stroke-width:0.341716;stroke-dasharray:none;stroke-opacity:1"
     id="path27-4-18-1-3-0"
     cx="66.380714"
     cy="40.790257"
     r="1.9770352" /><circle
     style="mix-blend-mode:normal;fill:#a995ff;fill-opacity:1;stroke:none;stroke-width:0.341716;stroke-dasharray:none;stroke-opacity:1;filter:url(#filter1)"
     id="path27-4-18-1-3-0-9"
     cx="103.21873"
     cy="165.13123"
     r="1.9770352"
     transform="matrix(0.57161306,0,0,0.57161306,7.3795407,-53.60091)" /><circle
     style="fill:#ffffff;fill-opacity:1;stroke:#6f7c91;stroke-width:0.341716;stroke-dasharray:none;stroke-opacity:1"
     id="path27-4-18-1-3-9-04"
     cx="77.643005"
     cy="40.790257"
     r="1.9770352" /><circle
     style="fill:#ffffff;fill-opacity:1;stroke:#6f7c91;stroke-width:0.341716;stroke-dasharray:none;stroke-opacity:1"
     id="path27-4-18-1-3-9-9-6"
     cx="88.905304"
     cy="40.790257"
     r="1.9770352" /><g
     inkscape:label=""
     transform="matrix(1.1213824,0,0,1.1213824,63.673313,32.99123)"
     id="g77"
     style="fill:#6f7c91;fill-opacity:1"><g
       id="g76"
       transform="matrix(0.352778,0,0,0.352778,-72.3422,-4.69931)"
       style="fill:#6f7c91;fill-opacity:1"><g
         style="fill:#6f7c91;fill-opacity:1"
         id="g7"><g
           id="g6"
           transform="translate(204.502,26.899)"
           style="fill:#6f7c91;fill-opacity:1"><path
             style="fill:#6f7c91;fill-opacity:1;stroke:none"
             d="m 5.84375,-2.953125 c 0,-0.109375 -0.078125,-0.1875 -0.203125,-0.1875 -0.1875,0 -0.203125,0.0625 -0.3125,0.40625 -0.53125,1.890625 -1.375,2.53125 -2.0625,2.53125 -0.25,0 -0.53125,-0.0625 -0.53125,-0.6875 0,-0.5625 0.234375,-1.171875 0.46875,-1.796875 l 1.4375,-3.84375 c 0.0625,-0.15625 0.21875,-0.53125 0.21875,-0.921875 0,-0.875 -0.625,-1.65625 -1.640625,-1.65625 -1.890625,0 -2.65625,3 -2.65625,3.15625 0,0.09375 0.078125,0.1875 0.21875,0.1875 0.1875,0 0.203125,-0.078125 0.296875,-0.375 0.484375,-1.734375 1.28125,-2.5625 2.078125,-2.5625 0.1875,0 0.546875,0.03125 0.546875,0.6875 0,0.53125 -0.28125,1.21875 -0.4375,1.671875 L 1.8125,-2.5 c -0.125,0.328125 -0.25,0.65625 -0.25,1.03125 0,0.9375 0.640625,1.671875 1.640625,1.671875 1.90625,0 2.640625,-3.015625 2.640625,-3.15625 z m -0.15625,-9.9375 c 0,-0.3125 -0.25,-0.6875 -0.703125,-0.6875 -0.484375,0 -1.015625,0.46875 -1.015625,1 0,0.515625 0.4375,0.6875 0.671875,0.6875 0.5625,0 1.046875,-0.546875 1.046875,-1 z m 0,0"
             id="path6" /></g></g><g
         style="fill:#6f7c91;fill-opacity:1"
         id="g75"><g
           id="g70"
           transform="translate(211.40401,26.899)"
           style="fill:#6f7c91;fill-opacity:1" /><g
           id="g71"
           transform="translate(217.64201,26.899)"
           style="fill:#6f7c91;fill-opacity:1" /><g
           id="g72"
           transform="translate(225.06812,26.899)"
           style="fill:#6f7c91;fill-opacity:1" /><g
           id="g73"
           transform="translate(230.22546,26.899)"
           style="fill:#6f7c91;fill-opacity:1" /><g
           id="g74"
           transform="translate(237.54207,26.899)"
           style="fill:#6f7c91;fill-opacity:1" /></g></g></g><g
     inkscape:label=""
     transform="matrix(0.99849708,0,0,0.99849708,74.974503,32.32431)"
     id="g250"
     style="fill:#6f7c91;fill-opacity:1"><g
       id="g249"
       transform="matrix(0.352778,0,0,0.352778,-71.5861,-4.5304492)"
       style="fill:#6f7c91;fill-opacity:1"><g
         style="fill:#6f7c91;fill-opacity:1"
         id="g218"><g
           id="g78"
           transform="translate(203.187,26.899)"
           style="fill:#6f7c91;fill-opacity:1"><path
             style="fill:#6f7c91;fill-opacity:1;stroke:none"
             d="M 7.234375,-6.546875 C 7.3125,-6.875 7.3125,-7.171875 7.3125,-7.25 c 0,-1.203125 -0.890625,-1.859375 -1.8125,-1.859375 -2.09375,0 -3.203125,3.015625 -3.203125,3.15625 0,0.109375 0.078125,0.1875 0.203125,0.1875 0.171875,0 0.1875,-0.078125 0.28125,-0.28125 0.828125,-2.015625 1.859375,-2.65625 2.65625,-2.65625 0.421875,0 0.65625,0.234375 0.65625,0.953125 0,0.5 -0.0625,0.703125 -0.140625,1.078125 l -1.96875,7.78125 c -0.390625,1.53125 -1.359375,2.6875 -2.5,2.6875 -0.078125,0 -0.515625,0 -0.90625,-0.203125 0.5,-0.109375 0.890625,-0.5 0.890625,-0.984375 0,-0.34375 -0.25,-0.671875 -0.703125,-0.671875 -0.53125,0 -1.03125,0.453125 -1.03125,1.078125 0,0.84375 0.90625,1.203125 1.75,1.203125 1.421875,0 3.3125,-1.0625 3.828125,-3.125 z m 0.84375,-6.34375 c 0,-0.515625 -0.4375,-0.6875 -0.6875,-0.6875 -0.546875,0 -1.03125,0.546875 -1.03125,1 0,0.3125 0.25,0.6875 0.703125,0.6875 0.484375,0 1.015625,-0.46875 1.015625,-1 z m 0,0"
             id="path77" /></g></g><g
         style="fill:#6f7c91;fill-opacity:1"
         id="g248"><g
           id="g219"
           transform="translate(212.72,26.899)"
           style="fill:#6f7c91;fill-opacity:1" /><g
           id="g220"
           transform="translate(218.95801,26.899)"
           style="fill:#6f7c91;fill-opacity:1" /><g
           id="g245"
           transform="translate(226.38411,26.899)"
           style="fill:#6f7c91;fill-opacity:1" /><g
           id="g246"
           transform="translate(231.54147,26.899)"
           style="fill:#6f7c91;fill-opacity:1" /><g
           id="g247"
           transform="translate(238.85806,26.899)"
           style="fill:#6f7c91;fill-opacity:1" /></g></g></g><path
     style="fill:#6f7c91;fill-opacity:1;stroke:none;stroke-width:0.407455"
     d="m 55.424243,46.976406 c 0.0763,-0.31831 0.10196,-0.40744 0.84039,-0.40744 0.22919,0 0.2865,0 0.2865,-0.15918 0,-0.0828 -0.0891,-0.0828 -0.12738,-0.0828 -0.16553,0 -0.35652,0.0192 -0.52842,0.0192 h -1.12686 c -0.15917,0 -0.3438,-0.0192 -0.50296,-0.0192 -0.0701,0 -0.15915,0 -0.15915,0.15918 0,0.0828 0.0763,0.0828 0.19734,0.0828 0.5157,0 0.5157,0.0701 0.5157,0.16553 0,0.0125 0,0.0636 -0.0319,0.19098 l -1.13961,4.52659 c -0.0763,0.29285 -0.0891,0.38197 -0.68119,0.38197 -0.15916,0 -0.24193,0 -0.24193,0.14643 0,0.0956 0.0509,0.0956 0.21645,0.0956 h 3.76896 c 0.191,0 0.19736,-0.005 0.25466,-0.15916 l 0.64938,-1.79534 c 0.0191,-0.0382 0.0319,-0.0891 0.0319,-0.11459 0,-0.0509 -0.0382,-0.0827 -0.0828,-0.0827 -0.005,0 -0.0509,0 -0.07,0.0318 -0.0125,0.005 -0.0125,0.0254 -0.0827,0.18463 -0.26738,0.73851 -0.64937,1.69348 -2.06911,1.69348 h -0.80855 c -0.11457,0 -0.13363,0 -0.18462,-0.0125 -0.0955,-0.005 -0.10196,-0.0254 -0.10196,-0.0891 0,-0.0573 0.019,-0.10814 0.0319,-0.18463 z m 0,0"
     id="path227-9-1" /><g
     inkscape:label=""
     transform="matrix(1.9910967,0,0,1.9910967,94.608543,-22.8717)"
     id="g36-8-7-6-1-3"
     style="fill:#008033;stroke:none"><g
       id="g35-1-2-4-2-1"
       transform="matrix(0.352778,0,0,0.352778,-80.33874,6.6767688)"
       style="fill:#008033;stroke:none"><g
         style="fill:#008033;fill-opacity:1;stroke:none"
         id="g34-2-4-3-9-1"
         transform="translate(1.7348666)"><g
           id="g33-9-0-0-3-0"
           transform="translate(219.13499,26.899)"
           style="fill:#008033;stroke:none"><path
             style="fill:#008033;stroke:none"
             d="m 2.96875,-0.453125 c 0.515625,0.46875 1.28125,0.65625 1.984375,0.65625 1.328125,0 2.234375,-0.890625 2.703125,-1.53125 0.21875,1.09375 1.078125,1.53125 1.796875,1.53125 0.625,0 1.125,-0.375 1.5,-1.109375 0.328125,-0.703125 0.609375,-1.96875 0.609375,-2.046875 0,-0.109375 -0.07813,-0.1875 -0.203125,-0.1875 -0.1875,0 -0.203125,0.109375 -0.28125,0.40625 -0.3125,1.21875 -0.703125,2.53125 -1.5625,2.53125 C 8.921875,-0.203125 8.875,-0.75 8.875,-1.15625 8.875,-1.625 9.0625,-2.375 9.21875,-3 L 9.796875,-5.21875 C 9.875,-5.625 10.09375,-6.546875 10.203125,-6.921875 c 0.125,-0.5 0.359375,-1.375 0.359375,-1.46875 0,-0.3125 -0.25,-0.515625 -0.5625,-0.515625 -0.1875,0 -0.625,0.09375 -0.78125,0.703125 l -1.453125,5.75 C 7.65625,-2.046875 7.65625,-2 7.390625,-1.671875 c -0.25,0.34375 -1.046875,1.46875 -2.34375,1.46875 -1.15625,0 -1.53125,-0.84375 -1.53125,-1.828125 0,-0.59375 0.1875,-1.3125 0.265625,-1.671875 l 0.921875,-3.71875 C 4.8125,-7.8125 4.984375,-8.46875 4.984375,-8.59375 c 0,-0.328125 -0.28125,-0.515625 -0.546875,-0.515625 -0.1875,0 -0.640625,0.0625 -0.796875,0.71875 l -3,11.96875 c -0.015625,0.09375 -0.0625,0.21875 -0.0625,0.34375 0,0.3125 0.25,0.515625 0.5625,0.515625 0.59375,0 0.71875,-0.46875 0.859375,-1.046875 z m 0,0"
             id="path32-3-6-3-1-3" /></g></g></g></g><g
     inkscape:label=""
     transform="matrix(1.9910967,0,0,1.9910967,67.042143,2.4752098)"
     id="g42-4-5-9-9-4"
     style="fill:#6f7c91;fill-opacity:1"><g
       id="g41-9-6-3-4-0"
       transform="matrix(0.352778,0,0,0.352778,-75.390502,-6.27578)"
       style="fill:#6f7c91;fill-opacity:1"><g
         style="fill:#6f7c91;fill-opacity:1"
         id="g38-2-6-6-7-3"><g
           id="g37-0-4-8-8-9"
           transform="translate(213.369,26.899)"
           style="fill:#6f7c91;fill-opacity:1"><path
             style="fill:#6f7c91;fill-opacity:1;stroke:none"
             d="m 9.5625,-5.21875 c 0,-2.015625 -1.140625,-3.890625 -3.328125,-3.890625 -2.703125,0 -5.40625,2.953125 -5.40625,5.890625 0,1.796875 1.109375,3.421875 3.21875,3.421875 1.28125,0 2.8125,-0.5 4.28125,-1.734375 0.28125,1.15625 0.921875,1.734375 1.8125,1.734375 1.109375,0 1.671875,-1.15625 1.671875,-1.421875 0,-0.1875 -0.140625,-0.1875 -0.203125,-0.1875 -0.171875,0 -0.1875,0.0625 -0.25,0.234375 -0.1875,0.515625 -0.65625,0.96875 -1.15625,0.96875 -0.640625,0 -0.640625,-1.328125 -0.640625,-2.578125 2.109375,-2.53125 2.609375,-5.125 2.609375,-5.15625 0,-0.1875 -0.171875,-0.1875 -0.234375,-0.1875 -0.1875,0 -0.203125,0.0625 -0.28125,0.4375 -0.28125,0.90625 -0.8125,2.515625 -2.09375,4.21875 z m -1.296875,3.1875 C 6.4375,-0.390625 4.8125,-0.203125 4.09375,-0.203125 c -1.46875,0 -1.890625,-1.3125 -1.890625,-2.28125 0,-0.875 0.46875,-2.984375 1.109375,-4.125 0.84375,-1.453125 2,-2.09375 2.921875,-2.09375 2,0 2,2.625 2,4.359375 0,0.515625 -0.015625,1.0625 -0.015625,1.578125 0,0.40625 0.015625,0.515625 0.046875,0.734375 z m 0,0"
             id="path36-6-0-0-4-1" /></g></g><g
         style="fill:#6f7c91;fill-opacity:1"
         id="g40-8-0-2-5-9"><g
           id="g39-9-4-1-0-6"
           transform="translate(226.237,29.997999)"
           style="fill:#6f7c91;fill-opacity:1"><path
             style="fill:#6f7c91;fill-opacity:1;stroke:none"
             d="m 6.046875,-4.875 c 1.421875,-0.328125 2.53125,-1.234375 2.53125,-2.34375 0,-1.390625 -1.625,-2.578125 -3.6875,-2.578125 H 0.609375 V -9.375 h 0.28125 c 1.03125,0 1.078125,0.140625 1.078125,0.671875 v 7.609375 c 0,0.53125 -0.046875,0.671875 -1.078125,0.671875 H 0.609375 V 0 c 0.328125,-0.03125 1.5,-0.03125 1.921875,-0.03125 0.40625,0 1.59375,0 1.921875,0.03125 v -0.421875 h -0.28125 c -1.03125,0 -1.078125,-0.140625 -1.078125,-0.671875 v -3.671875 h 1.671875 c 0.5625,0 1.09375,0.15625 1.46875,0.5625 0.5,0.546875 0.5,0.84375 0.5,1.84375 0,1.125 0,1.5 0.625,2.109375 0.21875,0.21875 0.8125,0.546875 1.625,0.546875 1.109375,0 1.296875,-1.25 1.296875,-1.546875 0,-0.078125 0,-0.21875 -0.15625,-0.21875 -0.140625,0 -0.140625,0.09375 -0.15625,0.234375 -0.078125,0.859375 -0.484375,1.25 -0.953125,1.25 -0.65625,0 -0.796875,-0.671875 -0.90625,-1.4375 C 8.09375,-1.515625 8,-2.140625 7.953125,-2.5 7.859375,-3.21875 7.796875,-3.671875 7.375,-4.109375 7.21875,-4.28125 6.84375,-4.65625 6.046875,-4.875 Z M 4.703125,-5.046875 H 3.09375 V -8.8125 c 0,-0.328125 0,-0.5 0.3125,-0.546875 C 3.53125,-9.375 3.953125,-9.375 4.25,-9.375 c 1.15625,0 3,0 3,2.15625 0,1.25 -0.6875,2.171875 -2.546875,2.171875 z m 0,0"
             id="path38-2-6-0-3-9" /></g></g></g></g><g
     inkscape:label=""
     transform="matrix(1.6267792,0,0,1.6267792,49.341289,2.1541898)"
     id="g256-6-3"
     style="fill:#ff6600;fill-opacity:1"><g
       id="g255-1-3"
       transform="matrix(0.352778,0,0,0.352778,-76.1617,-4.5119)"
       style="fill:#ff6600;fill-opacity:1"><g
         style="fill:#ff6600;fill-opacity:1"
         id="g252-0-8"><g
           id="g251-6-0"
           transform="translate(214.782,26.899)"
           style="fill:#ff6600;fill-opacity:1"><path
             style="fill:#ff6600;fill-opacity:1;stroke:none"
             d="m 12.78125,-11.8125 c 0.703125,-1.125 1.34375,-1.609375 2.40625,-1.703125 0.203125,-0.01563 0.359375,-0.01563 0.359375,-0.390625 0,-0.07813 -0.03125,-0.203125 -0.21875,-0.203125 -0.375,0 -1.265625,0.04687 -1.640625,0.04687 -0.59375,0 -1.21875,-0.04687 -1.796875,-0.04687 -0.15625,0 -0.359375,0 -0.359375,0.390625 0,0.1875 0.1875,0.203125 0.265625,0.203125 0.765625,0.0625 0.84375,0.4375 0.84375,0.6875 0,0.3125 -0.28125,0.78125 -0.3125,0.8125 L 5.84375,-1.734375 4.40625,-12.875 c 0,-0.59375 1.0625,-0.640625 1.296875,-0.640625 0.3125,0 0.5,0 0.5,-0.390625 0,-0.203125 -0.234375,-0.203125 -0.296875,-0.203125 -0.34375,0 -0.765625,0.04687 -1.109375,0.04687 h -1.15625 c -1.515625,0 -2.125,-0.04687 -2.15625,-0.04687 -0.125,0 -0.375,0 -0.375,0.375 0,0.21875 0.15625,0.21875 0.484375,0.21875 1.046875,0 1.109375,0.1875 1.171875,0.703125 l 1.65625,12.75 c 0.0625,0.4375 0.0625,0.5 0.34375,0.5 0.25,0 0.359375,-0.0625 0.5625,-0.390625 z m 0,0"
             id="path251-3-5" /></g></g><g
         style="fill:#ff6600;fill-opacity:1"
         id="g254-2-6"><g
           id="g253-0-6"
           transform="translate(226.577,29.997999)"
           style="fill:#ff6600;fill-opacity:1"><path
             style="fill:#ff6600;fill-opacity:1;stroke:none"
             d="M 7.671875,-9.296875 C 7.78125,-9.484375 7.78125,-9.5 7.78125,-9.59375 c 0,-0.203125 -0.0625,-0.203125 -0.34375,-0.203125 H 1.140625 L 0.96875,-6.59375 H 1.296875 C 1.390625,-8.21875 1.84375,-9.375 4.15625,-9.375 H 6.453125 L 0.78125,-0.34375 C 0.78125,-0.015625 0.78125,0 1.125,0 h 6.5 l 0.234375,-3.78125 h -0.3125 C 7.4375,-1.765625 7.140625,-0.4375 4.53125,-0.4375 H 2.109375 Z m 0,0"
             id="path252-6-4" /></g></g></g></g><path
     style="fill:none;fill-opacity:1;stroke:#6f7c91;stroke-width:0.4;stroke-dasharray:none;stroke-opacity:1;marker-start:url(#marker5-9-3-8-4)"
     d="M 12.0549,45.163436 H 93.985653 Z"
     id="path3-65-0-2-6"
     inkscape:export-filename="../MWan.svg"
     inkscape:export-xdpi="96"
     inkscape:export-ydpi="96" /><path
     style="fill:none;fill-opacity:1;stroke:#6f7c91;stroke-width:0.4;stroke-dasharray:none;stroke-opacity:1;marker-start:url(#marker5-9-9-8-1-6)"
     d="M 98.304783,45.163436 H 15.815667 Z"
     id="path3-65-1-9-2-8" /><path
     style="fill:none;fill-opacity:1;stroke:#6f7c91;stroke-width:0.170383;stroke-dasharray:none;stroke-opacity:1;marker-start:url(#marker5-9-3-8-4-0)"
     d="m 22.061308,43.872636 h 9.587699 z"
     id="path3-65-0-2-6-2"
     inkscape:export-filename="../MWan.svg"
     inkscape:export-xdpi="96"
     inkscape:export-ydpi="96" /><path
     style="fill:none;fill-opacity:1;stroke:#6f7c91;stroke-width:0.16926;stroke-dasharray:none;stroke-opacity:1;marker-start:url(#marker5-9-9-8-1-6-3)"
     d="M 32.11548,43.872636 H 22.459538 Z"
     id="path3-65-1-9-2-8-6" /><g
     inkscape:label=""
     transform="matrix(1.0167581,0,0,1.0167581,24.722745,46.084876)"
     id="g264"
     style="fill:#6f7c91;fill-opacity:1"><g
   id="g263"
   transform="matrix(0.352778,0,0,0.352778,-76.5451,-6.27578)"
   style="fill:#6f7c91;fill-opacity:1">
    <g
   style="fill:#6f7c91;fill-opacity:1"
   id="g260">
      <g
   id="g259"
   transform="translate(216.14999,26.899)"
   style="fill:#6f7c91;fill-opacity:1">
        <path
   style="fill:#6f7c91;fill-opacity:1;stroke:none"
   d="m 6.21875,-2.453125 c -0.109375,0.34375 -0.109375,0.390625 -0.390625,0.78125 -0.453125,0.578125 -1.359375,1.46875 -2.34375,1.46875 -0.84375,0 -1.3125,-0.765625 -1.3125,-1.984375 0,-1.140625 0.640625,-3.453125 1.03125,-4.3125 C 3.90625,-7.953125 4.875,-8.703125 5.6875,-8.703125 c 1.359375,0 1.625,1.703125 1.625,1.859375 0,0.03125 -0.0625,0.296875 -0.078125,0.34375 z M 7.546875,-7.75 C 7.3125,-8.28125 6.75,-9.109375 5.6875,-9.109375 c -2.34375,0 -4.859375,3.015625 -4.859375,6.078125 0,2.046875 1.203125,3.234375 2.59375,3.234375 1.140625,0 2.109375,-0.890625 2.6875,-1.5625 0.21875,1.21875 1.1875,1.5625 1.796875,1.5625 0.625,0 1.125,-0.375 1.5,-1.109375 0.328125,-0.703125 0.609375,-1.96875 0.609375,-2.046875 0,-0.109375 -0.078125,-0.1875 -0.203125,-0.1875 -0.1875,0 -0.203125,0.109375 -0.296875,0.40625 -0.296875,1.21875 -0.703125,2.53125 -1.546875,2.53125 -0.59375,0 -0.640625,-0.546875 -0.640625,-0.953125 0,-0.46875 0.0625,-0.703125 0.25,-1.515625 0.140625,-0.515625 0.25,-0.96875 0.421875,-1.5625 0.765625,-3.09375 0.9375,-3.84375 0.9375,-3.96875 0,-0.28125 -0.21875,-0.515625 -0.53125,-0.515625 C 7.75,-8.71875 7.578125,-8 7.546875,-7.75 Z m 0,0"
   id="path259" />
      </g>
    </g>
    <g
   style="fill:#6f7c91;fill-opacity:1"
   id="g262">
      <g
   id="g261"
   transform="translate(226.77,29.997999)"
   style="fill:#6f7c91;fill-opacity:1">
        <path
   style="fill:#6f7c91;fill-opacity:1;stroke:none"
   d="m 6.421875,-4.59375 c 0,-1.1875 -0.0625,-2.34375 -0.578125,-3.4375 -0.59375,-1.1875 -1.625,-1.5 -2.328125,-1.5 -0.828125,0 -1.859375,0.40625 -2.375,1.59375 -0.40625,0.90625 -0.546875,1.796875 -0.546875,3.34375 0,1.390625 0.09375,2.4375 0.609375,3.453125 0.5625,1.09375 1.546875,1.4375 2.296875,1.4375 1.25,0 1.96875,-0.734375 2.375,-1.578125 0.515625,-1.078125 0.546875,-2.484375 0.546875,-3.3125 z M 3.5,0.015625 C 3.046875,0.015625 2.109375,-0.25 1.84375,-1.8125 1.671875,-2.671875 1.671875,-3.765625 1.671875,-4.765625 1.671875,-5.9375 1.671875,-7 1.90625,-7.84375 2.15625,-8.8125 2.890625,-9.25 3.5,-9.25 c 0.546875,0 1.375,0.328125 1.65625,1.5625 0.171875,0.8125 0.171875,1.953125 0.171875,2.921875 0,0.96875 0,2.046875 -0.15625,2.921875 C 4.90625,-0.265625 4,0.015625 3.5,0.015625 Z m 0,0"
   id="path260" />
      </g>
    </g>
  </g>
</g><g
     inkscape:label=""
     transform="matrix(1.5168653,0,0,1.5168653,32.746702,32.33864)"
     id="g258"
     style="fill:#6600ff;fill-opacity:1"><g
   id="g257"
   transform="matrix(0.352778,0,0,0.352778,-76.623271,-4.5119)"
   style="fill:#6600ff;fill-opacity:1">
    <g
   style="fill:#6600ff;fill-opacity:1"
   id="g3">
      <g
   id="use2"
   transform="translate(217.271,26.899)"
   style="fill:#6600ff;fill-opacity:1">
        <path
   style="fill:#6600ff;fill-opacity:1;stroke:none"
   d="m 10.453125,-8.573454 c -0.71875,2.890625 -3.125,4.578125 -5.0625,4.578125 -1.484375,0 -2.5,-0.984375 -2.5,-2.703125 0,-0.078125 0,-0.703125 0.234375,-1.609375 l 2.015625,-8.109375 c 0.1875,-0.703125 0.234375,-0.921875 1.703125,-0.921875 0.359375,0 0.578125,0 0.578125,-0.359375 0,-0.234375 -0.1875,-0.234375 -0.3125,-0.234375 -0.375,0 -0.8125,0.04687 -1.203125,0.04687 h -2.4375 c -0.390625,0 -0.828125,-0.04687 -1.21875,-0.04687 -0.140625,0 -0.390625,0 -0.390625,0.390625 0,0.203125 0.140625,0.203125 0.53125,0.203125 1.25,0 1.25,0.171875 1.25,0.40625 0,0.109375 -0.15625,0.71875 -0.25,1.0625 L 1.59375,-8.635954 c -0.0625,0.234375 -0.1875,0.78125 -0.1875,1.34375 0,2.265625 1.625,3.90625 3.875,3.90625 2.09375,0 4.40625,-1.65625 5.453125,-4.28125 0.15625,-0.34375 0.34375,-1.078125 0.46875,-1.625 0.203125,-0.75 0.640625,-2.5625 0.78125,-3.109375 l 0.78125,-3.09375 c 0.265625,-1.078125 0.4375,-1.75 2.25,-1.84375 0.171875,-0.01563 0.25,-0.171875 0.25,-0.359375 0,-0.234375 -0.1875,-0.234375 -0.265625,-0.234375 -0.296875,0 -0.671875,0.04687 -0.953125,0.04687 h -0.96875 c -1.28125,0 -1.9375,-0.04687 -1.96875,-0.04687 -0.125,0 -0.375,0 -0.375,0.390625 0,0.203125 0.171875,0.203125 0.3125,0.203125 1.25,0.04687 1.328125,0.515625 1.328125,0.890625 0,0.1875 0,0.25 -0.07813,0.546875 z m 0,0"
   id="path257" />
      </g>
    </g>
  </g>
</g><circle
     style="mix-blend-mode:normal;fill:#a995ff;fill-opacity:1;stroke:none;stroke-width:0.341716;stroke-dasharray:none;stroke-opacity:1;filter:url(#filter1-7)"
     id="path27-4-18-1-3-0-9-6"
     cx="103.21873"
     cy="165.13123"
     r="1.9770352"
     transform="matrix(0.57161306,0,0,0.57161306,18.641832,-53.60091)" /><circle
     style="mix-blend-mode:normal;fill:#a995ff;fill-opacity:1;stroke:none;stroke-width:0.341716;stroke-dasharray:none;stroke-opacity:1;filter:url(#filter1-1)"
     id="path27-4-18-1-3-0-9-0"
     cx="103.21873"
     cy="165.13123"
     r="1.9770352"
     transform="matrix(0.57161306,0,0,0.57161306,29.904131,-53.60091)" /><circle
     style="mix-blend-mode:normal;fill:#a995ff;fill-opacity:1;stroke:none;stroke-width:0.341716;stroke-dasharray:none;stroke-opacity:1;filter:url(#filter1-1-5)"
     id="path27-4-18-1-3-0-9-0-6"
     cx="103.21873"
     cy="165.13123"
     r="1.9770352"
     transform="matrix(0.57161306,0,0,0.57161306,41.166429,-53.666034)" /><circle
     style="mix-blend-mode:normal;fill:#a995ff;fill-opacity:1;stroke:none;stroke-width:0.341716;stroke-dasharray:none;stroke-opacity:1;filter:url(#filter1-1-9)"
     id="path27-4-18-1-3-0-9-0-5"
     cx="103.21873"
     cy="165.13123"
     r="1.9770352"
     transform="matrix(0.57161306,0,0,0.57161306,-3.8827423,-53.60091)" /><circle
     style="mix-blend-mode:normal;fill:#a995ff;fill-opacity:1;stroke:none;stroke-width:0.341716;stroke-dasharray:none;stroke-opacity:1;filter:url(#filter1-1-4)"
     id="path27-4-18-1-3-0-9-0-3"
     cx="103.21873"
     cy="165.13123"
     r="1.9770352"
     transform="matrix(0.57161306,0,0,0.57161306,-15.145041,-53.431934)" /><circle
     style="mix-blend-mode:normal;fill:#a995ff;fill-opacity:1;stroke:none;stroke-width:0.341716;stroke-dasharray:none;stroke-opacity:1;filter:url(#filter1-1-8)"
     id="path27-4-18-1-3-0-9-0-4"
     cx="103.21873"
     cy="165.13123"
     r="1.9770352"
     transform="matrix(0.57161306,0,0,0.57161306,-26.407339,-53.431934)" /><circle
     style="mix-blend-mode:normal;fill:#a995ff;fill-opacity:1;stroke:none;stroke-width:0.341716;stroke-dasharray:none;stroke-opacity:1;filter:url(#filter1-1-49)"
     id="path27-4-18-1-3-0-9-0-8"
     cx="103.21873"
     cy="165.13123"
     r="1.9770352"
     transform="matrix(0.57161306,0,0,0.57161306,-37.636252,-53.431934)" /><circle
     style="mix-blend-mode:normal;fill:#a995ff;fill-opacity:1;stroke:none;stroke-width:0.341716;stroke-dasharray:none;stroke-opacity:1;filter:url(#filter1-1-6)"
     id="path27-4-18-1-3-0-9-0-0"
     cx="103.21873"
     cy="165.13123"
     r="1.9770352"
     transform="matrix(0.57161306,0,0,0.57161306,-48.865172,-53.431934)" /><g
     inkscape:label=""
     transform="matrix(1.8091735,0,0,1.8091735,11.919033,2.4850798)"
     id="g352"
     style="fill:#00aad4;fill-opacity:1"><g
   id="g351"
   transform="matrix(0.352778,0,0,0.352778,-75.5822,-4.33551)"
   style="fill:#00aad4;fill-opacity:1">
    <g
   style="fill:#00aad4;fill-opacity:1"
   id="g332">
      <g
   id="g295"
   transform="translate(213.483,26.899)"
   style="fill:#00aad4;fill-opacity:1">
        <path
   style="fill:#00aad4;fill-opacity:1;stroke:none"
   d="m 8.390625,-14.25 c -0.171875,-0.359375 -0.25,-0.359375 -0.421875,-0.359375 -0.25,0 -0.265625,0.04687 -0.40625,0.328125 L 0.875,-0.34375 C 0.84375,-0.3125 0.765625,-0.125 0.765625,-0.109375 0.765625,-0.015625 0.78125,0 1.15625,0 h 13.609375 c 0.375,0 0.390625,-0.015625 0.390625,-0.109375 0,-0.015625 -0.07813,-0.203125 -0.09375,-0.234375 z m -0.9375,1.21875 5.71875,11.875 H 1.71875 Z m 0,0"
   id="path2" />
      </g>
    </g>
    <g
   style="fill:#00aad4;fill-opacity:1"
   id="g350">
      <g
   id="g335"
   transform="translate(229.437,29.997999)"
   style="fill:#00aad4;fill-opacity:1">
        <path
   style="fill:#00aad4;fill-opacity:1;stroke:none"
   d="m 6.421875,-4.59375 c 0,-1.1875 -0.0625,-2.34375 -0.578125,-3.4375 -0.59375,-1.1875 -1.625,-1.5 -2.328125,-1.5 -0.828125,0 -1.859375,0.40625 -2.375,1.59375 -0.40625,0.90625 -0.546875,1.796875 -0.546875,3.34375 0,1.390625 0.09375,2.4375 0.609375,3.453125 0.5625,1.09375 1.546875,1.4375 2.296875,1.4375 1.25,0 1.96875,-0.734375 2.375,-1.578125 0.515625,-1.078125 0.546875,-2.484375 0.546875,-3.3125 z M 3.5,0.015625 C 3.046875,0.015625 2.109375,-0.25 1.84375,-1.8125 1.671875,-2.671875 1.671875,-3.765625 1.671875,-4.765625 1.671875,-5.9375 1.671875,-7 1.90625,-7.84375 2.15625,-8.8125 2.890625,-9.25 3.5,-9.25 c 0.546875,0 1.375,0.328125 1.65625,1.5625 0.171875,0.8125 0.171875,1.953125 0.171875,2.921875 0,0.96875 0,2.046875 -0.15625,2.921875 C 4.90625,-0.265625 4,0.015625 3.5,0.015625 Z m 0,0"
   id="path332" />
      </g>
    </g>
  </g>
</g></svg>
