<?xml version="1.0" encoding="UTF-8" standalone="no"?>
<!-- Created with Inkscape (http://www.inkscape.org/) -->

<svg
   width="210mm"
   height="297mm"
   viewBox="0 0 210 297"
   version="1.1"
   id="svg5"
   sodipodi:docname="self energies.svg"
   inkscape:version="1.3.2 (1:1.3.2+202311252150+091e20ef0f)"
   xml:space="preserve"
   xmlns:inkscape="http://www.inkscape.org/namespaces/inkscape"
   xmlns:sodipodi="http://sodipodi.sourceforge.net/DTD/sodipodi-0.dtd"
   xmlns="http://www.w3.org/2000/svg"
   xmlns:svg="http://www.w3.org/2000/svg"><sodipodi:namedview
     id="namedview7"
     pagecolor="#ffffff"
     bordercolor="#000000"
     borderopacity="0.25"
     inkscape:showpageshadow="2"
     inkscape:pageopacity="0.0"
     inkscape:pagecheckerboard="0"
     inkscape:deskcolor="#d1d1d1"
     inkscape:document-units="mm"
     showgrid="false"
     inkscape:zoom="1.0606602"
     inkscape:cx="152.73506"
     inkscape:cy="212.13203"
     inkscape:window-width="1850"
     inkscape:window-height="1016"
     inkscape:window-x="0"
     inkscape:window-y="0"
     inkscape:window-maximized="1"
     inkscape:current-layer="layer1" /><defs
     id="defs2"><inkscape:path-effect
       effect="spiro"
       id="path-effect12"
       is_visible="true"
       lpeversion="1" /><pattern
       id="EMFhbasepattern"
       patternUnits="userSpaceOnUse"
       width="6"
       height="6"
       x="0"
       y="0" /><pattern
       id="EMFhbasepattern-1"
       patternUnits="userSpaceOnUse"
       width="6"
       height="6"
       x="0"
       y="0" /><clipPath
       id="clipPath8834"><path
         clip-rule="nonzero"
         d="m 189,18 h 18 v 17.863281 h -18 z m 0,0"
         id="path652" /></clipPath><clipPath
       id="clipPath1385"><path
         clip-rule="nonzero"
         d="m 186,18 h 24 v 17.863281 h -24 z m 0,0"
         id="path607" /></clipPath><clipPath
       id="clipPath8072"><path
         clip-rule="nonzero"
         d="M 1,0 H 52 V 17.214844 H 1 Z m 0,0"
         id="path497" /></clipPath><clipPath
       id="clipPath9853"><path
         clip-rule="nonzero"
         d="M 1,0 H 46 V 16.933594 H 1 Z m 0,0"
         id="path2252" /></clipPath><clipPath
       id="clipPath6191"><path
         clip-rule="nonzero"
         d="M 0,6 H 12 V 22.035156 H 0 Z m 0,0"
         id="path7529" /></clipPath><clipPath
       id="clipPath5622"><path
         clip-rule="nonzero"
         d="M 1,0 H 87 V 17.214844 H 1 Z m 0,0"
         id="path7188" /></clipPath><clipPath
       id="clipPath6191-6"><path
         clip-rule="nonzero"
         d="M 0,6 H 12 V 22.035156 H 0 Z m 0,0"
         id="path7529-6" /></clipPath><clipPath
       id="clipPath1385-3"><path
         clip-rule="nonzero"
         d="m 186,18 h 24 v 17.863281 h -24 z m 0,0"
         id="path607-6" /></clipPath></defs><g
     inkscape:label="Layer 1"
     inkscape:groupmode="layer"
     id="layer1"><path
       style="fill:#000000;stroke-width:0.420533"
       d="m 28.36745,103.68381 c -0.361663,-0.94248 0.480619,-2.82251 1.704467,-3.804481 1.476441,-1.18466 1.410482,-2.83861 -0.180581,-4.52825 -2.137892,-2.27035 -2.098022,-4.23223 0.127961,-6.29628 1.555335,-1.44217 1.470016,-2.95085 -0.268302,-4.74434 -1.919151,-1.98006 -1.919151,-3.84229 0,-5.82235 1.81822,-1.87594 1.818429,-3.235324 7.53e-4,-5.110647 -1.883852,-1.943651 -1.869576,-3.895075 0.04292,-5.868297 1.34048,-1.38301 1.780778,-3.198803 0.971814,-4.007778 -0.210503,-0.210575 -1.366317,-0.569262 -2.568463,-0.797262 -3.105828,-0.588987 -4.999787,-1.67834 -7.815412,-4.495134 -3.098136,-3.099463 -4.897414,-6.658567 -4.897875,-9.688386 -3.13e-4,-2.050863 0.06635,-2.187743 1.126662,-2.312915 0.859285,-0.101493 1.400354,-0.632565 2.277771,-2.235721 3.191647,-5.831672 9.982813,-8.356064 16.239321,-6.036425 1.869102,0.692968 3.082433,1.5684 5.229108,3.772797 3.299687,3.388418 4.561591,5.772697 4.873024,9.207245 l 0.228137,2.516028 -1.306538,0.261315 c -1.012234,0.202496 -1.503714,0.668613 -2.181884,2.069548 -1.536407,3.173776 -6.416013,6.886321 -9.08735,6.913913 -0.810114,0.0095 -0.874467,0.187289 -0.681877,1.895951 0.193533,1.717044 0.07541,2.038657 -1.313251,3.57575 -0.839255,0.928956 -1.525913,1.954402 -1.525913,2.278788 0,0.324393 0.662336,1.382564 1.471861,2.351518 2.002991,2.397404 2.002991,4.146262 0,6.363322 -0.809525,0.89606 -1.471861,1.91195 -1.471861,2.25757 0,0.34559 0.662336,1.3615 1.471861,2.25754 2.002991,2.21708 2.002991,3.96591 0,6.36335 -0.809525,0.96893 -1.471861,2.02712 -1.471861,2.35149 0,0.32439 0.662336,1.32293 1.471861,2.21899 1.992696,2.20569 2.040009,4.23358 0.140176,6.008281 -0.911789,0.85176 -1.331685,1.63423 -1.331685,2.48166 0,1.29962 -0.852816,1.70313 -1.274894,0.60321 z m 6.092508,-42.671047 c 1.77392,-0.512058 5.169145,-3.359751 6.060226,-5.082921 0.83606,-1.61676 0.807768,-1.672047 -0.701219,-1.370248 -0.734096,0.146874 -1.236573,0.09554 -1.134287,-0.115749 1.425135,-2.943161 1.789101,-4.167439 1.941239,-6.52987 0.227711,-3.535741 -0.60212,-5.413123 -3.238816,-7.327503 -5.253913,-3.814556 -12.437238,-2.814893 -16.316091,2.27064 -1.734528,2.2741 -1.751886,2.765858 -0.08587,2.432674 0.712463,-0.142601 1.224662,-0.11883 1.13822,0.05254 -1.831579,3.631792 -2.079196,4.620375 -1.941322,7.750518 0.128626,2.920157 0.264515,3.36203 1.402064,4.559141 3.64893,3.839986 7.622517,4.87712 12.875851,3.360675 z"
       id="path301"
       inkscape:export-filename="../H.png"
       inkscape:export-xdpi="96"
       inkscape:export-ydpi="96" /><g
       inkscape:label=""
       transform="matrix(2.9821504,0,0,2.9821504,18.498032,13.844579)"
       id="g1"><g
   id="surface2"
   transform="matrix(0.352778,0,0,0.352778,-75.4109,-3.0237)">
    <g
   style="fill:#000000;fill-opacity:1"
   id="g5">
      <g
   id="use4"
   transform="translate(212.81,26.899)">
        <path
   style="stroke:none"
   d="M 6.671875,-6.796875 C 6.8125,-6.96875 6.8125,-7 6.8125,-7.0625 c 0,-0.078125 -0.078125,-0.203125 -0.09375,-0.25 l -4.078125,-6.265625 h 5 c 3.4375,0 4.46875,0.75 4.8125,4.03125 h 0.375 l -0.5,-4.5625 H 1.40625 c -0.4375,0 -0.453125,0.01563 -0.453125,0.453125 l 4.765625,7.359375 -4.609375,5.90625 C 0.96875,-0.203125 0.96875,-0.1875 0.96875,-0.140625 0.96875,0 1.09375,0 1.40625,0 h 10.921875 l 0.5,-4.734375 h -0.375 c -0.328125,3.34375 -1.5,4.03125 -4.859375,4.03125 h -5.6875 z m 0,0"
   id="path6" />
      </g>
    </g>
    <g
   style="fill:#000000;fill-opacity:1"
   id="g6">
      <g
   id="use5"
   transform="translate(226.604,18.368)">
        <path
   style="stroke:none"
   d="m 8.5625,-8.703125 c 0,-0.53125 0.046875,-0.671875 1.078125,-0.671875 h 0.28125 v -0.421875 c -0.34375,0.03125 -1.515625,0.03125 -1.9375,0.03125 -0.421875,0 -1.59375,0 -1.953125,-0.03125 V -9.375 h 0.296875 c 1.03125,0 1.078125,0.140625 1.078125,0.671875 V -5.3125 H 3.109375 V -8.703125 C 3.109375,-9.234375 3.15625,-9.375 4.1875,-9.375 h 0.28125 v -0.421875 c -0.34375,0.03125 -1.515625,0.03125 -1.9375,0.03125 -0.421875,0 -1.59375,0 -1.9375,-0.03125 V -9.375 H 0.875 c 1.03125,0 1.078125,0.140625 1.078125,0.671875 v 7.609375 c 0,0.53125 -0.046875,0.671875 -1.078125,0.671875 H 0.59375 V 0 c 0.34375,-0.03125 1.515625,-0.03125 1.9375,-0.03125 0.421875,0 1.59375,0 1.9375,0.03125 V -0.421875 H 4.1875 c -1.03125,0 -1.078125,-0.140625 -1.078125,-0.671875 V -4.890625 H 7.40625 v 3.796875 c 0,0.53125 -0.046875,0.671875 -1.078125,0.671875 H 6.03125 V 0 c 0.359375,-0.03125 1.53125,-0.03125 1.9375,-0.03125 0.4375,0 1.609375,0 1.953125,0.03125 V -0.421875 H 9.640625 C 8.609375,-0.421875 8.5625,-0.5625 8.5625,-1.09375 Z m 0,0"
   id="path7" />
      </g>
    </g>
  </g>
</g><path
       style="fill:#000000;stroke-width:0.384108"
       d="m 98.287544,46.083553 v -1.344372 h -13.97291 c -15.832031,0 -14.851194,0.208303 -15.135002,-3.214181 -0.160755,-1.937783 -0.113177,-2.058762 1.236908,-3.145604 2.97036,-2.391283 3.28844,-2.788379 3.27588,-4.089695 -0.006,-0.696195 -0.266,-1.601331 -0.57616,-2.01141 -1.68963,-2.233893 0.24227,-5.976278 3.08508,-5.976278 1.035834,0 1.694644,-0.291179 2.515034,-1.111576 0.98803,-0.988011 1.10512,-1.357075 1.05346,-3.320288 -0.0539,-2.049763 0.0339,-2.290809 1.21856,-3.349417 1.16135,-1.037667 1.43651,-1.116119 3.04617,-0.868432 3.93763,0.605894 5.18905,0.08455 5.64619,-2.352269 0.14164,-0.754819 0.71708,-1.692942 1.38137,-2.251906 1.60443,-1.350049 3.40078,-1.269882 5.51156,0.245959 2.12125,1.52338 3.666836,1.338125 5.362876,-0.642788 2.04788,-2.391835 5.40028,-2.435662 6.65427,-0.087 1.51859,2.844281 3.7574,3.799007 5.61459,2.394309 0.41008,-0.310165 1.45804,-0.563943 2.3288,-0.563943 2.08528,0 3.46161,1.403042 3.76734,3.840474 0.3139,2.502382 1.55908,3.468359 4.38687,3.403165 1.97265,-0.0455 2.26039,0.05741 3.24614,1.160641 1.13446,1.269674 1.3286,2.454888 0.7389,4.511006 -0.59223,2.065038 1.12706,4.369563 3.25993,4.369563 0.31702,0 1.00031,0.457359 1.51835,1.016359 1.32864,1.433621 1.30353,3.872464 -0.0565,5.488768 -1.30965,1.556428 -1.38711,3.51337 -0.18964,4.788147 0.48638,0.517718 0.76958,1.126952 0.62936,1.353847 -0.17313,0.280103 -4.20729,0.412545 -12.56599,0.412545 h -12.31104 l -4.96189,1.344372 c -2.72906,0.739409 -5.129906,1.344391 -5.335256,1.344391 -0.20529,0 -0.37338,-0.604982 -0.37338,-1.344391 z m 0,-3.841073 c 0,-0.739408 0.12967,-1.343705 0.28808,-1.342889 0.15836,5.95e-4 2.535116,0.603523 5.281496,1.339334 l 4.9934,1.337834 11.46885,0.0048 11.46883,0.0048 -0.28717,-1.056302 c -0.45387,-1.669284 -0.23084,-3.28015 0.59827,-4.321212 2.14988,-2.699465 1.75226,-4.231058 -1.50189,-5.785342 -2.73531,-1.30646 -3.26631,-2.345403 -2.92676,-5.726424 0.2526,-2.515353 0.22871,-2.616542 -0.8115,-3.434764 -0.8459,-0.665371 -1.37185,-0.792371 -2.49541,-0.602547 -2.54394,0.429798 -4.95026,-1.457258 -4.95026,-3.882029 0,-1.747096 -1.3002,-3.234512 -2.81268,-3.217641 -0.67124,0.0074 -1.65256,0.260634 -2.18072,0.562551 -2.17345,1.242457 -4.90416,0.321092 -6.12172,-2.065519 -1.33483,-2.616482 -4.05162,-2.922656 -5.55632,-0.626178 -0.83795,1.278863 -3.071546,2.254276 -4.413006,1.927162 -0.55097,-0.134354 -1.6472,-0.687075 -2.43607,-1.228281 -2.50705,-1.719987 -4.52455,-1.032897 -5.28757,1.800759 -0.70513,2.618668 -2.61958,3.54756 -6.03545,2.928409 -2.8481,-0.516246 -3.60619,0.217892 -3.71261,3.59537 -0.0682,2.164555 -0.19486,2.506045 -1.29252,3.486863 -0.66928,0.598014 -1.87272,1.192294 -2.674304,1.32061 -3.11464,0.498612 -3.86617,1.71676 -2.77188,4.493002 0.40609,1.030235 0.7377,2.25566 0.7369,2.723167 -0.003,1.332551 -1.40262,3.29602 -2.83938,3.981175 -2.02606,0.966161 -2.59522,3.016001 -1.29033,4.647033 0.29427,0.367819 3.56284,0.480138 13.972934,0.480138 h 13.58879 z"
       id="path314"
       inkscape:export-filename="../FD.png"
       inkscape:export-xdpi="96"
       inkscape:export-ydpi="96" /><g
       inkscape:label=""
       transform="matrix(2.958587,0,0,2.958587,93.194834,19.115063)"
       id="g9"><g
   id="g8"
   transform="matrix(0.352778,0,0,0.352778,-75.6511,-3.03473)">
    <g
   style="fill:#000000;fill-opacity:1"
   id="g3">
      <g
   id="g2"
   transform="translate(213.491,26.899)">
        <path
   style="stroke:none"
   d="M 6.671875,-6.796875 C 6.8125,-6.96875 6.8125,-7 6.8125,-7.0625 c 0,-0.078125 -0.078125,-0.203125 -0.09375,-0.25 l -4.078125,-6.265625 h 5 c 3.4375,0 4.46875,0.75 4.8125,4.03125 h 0.375 l -0.5,-4.5625 H 1.40625 c -0.4375,0 -0.453125,0.01563 -0.453125,0.453125 l 4.765625,7.359375 -4.609375,5.90625 C 0.96875,-0.203125 0.96875,-0.1875 0.96875,-0.140625 0.96875,0 1.09375,0 1.40625,0 h 10.921875 l 0.5,-4.734375 h -0.375 c -0.328125,3.34375 -1.5,4.03125 -4.859375,4.03125 h -5.6875 z m 0,0"
   id="path1" />
      </g>
    </g>
    <g
   style="fill:#000000;fill-opacity:1"
   id="g7">
      <g
   id="g4"
   transform="translate(227.285,18.368)">
        <path
   style="stroke:none"
   d="M 8.1875,-9.765625 H 0.59375 v 0.40625 H 0.875 c 1.03125,0 1.078125,0.15625 1.078125,0.6875 v 7.578125 c 0,0.53125 -0.046875,0.671875 -1.078125,0.671875 H 0.59375 V 0 c 0.34375,-0.03125 1.609375,-0.03125 2.046875,-0.03125 0.5,0 1.765625,0 2.171875,0.03125 V -0.421875 H 4.390625 c -1.25,0 -1.28125,-0.171875 -1.28125,-0.6875 v -3.5625 H 4.375 c 1.34375,0 1.484375,0.46875 1.484375,1.671875 H 6.1875 V -6.765625 H 5.859375 C 5.859375,-5.5625 5.71875,-5.09375 4.375,-5.09375 H 3.109375 v -3.6875 c 0,-0.46875 0.03125,-0.578125 0.65625,-0.578125 H 5.5625 c 2.0625,0 2.484375,0.765625 2.6875,2.796875 h 0.3125 z m 0,0"
   id="path3" />
      </g>
    </g>
  </g>
</g><path
       style="fill:#000000;stroke-width:0.384108"
       d="m 98.287544,102.97657 v -1.34437 h -13.97291 c -15.832037,0 -14.8512,0.2083 -15.135008,-3.214185 -0.160755,-1.937783 -0.113177,-2.058762 1.236908,-3.145604 2.97036,-2.391283 3.28844,-2.788379 3.27588,-4.089695 -0.006,-0.696195 -0.266,-1.601331 -0.57616,-2.01141 -1.68963,-2.233893 0.24227,-5.976278 3.08508,-5.976278 1.035834,0 1.694647,-0.291179 2.51504,-1.111576 0.98803,-0.988011 1.10512,-1.357075 1.05346,-3.320288 -0.0539,-2.049763 0.0339,-2.290809 1.21856,-3.349417 1.16135,-1.037667 1.43651,-1.116119 3.04617,-0.868432 3.93763,0.605894 5.18905,0.08455 5.64619,-2.352269 0.14164,-0.754819 0.71708,-1.692942 1.38137,-2.251906 1.60443,-1.350049 3.40078,-1.269882 5.51156,0.245959 2.12125,1.52338 3.666836,1.338125 5.362876,-0.642788 2.04788,-2.391835 5.40028,-2.435662 6.65427,-0.087 1.51859,2.844281 3.7574,3.799007 5.61459,2.394309 0.41008,-0.310165 1.45804,-0.563943 2.3288,-0.563943 2.08528,0 3.46161,1.403042 3.76734,3.840474 0.3139,2.502382 1.55908,3.468359 4.38687,3.403165 1.97265,-0.0455 2.26039,0.05741 3.24614,1.160641 1.13446,1.269674 1.3286,2.454888 0.7389,4.511006 -0.59223,2.065038 1.12706,4.369563 3.25993,4.369563 0.31702,0 1.00031,0.457359 1.51835,1.016359 1.32864,1.433621 1.30353,3.872464 -0.0565,5.488768 -1.30965,1.556428 -1.38711,3.51337 -0.18964,4.788147 0.48638,0.51772 0.76958,1.12695 0.62936,1.35385 -0.17313,0.2801 -4.20729,0.41254 -12.56599,0.41254 h -12.31104 l -4.96189,1.34437 c -2.72906,0.73941 -5.129906,1.3444 -5.335256,1.3444 -0.20529,0 -0.37338,-0.60499 -0.37338,-1.3444 z m 0,-3.841075 c 0,-0.739408 0.12967,-1.343705 0.28808,-1.342889 0.15836,5.95e-4 2.535116,0.603523 5.281496,1.339334 l 4.9934,1.33783 11.46885,0.005 11.46883,0.005 -0.28717,-1.056298 c -0.45387,-1.669284 -0.23084,-3.28015 0.59827,-4.321212 2.14988,-2.699465 1.75226,-4.231058 -1.50189,-5.785342 -2.73531,-1.30646 -3.26631,-2.345403 -2.92676,-5.726424 0.2526,-2.515353 0.22871,-2.616542 -0.8115,-3.434764 -0.8459,-0.665371 -1.37185,-0.792371 -2.49541,-0.602547 -2.54394,0.429798 -4.95026,-1.457258 -4.95026,-3.882029 0,-1.747096 -1.3002,-3.234512 -2.81268,-3.217641 -0.67124,0.0074 -1.65256,0.260634 -2.18072,0.562551 -2.17345,1.242457 -4.90416,0.321092 -6.12172,-2.065519 -1.33483,-2.616482 -4.05162,-2.922656 -5.55632,-0.626178 -0.83795,1.278863 -3.071546,2.254276 -4.413006,1.927162 -0.55097,-0.134354 -1.6472,-0.687075 -2.43607,-1.228281 -2.50705,-1.719987 -4.52455,-1.032897 -5.28757,1.800759 -0.70513,2.618668 -2.61958,3.54756 -6.03545,2.928409 -2.8481,-0.516246 -3.60619,0.217892 -3.71261,3.59537 -0.0682,2.164555 -0.19486,2.506045 -1.29252,3.486863 -0.66928,0.598014 -1.872726,1.192294 -2.67431,1.32061 -3.11464,0.498612 -3.86617,1.71676 -2.77188,4.493002 0.40609,1.030235 0.7377,2.25566 0.7369,2.723167 -0.003,1.332551 -1.40262,3.29602 -2.83938,3.981175 -2.02606,0.966161 -2.59522,3.016001 -1.29033,4.647033 0.29427,0.367824 3.56284,0.480134 13.97294,0.480134 h 13.58879 z"
       id="path314-3" /><g
       inkscape:label=""
       transform="matrix(3.1336885,0,0,3.1336885,94.528184,77.576598)"
       id="g12"><g
   id="g11"
   transform="matrix(0.352778,0,0,0.352778,-76.909,-4.33551)">
    <g
   style="fill:#000000;fill-opacity:1"
   id="g10">
      <g
   id="use2"
   transform="translate(217.244,26.899)">
        <path
   style="stroke:none"
   d="m 8.390625,-14.25 c -0.171875,-0.359375 -0.25,-0.359375 -0.421875,-0.359375 -0.25,0 -0.265625,0.04687 -0.40625,0.328125 L 0.875,-0.34375 C 0.84375,-0.3125 0.765625,-0.125 0.765625,-0.109375 0.765625,-0.015625 0.78125,0 1.15625,0 h 13.609375 c 0.375,0 0.390625,-0.015625 0.390625,-0.109375 0,-0.015625 -0.07813,-0.203125 -0.09375,-0.234375 z m -0.9375,1.21875 5.71875,11.875 H 1.71875 Z m 0,0"
   id="path9" />
      </g>
    </g>
  </g>
</g><rect
       style="fill:#ffffff;stroke:none;stroke-width:0.106656;stroke-dasharray:0.213311, 0.639932;stroke-dashoffset:0"
       id="rect14-3"
       width="2.5947878"
       height="2.9745922"
       x="77.101875"
       y="99.358658" /><rect
       style="fill:#ffffff;stroke:none;stroke-width:0.106656;stroke-dasharray:0.213311, 0.639932;stroke-dashoffset:0"
       id="rect14-3-2"
       width="2.5947878"
       height="2.9745922"
       x="71.795967"
       y="99.358658" /><rect
       style="fill:#ffffff;stroke:none;stroke-width:0.106656;stroke-dasharray:0.213311, 0.639932;stroke-dashoffset:0"
       id="rect14-3-1"
       width="2.5947878"
       height="2.9745922"
       x="82.407784"
       y="99.358658" /><rect
       style="fill:#ffffff;stroke:none;stroke-width:0.106656;stroke-dasharray:0.213311, 0.639932;stroke-dashoffset:0"
       id="rect14-3-2-8"
       width="2.5947878"
       height="2.9745922"
       x="77.101875"
       y="99.358658" /><rect
       style="fill:#ffffff;stroke:none;stroke-width:0.106656;stroke-dasharray:0.213311, 0.639932;stroke-dashoffset:0"
       id="rect14-3-9"
       width="2.5947878"
       height="2.9745922"
       x="87.713692"
       y="99.358658" /><rect
       style="fill:#ffffff;stroke:none;stroke-width:0.106656;stroke-dasharray:0.213311, 0.639932;stroke-dashoffset:0"
       id="rect14-3-2-2"
       width="2.5947878"
       height="2.9745922"
       x="82.407784"
       y="99.358658" /><rect
       style="fill:#ffffff;stroke:none;stroke-width:0.106656;stroke-dasharray:0.213311, 0.639932;stroke-dashoffset:0"
       id="rect14-3-23"
       width="2.5947878"
       height="2.9745922"
       x="93.0196"
       y="99.358658" /><rect
       style="fill:#ffffff;stroke:none;stroke-width:0.106656;stroke-dasharray:0.213311, 0.639932;stroke-dashoffset:0"
       id="rect14-3-2-7"
       width="2.5947878"
       height="2.9745922"
       x="87.713692"
       y="99.358658" /><rect
       style="fill:#ffffff;stroke:none;stroke-width:0.106656;stroke-dasharray:0.213311, 0.639932;stroke-dashoffset:0"
       id="rect14-3-92"
       width="2.5947878"
       height="2.9745922"
       x="117.40201"
       y="99.358658" /><rect
       style="fill:#ffffff;stroke:none;stroke-width:0.106656;stroke-dasharray:0.213311, 0.639932;stroke-dashoffset:0"
       id="rect14-3-2-28"
       width="2.5947878"
       height="2.9745922"
       x="112.09609"
       y="99.358658" /><rect
       style="fill:#ffffff;stroke:none;stroke-width:0.106656;stroke-dasharray:0.213311, 0.639932;stroke-dashoffset:0"
       id="rect14-3-7"
       width="2.5947878"
       height="2.9745922"
       x="122.70792"
       y="99.358658" /><rect
       style="fill:#ffffff;stroke:none;stroke-width:0.106656;stroke-dasharray:0.213311, 0.639932;stroke-dashoffset:0"
       id="rect14-3-2-3"
       width="2.5947878"
       height="2.9745922"
       x="117.40201"
       y="99.358658" /><rect
       style="fill:#ffffff;stroke:none;stroke-width:0.106656;stroke-dasharray:0.213311, 0.639932;stroke-dashoffset:0"
       id="rect14-3-12"
       width="2.5947878"
       height="2.9745922"
       x="128.01384"
       y="99.358658" /><rect
       style="fill:#ffffff;stroke:none;stroke-width:0.106656;stroke-dasharray:0.213311, 0.639932;stroke-dashoffset:0"
       id="rect14-3-2-9"
       width="2.5947878"
       height="2.9745922"
       x="122.70792"
       y="99.358658" /></g></svg>
