<?xml version="1.0" encoding="UTF-8" standalone="no"?>
<!-- Created with Inkscape (http://www.inkscape.org/) -->

<svg
   width="136.37569mm"
   height="36.51133mm"
   viewBox="0 0 136.37569 36.51133"
   version="1.1"
   id="svg1"
   xml:space="preserve"
   xmlns="http://www.w3.org/2000/svg"
   xmlns:svg="http://www.w3.org/2000/svg"><defs
     id="defs1"><filter
       style="color-interpolation-filters:sRGB"
       id="filter1-1-4-6-5-7-7"
       x="-0.52272"
       y="-0.52272"
       width="2.04544"
       height="2.04544"><feGaussianBlur
         stdDeviation="0.86119652"
         id="feGaussianBlur1-06-7-2-2-7-5" /></filter><filter
       style="color-interpolation-filters:sRGB"
       id="filter1-1-8-9-6-5-3"
       x="-0.52272"
       y="-0.52272"
       width="2.04544"
       height="2.04544"><feGaussianBlur
         stdDeviation="0.86119652"
         id="feGaussianBlur1-06-6-1-5-9-5" /></filter><filter
       style="color-interpolation-filters:sRGB"
       id="filter1-1-49-2-8-1-6"
       x="-0.52272"
       y="-0.52272"
       width="2.04544"
       height="2.04544"><feGaussianBlur
         stdDeviation="0.86119652"
         id="feGaussianBlur1-06-2-7-7-1-2" /></filter><filter
       style="color-interpolation-filters:sRGB"
       id="filter1-1-8-9-6-3-9"
       x="-0.52272"
       y="-0.52272"
       width="2.04544"
       height="2.04544"><feGaussianBlur
         stdDeviation="0.86119652"
         id="feGaussianBlur1-06-6-1-5-90-1" /></filter><filter
       style="color-interpolation-filters:sRGB"
       id="filter1-1-4-6-5-7-9"
       x="-0.52272"
       y="-0.52272"
       width="2.04544"
       height="2.04544"><feGaussianBlur
         stdDeviation="0.86119652"
         id="feGaussianBlur1-06-7-2-2-7-2" /></filter><filter
       style="color-interpolation-filters:sRGB"
       id="filter1-1-8-9-6-5-0"
       x="-0.52272"
       y="-0.52272"
       width="2.04544"
       height="2.04544"><feGaussianBlur
         stdDeviation="0.86119652"
         id="feGaussianBlur1-06-6-1-5-9-6" /></filter><filter
       style="color-interpolation-filters:sRGB"
       id="filter1-1-49-2-8-1-8"
       x="-0.52272"
       y="-0.52272"
       width="2.04544"
       height="2.04544"><feGaussianBlur
         stdDeviation="0.86119652"
         id="feGaussianBlur1-06-2-7-7-1-9" /></filter><filter
       style="color-interpolation-filters:sRGB"
       id="filter1-1-8-9-6-3-2"
       x="-0.52272"
       y="-0.52272"
       width="2.04544"
       height="2.04544"><feGaussianBlur
         stdDeviation="0.86119652"
         id="feGaussianBlur1-06-6-1-5-90-6" /></filter><filter
       style="color-interpolation-filters:sRGB"
       id="filter1-1-8-9-6-3-9-2"
       x="-0.52272"
       y="-0.52272"
       width="2.04544"
       height="2.04544"><feGaussianBlur
         stdDeviation="0.86119652"
         id="feGaussianBlur1-06-6-1-5-90-1-9" /></filter><filter
       style="color-interpolation-filters:sRGB"
       id="filter1-1-8-9-6-3-9-2-4"
       x="-0.52272"
       y="-0.52272"
       width="2.04544"
       height="2.04544"><feGaussianBlur
         stdDeviation="0.86119652"
         id="feGaussianBlur1-06-6-1-5-90-1-9-8" /></filter><filter
       style="color-interpolation-filters:sRGB"
       id="filter1-1-8-9-6-3-9-2-1"
       x="-0.52272"
       y="-0.52272"
       width="2.04544"
       height="2.04544"><feGaussianBlur
         stdDeviation="0.86119652"
         id="feGaussianBlur1-06-6-1-5-90-1-9-87" /></filter><filter
       style="color-interpolation-filters:sRGB"
       id="filter1-1-8-9-6-3-9-2-4-9"
       x="-0.52272"
       y="-0.52272"
       width="2.04544"
       height="2.04544"><feGaussianBlur
         stdDeviation="0.86119652"
         id="feGaussianBlur1-06-6-1-5-90-1-9-8-2" /></filter><filter
       style="color-interpolation-filters:sRGB"
       id="filter1-1-49-2-8-1-6-5"
       x="-0.52272"
       y="-0.52272"
       width="2.04544"
       height="2.04544"><feGaussianBlur
         stdDeviation="0.86119652"
         id="feGaussianBlur1-06-2-7-7-1-2-6" /></filter><filter
       style="color-interpolation-filters:sRGB"
       id="filter1-1-8-9-6-5-3-9"
       x="-0.52272"
       y="-0.52272"
       width="2.04544"
       height="2.04544"><feGaussianBlur
         stdDeviation="0.86119652"
         id="feGaussianBlur1-06-6-1-5-9-5-3" /></filter><filter
       style="color-interpolation-filters:sRGB"
       id="filter1-1-8-9-6-3-9-2-4-1"
       x="-0.52272"
       y="-0.52272"
       width="2.04544"
       height="2.04544"><feGaussianBlur
         stdDeviation="0.86119652"
         id="feGaussianBlur1-06-6-1-5-90-1-9-8-7" /></filter><filter
       style="color-interpolation-filters:sRGB"
       id="filter1-1-8-9-6-3-9-2-4-1-0"
       x="-0.52272"
       y="-0.52272"
       width="2.04544"
       height="2.04544"><feGaussianBlur
         stdDeviation="0.86119652"
         id="feGaussianBlur1-06-6-1-5-90-1-9-8-7-6" /></filter></defs><g
     id="g12"
     transform="translate(425.19657,-52.474156)"><ellipse
       style="fill:#e4e6ea;fill-opacity:1;stroke:#6f7c91;stroke-width:0.666604;stroke-dasharray:none;stroke-opacity:1"
       id="path28-93-0-3"
       cx="410.55231"
       cy="-74.297623"
       transform="scale(-1)"
       rx="14.310941"
       ry="14.354416" /><circle
       style="fill:#e4e6ea;fill-opacity:1;stroke:#6f7c91;stroke-width:0.665607;stroke-dasharray:none;stroke-opacity:1"
       id="path28-93-0"
       cx="-303.4649"
       cy="74.325363"
       r="14.311227" /><circle
       style="fill:#e4e6ea;fill-opacity:1;stroke:#6f7c91;stroke-width:0.641624;stroke-dasharray:none;stroke-opacity:1"
       id="path28-93-0-5"
       cx="-304.07788"
       cy="74.334328"
       r="5.6869678" /><rect
       style="fill:#e4e6ea;fill-opacity:1;stroke:#6f7c91;stroke-width:0.663;stroke-dasharray:none;stroke-opacity:1"
       id="rect2-0-2-5-8-6-7-8-2-2-0"
       width="106.75936"
       height="8.6619959"
       x="-410.55576"
       y="60.012505" /><rect
       style="fill:#ffffff;fill-opacity:1;stroke:none;stroke-width:0.330374;stroke-dasharray:none;stroke-opacity:1"
       id="rect2-0-2-5-8-6-7-7-6-8-8-9-0"
       width="19.10261"
       height="10.697239"
       x="347.51401"
       y="-69.846619"
       transform="scale(-1)" /><rect
       style="fill:#e4e6ea;fill-opacity:1;stroke:#6f7c91;stroke-width:0.663;stroke-dasharray:none;stroke-opacity:1"
       id="rect2-0-2-5-8-6-7-8-2-2-9"
       width="106.75936"
       height="8.6619959"
       x="-410.55576"
       y="79.991989" /><circle
       style="fill:#ffffff;fill-opacity:1;stroke:#ffffff;stroke-width:0.575667;stroke-dasharray:none;stroke-opacity:1"
       id="path28-93-0-5-9"
       cx="-304.10443"
       cy="74.363884"
       r="5.102366" /><rect
       style="fill:#ffffff;fill-opacity:1;stroke:none;stroke-width:0.346124;stroke-dasharray:none;stroke-opacity:1"
       id="rect2-0-2-5-8-6-7-7-6-8-8"
       width="21.03071"
       height="10.665053"
       x="-324.49561"
       y="69.013962" /><circle
       style="fill:#ffffff;fill-opacity:1;stroke:#6f7c91;stroke-width:0.579603;stroke-dasharray:none;stroke-opacity:1"
       id="path27-4-18-1-3-4-7-0-0-6-5-9"
       cx="-385.6626"
       cy="64.299835"
       r="3.3533595" /><circle
       style="fill:#ffffff;fill-opacity:1;stroke:#6f7c91;stroke-width:0.579603;stroke-dasharray:none;stroke-opacity:1"
       id="path27-4-18-1-3-9-18-6-4-5-1-4-3"
       cx="-366.61661"
       cy="64.299835"
       r="3.3533595" /><circle
       style="fill:#ffffff;fill-opacity:1;stroke:#4b6997;stroke-width:0.579603;stroke-dasharray:none;stroke-opacity:1"
       id="path27-4-18-1-3-9-9-75-2-8-1-0-7-6"
       cx="-347.51398"
       cy="64.299835"
       r="3.3533595" /><circle
       style="fill:#ffffff;fill-opacity:1;stroke:#6f7c91;stroke-width:0.579603;stroke-dasharray:none;stroke-opacity:1"
       id="path27-4-18-1-3-9-18-6-4-5-1-6-4-0"
       cx="-347.51398"
       cy="64.299835"
       r="3.3533595" /><circle
       style="fill:#ffffff;fill-opacity:1;stroke:#4b6997;stroke-width:0.579603;stroke-dasharray:none;stroke-opacity:1"
       id="path27-4-18-1-3-9-9-75-2-8-1-0-3-4-6"
       cx="-328.41135"
       cy="64.299835"
       r="3.3533595" /><circle
       style="fill:#ffffff;fill-opacity:1;stroke:#6f7c91;stroke-width:0.579603;stroke-dasharray:none;stroke-opacity:1"
       id="path27-4-18-1-3-9-18-6-4-5-1-6-5-3-2"
       cx="-328.41135"
       cy="64.299835"
       r="3.3533595" /><g
       id="g41-9-6-3-4-0-1-3-1-6-8"
       transform="matrix(0.40340337,0,0,0.40340337,-486.1747,78.985549)"
       style="fill:#6f7c91;fill-opacity:1;stroke:none"><g
         style="fill:#6f7c91;fill-opacity:1;stroke:none"
         id="g40-8-0-2-5-9-7-9-9-8-7"
         transform="translate(0,15.445875)"><g
           id="g39-9-4-1-0-6-8-1-6-8-9"
           transform="translate(226.237,29.997999)"
           style="fill:#6f7c91;fill-opacity:1;stroke:none"><g
             id="g421-5-9-2-4-2"
             style="fill:#6f7c91;fill-opacity:1;stroke:none"><g
               style="fill:#6f7c91;fill-opacity:1;stroke:none"
               id="g38-2-6-6-7-3-7-6-5-3-0"
               transform="translate(-226.237,-29.998002)"><g
                 id="g37-0-4-8-8-9-4-9-4-1-2"
                 transform="translate(213.369,26.899)"
                 style="fill:#6f7c91;fill-opacity:1;stroke:none"><path
                   style="fill:#6f7c91;fill-opacity:1;stroke:none;stroke-opacity:1"
                   d="m 9.5625,-31.400447 c 0,-2.015625 -1.140625,-3.890625 -3.328125,-3.890625 -2.703125,0 -5.40625,2.953125 -5.40625,5.890625 0,1.796875 1.109375,3.421875 3.21875,3.421875 1.28125,0 2.8125,-0.5 4.28125,-1.734375 0.28125,1.15625 0.921875,1.734375 1.8125,1.734375 1.109375,0 1.671875,-1.15625 1.671875,-1.421875 0,-0.1875 -0.140625,-0.1875 -0.203125,-0.1875 -0.171875,0 -0.1875,0.0625 -0.25,0.234375 -0.1875,0.515625 -0.65625,0.96875 -1.15625,0.96875 -0.640625,0 -0.640625,-1.328125 -0.640625,-2.578125 2.109375,-2.53125 2.609375,-5.125 2.609375,-5.15625 0,-0.1875 -0.171875,-0.1875 -0.234375,-0.1875 -0.1875,0 -0.203125,0.0625 -0.28125,0.4375 -0.28125,0.90625 -0.8125,2.515625 -2.09375,4.21875 z m -1.296875,3.1875 c -1.828125,1.640625 -3.453125,1.828125 -4.171875,1.828125 -1.46875,0 -1.890625,-1.3125 -1.890625,-2.28125 0,-0.875 0.46875,-2.984375 1.109375,-4.125 0.84375,-1.453125 2,-2.09375 2.921875,-2.09375 2,0 2,2.625 2,4.359375 0,0.515625 -0.015625,1.0625 -0.015625,1.578125 0,0.40625 0.015625,0.515625 0.046875,0.734375 z m 0,0"
                   id="path36-6-0-0-4-1-18-3-4-4-3" /></g></g><path
               style="fill:#6f7c91;fill-opacity:1;stroke:none;stroke-opacity:1"
               d="m 6.046875,-31.056697 c 1.421875,-0.328125 2.53125,-1.234375 2.53125,-2.34375 0,-1.390625 -1.625,-2.578125 -3.6875,-2.578125 h -4.28125 v 0.421875 h 0.28125 c 1.03125,0 1.078125,0.140625 1.078125,0.671875 v 7.609375 c 0,0.53125 -0.046875,0.671875 -1.078125,0.671875 h -0.28125 v 0.421875 c 0.328125,-0.03125 1.5,-0.03125 1.921875,-0.03125 0.40625,0 1.59375,0 1.921875,0.03125 v -0.421875 h -0.28125 c -1.03125,0 -1.078125,-0.140625 -1.078125,-0.671875 v -3.671875 h 1.671875 c 0.5625,0 1.09375,0.15625 1.46875,0.5625 0.5,0.546875 0.5,0.84375 0.5,1.84375 0,1.125 0,1.5 0.625,2.109375 0.21875,0.21875 0.8125,0.546875 1.625,0.546875 1.109375,0 1.296875,-1.25 1.296875,-1.546875 0,-0.07813 0,-0.21875 -0.15625,-0.21875 -0.140625,0 -0.140625,0.09375 -0.15625,0.234375 -0.078125,0.859375 -0.484375,1.25 -0.953125,1.25 -0.65625,0 -0.796875,-0.671875 -0.90625,-1.4375 C 8.09375,-27.697322 8,-28.322322 7.953125,-28.681697 7.859375,-29.400447 7.796875,-29.853572 7.375,-30.291072 7.21875,-30.462947 6.84375,-30.837947 6.046875,-31.056697 Z m -1.34375,-0.171875 H 3.09375 v -3.765625 c 0,-0.328125 0,-0.5 0.3125,-0.546875 0.125,-0.01563 0.546875,-0.01563 0.84375,-0.01563 1.15625,0 3,0 3,2.15625 0,1.25 -0.6875,2.171875 -2.546875,2.171875 z m 0,0"
               id="path38-2-6-0-3-9-5-3-9-9-7" /></g></g></g></g><g
       id="g255-1-3-3-0-6-3-5-5"
       transform="matrix(0.35770386,0,0,0.35770386,-421.18355,77.700905)"
       style="fill:#ff0000;fill-opacity:1"><g
         style="fill:#ff0000;fill-opacity:1"
         id="g254-2-6-1-6-7-5-0-9"
         transform="translate(7.7789281,-1.7591874)"><g
           id="g253-0-6-4-3-7-6-4-2"
           transform="translate(226.577,29.997999)"
           style="fill:#ff0000;fill-opacity:1"><g
             id="g422-6-2-4-1-8-2"
             style="fill:#ff0000"><g
               style="fill:#ff0000;fill-opacity:1"
               id="g252-0-8-9-0-0-4-7-8"
               transform="translate(-226.577,-29.997998)"><g
                 id="g251-6-0-4-6-6-0-1-9"
                 transform="translate(214.782,26.899)"
                 style="fill:#ff0000;fill-opacity:1"><path
                   style="fill:#ff0000;fill-opacity:1;stroke:none"
                   d="m 12.78125,-11.8125 c 0.703125,-1.125 1.34375,-1.609375 2.40625,-1.703125 0.203125,-0.01563 0.359375,-0.01563 0.359375,-0.390625 0,-0.07813 -0.03125,-0.203125 -0.21875,-0.203125 -0.375,0 -1.265625,0.04687 -1.640625,0.04687 -0.59375,0 -1.21875,-0.04687 -1.796875,-0.04687 -0.15625,0 -0.359375,0 -0.359375,0.390625 0,0.1875 0.1875,0.203125 0.265625,0.203125 0.765625,0.0625 0.84375,0.4375 0.84375,0.6875 0,0.3125 -0.28125,0.78125 -0.3125,0.8125 L 5.84375,-1.734375 4.40625,-12.875 c 0,-0.59375 1.0625,-0.640625 1.296875,-0.640625 0.3125,0 0.5,0 0.5,-0.390625 0,-0.203125 -0.234375,-0.203125 -0.296875,-0.203125 -0.34375,0 -0.765625,0.04687 -1.109375,0.04687 h -1.15625 c -1.515625,0 -2.125,-0.04687 -2.15625,-0.04687 -0.125,0 -0.375,0 -0.375,0.375 0,0.21875 0.15625,0.21875 0.484375,0.21875 1.046875,0 1.109375,0.1875 1.171875,0.703125 l 1.65625,12.75 c 0.0625,0.4375 0.0625,0.5 0.34375,0.5 0.25,0 0.359375,-0.0625 0.5625,-0.390625 z m 0,0"
                   id="path251-3-5-2-1-4-31-7-7" /></g></g><path
               style="fill:#ff0000;fill-opacity:1;stroke:none"
               d="M 7.671875,-9.296875 C 7.78125,-9.484375 7.78125,-9.5 7.78125,-9.59375 c 0,-0.203125 -0.0625,-0.203125 -0.34375,-0.203125 H 1.140625 L 0.96875,-6.59375 H 1.296875 C 1.390625,-8.21875 1.84375,-9.375 4.15625,-9.375 H 6.453125 L 0.78125,-0.34375 C 0.78125,-0.015625 0.78125,0 1.125,0 h 6.5 l 0.234375,-3.78125 h -0.3125 C 7.4375,-1.765625 7.140625,-0.4375 4.53125,-0.4375 H 2.109375 Z m 0,0"
               id="path252-6-4-2-5-7-2-2-3" /></g></g></g></g><rect
       style="fill:#e2e5e9;fill-opacity:1;stroke:none;stroke-width:0.038839;stroke-dasharray:none"
       id="rect2-0-2-5-6-9-5-3"
       width="1.2698797"
       height="7.9976525"
       x="-304.2561"
       y="60.344711" /><circle
       style="mix-blend-mode:normal;fill:#0066ff;fill-opacity:1;stroke:none;stroke-width:0.341716;stroke-dasharray:none;stroke-opacity:1;filter:url(#filter1-1-4-6-5-7-7)"
       id="path27-4-18-1-3-0-9-0-3-2-7-3-6"
       cx="103.21873"
       cy="165.13123"
       r="1.9770352"
       transform="matrix(0.96954473,0,0,0.96954473,-447.58917,-95.802282)" /><circle
       style="mix-blend-mode:normal;fill:#0066ff;fill-opacity:1;stroke:none;stroke-width:0.341716;stroke-dasharray:none;stroke-opacity:1;filter:url(#filter1-1-8-9-6-5-3)"
       id="path27-4-18-1-3-0-9-0-4-0-0-6-1"
       cx="103.21873"
       cy="165.13123"
       r="1.9770352"
       transform="matrix(0.96954473,0,0,0.96954473,-466.69178,-95.802282)" /><circle
       style="mix-blend-mode:normal;fill:#0066ff;fill-opacity:1;stroke:none;stroke-width:0.341716;stroke-dasharray:none;stroke-opacity:1;filter:url(#filter1-1-49-2-8-1-6)"
       id="path27-4-18-1-3-0-9-0-8-2-8-5-0"
       cx="103.21873"
       cy="165.13123"
       r="1.9770352"
       transform="matrix(0.96954473,0,0,0.96954473,-485.73776,-95.802282)" /><circle
       style="fill:#ffffff;fill-opacity:1;stroke:#6f7c91;stroke-width:0.579603;stroke-dasharray:none;stroke-opacity:1"
       id="path27-4-18-1-3-4-7-0-0-6-5-9-5"
       cx="-404.70859"
       cy="64.299843"
       r="3.3533595" /><circle
       style="fill:#ffffff;fill-opacity:1;stroke:#6f7c91;stroke-width:0.579603;stroke-dasharray:none;stroke-opacity:1"
       id="path27-4-18-1-3-9-18-6-4-5-1-4-3-2"
       cx="-385.6626"
       cy="64.299843"
       r="3.3533595" /><circle
       style="mix-blend-mode:normal;fill:#0066ff;fill-opacity:1;stroke:none;stroke-width:0.341716;stroke-dasharray:none;stroke-opacity:1;filter:url(#filter1-1-8-9-6-5-3-9)"
       id="path27-4-18-1-3-0-9-0-4-0-0-6-1-5"
       cx="103.21873"
       cy="165.13123"
       r="1.9770352"
       transform="matrix(0.96954473,0,0,0.96954473,-485.73776,-95.802276)" /><circle
       style="mix-blend-mode:normal;fill:#0066ff;fill-opacity:1;stroke:none;stroke-width:0.341716;stroke-dasharray:none;stroke-opacity:1;filter:url(#filter1-1-49-2-8-1-6-5)"
       id="path27-4-18-1-3-0-9-0-8-2-8-5-0-4"
       cx="103.21873"
       cy="165.13123"
       r="1.9770352"
       transform="matrix(0.96954473,0,0,0.96954473,-504.78374,-95.802276)" /><g
       transform="matrix(1.16287,0,0,1.16287,-379.12428,81.432043)"
       id="g189-9-6"
       style="fill:#6600ff;fill-opacity:1"><g
   id="g188-8-3"
   transform="matrix(0.352778,0,0,0.352778,-67.7997,-4.5119)"
   style="fill:#6600ff;fill-opacity:1">
    <g
   style="fill:#6600ff;fill-opacity:1"
   id="g179-4-2">
      <g
   id="g178-8-0"
   transform="translate(190.782,26.899)"
   style="fill:#6600ff;fill-opacity:1">
        <path
   style="fill:#0066ff;fill-opacity:1;stroke:none"
   d="m 10.453125,-4.75 c -0.71875,2.890625 -3.125,4.578125 -5.0625,4.578125 -1.484375,0 -2.5,-0.984375 -2.5,-2.703125 0,-0.078125 0,-0.703125 0.234375,-1.609375 l 2.015625,-8.109375 c 0.1875,-0.703125 0.234375,-0.921875 1.703125,-0.921875 0.359375,0 0.578125,0 0.578125,-0.359375 0,-0.234375 -0.1875,-0.234375 -0.3125,-0.234375 -0.375,0 -0.8125,0.04687 -1.203125,0.04687 h -2.4375 c -0.390625,0 -0.828125,-0.04687 -1.21875,-0.04687 -0.140625,0 -0.390625,0 -0.390625,0.390625 0,0.203125 0.140625,0.203125 0.53125,0.203125 1.25,0 1.25,0.171875 1.25,0.40625 0,0.109375 -0.15625,0.71875 -0.25,1.0625 L 1.59375,-4.8125 c -0.0625,0.234375 -0.1875,0.78125 -0.1875,1.34375 0,2.265625 1.625,3.90625 3.875,3.90625 2.09375,0 4.40625,-1.65625 5.453125,-4.28125 0.15625,-0.34375 0.34375,-1.078125 0.46875,-1.625 0.203125,-0.75 0.640625,-2.5625 0.78125,-3.109375 l 0.78125,-3.09375 c 0.265625,-1.078125 0.4375,-1.75 2.25,-1.84375 0.171875,-0.01563 0.25,-0.171875 0.25,-0.359375 0,-0.234375 -0.1875,-0.234375 -0.265625,-0.234375 -0.296875,0 -0.671875,0.04687 -0.953125,0.04687 h -0.96875 c -1.28125,0 -1.9375,-0.04687 -1.96875,-0.04687 -0.125,0 -0.375,0 -0.375,0.390625 0,0.203125 0.171875,0.203125 0.3125,0.203125 1.25,0.04687 1.328125,0.515625 1.328125,0.890625 0,0.1875 0,0.25 -0.07813,0.546875 z m 0,0"
   id="path177-1-6" />
      </g>
    </g>
    <g
   style="fill:#6600ff;fill-opacity:1"
   id="g181-0-1">
      <g
   id="g180-3-5"
   transform="translate(204.52299,29.997999)"
   style="fill:#6600ff;fill-opacity:1">
        
      </g>
    </g>
    <g
   style="fill:#6600ff;fill-opacity:1"
   id="g183-0-5">
      <g
   id="g182-4-4"
   transform="translate(217.784,26.899)"
   style="fill:#6600ff;fill-opacity:1">
        
      </g>
    </g>
    <g
   style="fill:#6600ff;fill-opacity:1"
   id="g185-4-7">
      <g
   id="g184-4-6"
   transform="translate(238.397,26.899)"
   style="fill:#6600ff;fill-opacity:1">
        
      </g>
    </g>
    <g
   style="fill:#6600ff;fill-opacity:1"
   id="g187-4-5">
      <g
   id="g186-7-6"
   transform="translate(252.138,29.997999)"
   style="fill:#6600ff;fill-opacity:1">
        
      </g>
    </g>
  </g>
</g><circle
       style="mix-blend-mode:normal;fill:#0066ff;fill-opacity:1;stroke:none;stroke-width:0.341716;stroke-dasharray:none;stroke-opacity:1;filter:url(#filter1-1-8-9-6-3-9)"
       id="path27-4-18-1-3-0-9-0-4-0-0-63-4"
       cx="103.21873"
       cy="165.13123"
       r="1.9770352"
       transform="matrix(0.96954473,0,0,0.96954473,-428.48649,-95.802282)" /><circle
       style="fill:#ffffff;fill-opacity:1;stroke:#6f7c91;stroke-width:0.579603;stroke-dasharray:none;stroke-opacity:1"
       id="path27-4-18-1-3-9-18-6-4-5-1-6-5-3-2-2"
       cx="-309.30862"
       cy="64.299835"
       r="3.3533595" /><circle
       style="mix-blend-mode:normal;fill:#0066ff;fill-opacity:1;stroke:none;stroke-width:0.341716;stroke-dasharray:none;stroke-opacity:1;filter:url(#filter1-1-8-9-6-3-9-2)"
       id="path27-4-18-1-3-0-9-0-4-0-0-63-4-6"
       cx="103.21873"
       cy="165.13123"
       r="1.9770352"
       transform="matrix(0.96954473,0,0,0.96954473,-409.38381,-95.802282)" /><circle
       style="fill:#ffffff;fill-opacity:1;stroke:#6f7c91;stroke-width:0.579603;stroke-dasharray:none;stroke-opacity:1"
       id="path27-4-18-1-3-9-18-6-4-5-1-6-5-3-2-2-2"
       cx="-309.30865"
       cy="84.27932"
       r="3.3533595" /><circle
       style="mix-blend-mode:normal;fill:#0066ff;fill-opacity:1;stroke:none;stroke-width:0.341716;stroke-dasharray:none;stroke-opacity:1;filter:url(#filter1-1-8-9-6-3-9-2-4)"
       id="path27-4-18-1-3-0-9-0-4-0-0-63-4-6-9"
       cx="103.21873"
       cy="165.13123"
       r="1.9770352"
       transform="matrix(0.96954473,0,0,0.96954473,-409.38385,-75.82281)" /><circle
       style="fill:#ffffff;fill-opacity:1;stroke:#6f7c91;stroke-width:0.579603;stroke-dasharray:none;stroke-opacity:1"
       id="path27-4-18-1-3-9-18-6-4-5-1-6-5-3-2-2-2-2"
       cx="-293.8093"
       cy="74.325363"
       r="3.3533595" /><circle
       style="mix-blend-mode:normal;fill:#0066ff;fill-opacity:1;stroke:none;stroke-width:0.341716;stroke-dasharray:none;stroke-opacity:1;filter:url(#filter1-1-8-9-6-3-9-2-4-1)"
       id="path27-4-18-1-3-0-9-0-4-0-0-63-4-6-9-2"
       cx="103.21873"
       cy="165.13123"
       r="1.9770352"
       transform="matrix(0.96954473,0,0,0.96954473,-393.8845,-85.776758)" /><circle
       style="fill:#ffffff;fill-opacity:1;stroke:#6f7c91;stroke-width:0.579603;stroke-dasharray:none;stroke-opacity:1"
       id="path27-4-18-1-3-9-18-6-4-5-1-6-5-3-2-2-2-2-9"
       cx="-420.20392"
       cy="74.297623"
       r="3.3533595" /><circle
       style="mix-blend-mode:normal;fill:#0066ff;fill-opacity:1;stroke:none;stroke-width:0.341716;stroke-dasharray:none;stroke-opacity:1;filter:url(#filter1-1-8-9-6-3-9-2-4-1-0)"
       id="path27-4-18-1-3-0-9-0-4-0-0-63-4-6-9-2-4"
       cx="103.21873"
       cy="165.13123"
       r="1.9770352"
       transform="matrix(0.96954473,0,0,0.96954473,-520.27911,-85.804496)" /><rect
       style="fill:#e2e5e9;fill-opacity:1;stroke:none;stroke-width:0.0306569;stroke-dasharray:none"
       id="rect2-0-2-5-6-9-5-7-3"
       width="0.79119587"
       height="7.9976525"
       x="-410.88727"
       y="60.341614" /><circle
       style="fill:#ffffff;fill-opacity:1;stroke:#6f7c91;stroke-width:0.579603;stroke-dasharray:none;stroke-opacity:1"
       id="path27-4-18-1-3-4-7-0-0-6-5-5"
       cx="-385.6626"
       cy="84.27932"
       r="3.3533595" /><circle
       style="fill:#ffffff;fill-opacity:1;stroke:#6f7c91;stroke-width:0.579603;stroke-dasharray:none;stroke-opacity:1"
       id="path27-4-18-1-3-9-18-6-4-5-1-4-0"
       cx="-366.61661"
       cy="84.27932"
       r="3.3533595" /><circle
       style="fill:#ffffff;fill-opacity:1;stroke:#4b6997;stroke-width:0.579603;stroke-dasharray:none;stroke-opacity:1"
       id="path27-4-18-1-3-9-9-75-2-8-1-0-7-4"
       cx="-347.51398"
       cy="84.27932"
       r="3.3533595" /><circle
       style="fill:#ffffff;fill-opacity:1;stroke:#6f7c91;stroke-width:0.579603;stroke-dasharray:none;stroke-opacity:1"
       id="path27-4-18-1-3-9-18-6-4-5-1-6-4-8"
       cx="-347.51398"
       cy="84.27932"
       r="3.3533595" /><circle
       style="fill:#ffffff;fill-opacity:1;stroke:#4b6997;stroke-width:0.579603;stroke-dasharray:none;stroke-opacity:1"
       id="path27-4-18-1-3-9-9-75-2-8-1-0-3-4-7"
       cx="-328.41135"
       cy="84.27932"
       r="3.3533595" /><circle
       style="fill:#ffffff;fill-opacity:1;stroke:#6f7c91;stroke-width:0.579603;stroke-dasharray:none;stroke-opacity:1"
       id="path27-4-18-1-3-9-18-6-4-5-1-6-5-3-1"
       cx="-328.41135"
       cy="84.27932"
       r="3.3533595" /><path
       style="fill:#6f7c91;fill-opacity:1;stroke:none;stroke-width:0.114316;stroke-opacity:1"
       d="m -338.66095,61.406523 c -0.69927,0.166458 -1.62911,0.56867 -2.30091,0.995045 -0.32972,0.209263 -0.88411,0.624582 -1.17941,0.883546 -0.25997,0.228 -0.59263,0.549897 -0.56541,0.547148 0.01,-9.54e-4 0.10376,-0.0704 0.20865,-0.154359 0.2422,-0.193718 0.83,-0.582878 1.14765,-0.759784 1.90403,-1.060491 3.70779,-1.282093 5.3214,-0.653733 0.27418,0.106878 0.83864,0.39301 0.96436,0.489053 0.0149,0.011 -0.0632,0.151059 -0.17294,0.310862 -0.15669,0.227852 -0.18822,0.291887 -0.14659,0.297258 0.12304,0.0165 2.29111,0.184828 2.29836,0.179108 0.009,-0.0073 -0.99398,-2.108662 -1.01238,-2.123677 -0.006,-0.0036 -0.0894,0.108895 -0.1861,0.251979 l -0.17594,0.260338 -0.23985,-0.110911 c -0.81934,-0.378783 -1.61337,-0.565846 -2.47255,-0.582529 -0.35906,-0.0073 -1.09872,0.07791 -1.48836,0.170675 z"
       id="path365-7-2-1-8-0-4-7-7-7" /><path
       style="fill:#6f7c91;fill-opacity:1;stroke:none;stroke-width:0.383066;stroke-opacity:1"
       d="m -337.85283,64.175352 h 0.72424 c 0.14963,0 0.23342,0 0.23342,-0.14347 0,-0.08969 -0.0479,-0.08969 -0.20949,-0.08969 h -0.6943 l 0.29328,-1.155164 c 0.0299,-0.107538 0.0299,-0.125907 0.0299,-0.179657 0,-0.125907 -0.10174,-0.197494 -0.20349,-0.197494 -0.0659,0 -0.2454,0.02431 -0.31124,0.275465 l -0.30526,1.256911 h -0.74818 c -0.15564,0 -0.22746,0 -0.22746,0.149665 0,0.08376 0.0539,0.08376 0.2035,0.08376 h 0.70627 l -0.52073,2.088927 c -0.0658,0.275195 -0.0898,0.35314 -0.0898,0.45486 0,0.371131 0.26337,0.712302 0.70629,0.712302 0.80204,0 1.227,-1.15522 1.227,-1.209066 0,-0.04781 -0.0299,-0.07187 -0.0778,-0.07187 -0.0181,0 -0.0479,0 -0.0659,0.03 -0.006,0.01082 -0.0181,0.01613 -0.0718,0.14345 -0.16759,0.395043 -0.52671,0.951701 -0.98759,0.951701 -0.23942,0 -0.25139,-0.197494 -0.25139,-0.371105 0,-0.01082 0,-0.161564 0.0238,-0.257472 z m 0,0"
       id="path250-6-0-8-6-2-8-2-7" /><g
       transform="matrix(1.3099248,0,0,1.3099248,-321.39803,81.14921)"
       id="g177-7-7-1"
       style="fill:#008033;fill-opacity:1"><g
   id="surface2-7-2-5"
   transform="matrix(0.352778,0,0,0.352778,-68.0608,-6.27578)"
   style="fill:#008033;fill-opacity:1">
    <g
   style="fill:#008033;fill-opacity:1"
   id="g168-9-2-9">
      <g
   id="g167-8-6-7"
   transform="translate(192.35001,26.899)"
   style="fill:#008033;fill-opacity:1">
        <path
   style="fill:#008033;fill-opacity:1;stroke:none"
   d="m 2.96875,-0.453125 c 0.515625,0.46875 1.28125,0.65625 1.984375,0.65625 1.328125,0 2.234375,-0.890625 2.703125,-1.53125 0.21875,1.09375 1.078125,1.53125 1.796875,1.53125 0.625,0 1.125,-0.375 1.5,-1.109375 0.328125,-0.703125 0.609375,-1.96875 0.609375,-2.046875 0,-0.109375 -0.07813,-0.1875 -0.203125,-0.1875 -0.1875,0 -0.203125,0.109375 -0.28125,0.40625 -0.3125,1.21875 -0.703125,2.53125 -1.5625,2.53125 C 8.921875,-0.203125 8.875,-0.75 8.875,-1.15625 8.875,-1.625 9.0625,-2.375 9.21875,-3 L 9.796875,-5.21875 C 9.875,-5.625 10.09375,-6.546875 10.203125,-6.921875 c 0.125,-0.5 0.359375,-1.375 0.359375,-1.46875 0,-0.3125 -0.25,-0.515625 -0.5625,-0.515625 -0.1875,0 -0.625,0.09375 -0.78125,0.703125 l -1.453125,5.75 C 7.65625,-2.046875 7.65625,-2 7.390625,-1.671875 c -0.25,0.34375 -1.046875,1.46875 -2.34375,1.46875 -1.15625,0 -1.53125,-0.84375 -1.53125,-1.828125 0,-0.59375 0.1875,-1.3125 0.265625,-1.671875 l 0.921875,-3.71875 C 4.8125,-7.8125 4.984375,-8.46875 4.984375,-8.59375 c 0,-0.328125 -0.28125,-0.515625 -0.546875,-0.515625 -0.1875,0 -0.640625,0.0625 -0.796875,0.71875 l -3,11.96875 c -0.015625,0.09375 -0.0625,0.21875 -0.0625,0.34375 0,0.3125 0.25,0.515625 0.5625,0.515625 0.59375,0 0.71875,-0.46875 0.859375,-1.046875 z m 0,0"
   id="path166-1-1-7" />
      </g>
    </g>
    <g
   style="fill:#008033;fill-opacity:1"
   id="g170-0-0-6">
      <g
   id="g169-7-6-7"
   transform="translate(204.52299,29.997999)"
   style="fill:#008033;fill-opacity:1">
        
      </g>
    </g>
    <g
   style="fill:#008033;fill-opacity:1"
   id="g172-6-1-3">
      <g
   id="g171-0-5-6"
   transform="translate(217.784,26.899)"
   style="fill:#008033;fill-opacity:1">
        
      </g>
    </g>
    <g
   style="fill:#008033;fill-opacity:1"
   id="g174-10-9-5">
      <g
   id="g173-2-4-6"
   transform="translate(238.397,26.899)"
   style="fill:#008033;fill-opacity:1">
        
      </g>
    </g>
    <g
   style="fill:#008033;fill-opacity:1"
   id="g176-5-9-3">
      <g
   id="g175-1-0-9"
   transform="translate(250.57001,29.997999)"
   style="fill:#008033;fill-opacity:1">
        
      </g>
    </g>
  </g>
</g><rect
       style="fill:#e2e5e9;fill-opacity:1;stroke:none;stroke-width:0.0339026;stroke-dasharray:none"
       id="rect2-0-2-5-6-9-5-4"
       width="0.96759635"
       height="7.9976525"
       x="-304.2561"
       y="80.324196" /><circle
       style="mix-blend-mode:normal;fill:#0066ff;fill-opacity:1;stroke:none;stroke-width:0.341716;stroke-dasharray:none;stroke-opacity:1;filter:url(#filter1-1-4-6-5-7-9)"
       id="path27-4-18-1-3-0-9-0-3-2-7-3-8"
       cx="103.21873"
       cy="165.13123"
       r="1.9770352"
       transform="matrix(0.96954473,0,0,0.96954473,-447.58918,-75.822798)" /><circle
       style="mix-blend-mode:normal;fill:#0066ff;fill-opacity:1;stroke:none;stroke-width:0.341716;stroke-dasharray:none;stroke-opacity:1;filter:url(#filter1-1-8-9-6-5-0)"
       id="path27-4-18-1-3-0-9-0-4-0-0-6-12"
       cx="103.21873"
       cy="165.13123"
       r="1.9770352"
       transform="matrix(0.96954473,0,0,0.96954473,-466.69179,-75.822798)" /><circle
       style="mix-blend-mode:normal;fill:#0066ff;fill-opacity:1;stroke:none;stroke-width:0.341716;stroke-dasharray:none;stroke-opacity:1;filter:url(#filter1-1-49-2-8-1-8)"
       id="path27-4-18-1-3-0-9-0-8-2-8-5-9"
       cx="103.21873"
       cy="165.13123"
       r="1.9770352"
       transform="matrix(0.96954473,0,0,0.96954473,-485.73777,-75.822798)" /><circle
       style="mix-blend-mode:normal;fill:#0066ff;fill-opacity:1;stroke:none;stroke-width:0.341716;stroke-dasharray:none;stroke-opacity:1;filter:url(#filter1-1-8-9-6-3-2)"
       id="path27-4-18-1-3-0-9-0-4-0-0-63-6"
       cx="103.21873"
       cy="165.13123"
       r="1.9770352"
       transform="matrix(0.96954473,0,0,0.96954473,-428.4865,-75.822798)" /><rect
       style="fill:#e2e5e9;fill-opacity:1;stroke:none;stroke-width:0.0306569;stroke-dasharray:none"
       id="rect2-0-2-5-6-9-5-7-2"
       width="0.79119587"
       height="7.9976525"
       x="-410.88727"
       y="80.321098" /><ellipse
       style="fill:#e4e6ea;fill-opacity:1;stroke:#6f7c91;stroke-width:0.642585;stroke-dasharray:none;stroke-opacity:1"
       id="path28-93-0-5-7"
       cx="409.93933"
       cy="-74.288612"
       transform="scale(-1)"
       rx="5.6868539"
       ry="5.7041302" /><ellipse
       style="fill:#ffffff;fill-opacity:1;stroke:#ffffff;stroke-width:0.576529;stroke-dasharray:none;stroke-opacity:1"
       id="path28-93-0-5-9-5"
       cx="409.91278"
       cy="-74.258987"
       transform="scale(-1)"
       rx="5.1022639"
       ry="5.117764" /><rect
       style="fill:#ffffff;fill-opacity:1;stroke:none;stroke-width:0.346642;stroke-dasharray:none;stroke-opacity:1"
       id="rect2-0-2-5-8-6-7-7-6-8-8-9"
       width="21.030289"
       height="10.697239"
       x="389.52203"
       y="-79.625053"
       transform="scale(-1)" /><rect
       style="fill:#e2e5e9;fill-opacity:1;stroke:none;stroke-width:0.0388972;stroke-dasharray:none"
       id="rect2-0-2-5-6-9-5-3-4"
       width="1.2698543"
       height="8.0217876"
       x="409.76111"
       y="-88.320465"
       transform="scale(-1)" /><ellipse
       style="fill:#ffffff;fill-opacity:1;stroke:#6f7c91;stroke-width:0.580471;stroke-dasharray:none;stroke-opacity:1"
       id="path27-4-18-1-3-9-18-6-4-5-1-6-5-3-2-2-7"
       cx="404.70871"
       cy="-84.353386"
       transform="scale(-1)"
       rx="3.3532922"
       ry="3.3634794" /><circle
       style="mix-blend-mode:normal;fill:#0066ff;fill-opacity:1;stroke:none;stroke-width:0.341716;stroke-dasharray:none;stroke-opacity:1;filter:url(#filter1-1-8-9-6-3-9-2-1)"
       id="path27-4-18-1-3-0-9-0-4-0-0-63-4-6-8"
       cx="103.21873"
       cy="165.13123"
       r="1.9770352"
       transform="matrix(-0.96952532,0,0,-0.97247064,-304.63549,244.93868)" /><ellipse
       style="fill:#ffffff;fill-opacity:1;stroke:#6f7c91;stroke-width:0.580471;stroke-dasharray:none;stroke-opacity:1"
       id="path27-4-18-1-3-9-18-6-4-5-1-6-5-3-2-2-2-4"
       cx="404.70868"
       cy="-64.313629"
       transform="scale(-1)"
       rx="3.3532922"
       ry="3.3634794" /><circle
       style="mix-blend-mode:normal;fill:#0066ff;fill-opacity:1;stroke:none;stroke-width:0.341716;stroke-dasharray:none;stroke-opacity:1;filter:url(#filter1-1-8-9-6-3-9-2-4-9)"
       id="path27-4-18-1-3-0-9-0-4-0-0-63-4-6-9-5"
       cx="103.21873"
       cy="165.13123"
       r="1.9770352"
       transform="matrix(-0.96952532,0,0,-0.97247064,-304.63545,224.8989)" /><rect
       style="fill:#e2e5e9;fill-opacity:1;stroke:none;stroke-width:0.0360112;stroke-dasharray:none"
       id="rect2-0-2-5-6-9-5-4-4"
       width="1.1128265"
       height="7.8458443"
       x="409.91968"
       y="-68.173599"
       transform="scale(-1)" /><g
       id="g6"
       transform="matrix(0.97314669,0,0,0.97314669,-4.4318071,-37.913624)"
       style="fill:#ff9955;fill-opacity:1"><path
         style="fill:#ff9955;fill-opacity:1;stroke:none;stroke-width:0.445549"
         d="m -359.55976,92.881969 c -0.31327,0.29935 -0.48732,0.48036 -0.77275,0.48036 -0.20189,0 -0.34112,-0.10443 -0.53605,-0.24366 -0.181,-0.12531 -0.33416,-0.2367 -0.53605,-0.2367 -0.3272,0 -0.55693,0.26454 -0.94679,0.68921 l 0.10443,0.0975 c 0.31327,-0.29935 0.48732,-0.4734 0.77275,-0.4734 0.20188,0 0.34112,0.0975 0.52908,0.2367 0.18797,0.13227 0.33417,0.2367 0.53605,0.2367 0.33417,0 0.5639,-0.26454 0.9468,-0.68921 z m 0,0"
         id="path366-6" /><path
         style="fill:#ff9955;fill-opacity:1;stroke:none;stroke-width:0.445549"
         d="m -361.42874,96.920419 h 0.84237 c 0.17404,0 0.2715,0 0.2715,-0.16708 0,-0.10443 -0.0557,-0.10443 -0.24366,-0.10443 h -0.80755 l 0.34112,-1.3436 c 0.0348,-0.12532 0.0348,-0.1462 0.0348,-0.20886 0,-0.14619 -0.11835,-0.22973 -0.2367,-0.22973 -0.0766,0 -0.28543,0.0278 -0.36201,0.32024 l -0.35504,1.46195 h -0.87022 c -0.181,0 -0.26454,0 -0.26454,0.17405 0,0.0975 0.0627,0.0975 0.2367,0.0975 h 0.82148 l -0.60567,2.42963 c -0.0766,0.32024 -0.10443,0.41074 -0.10443,0.52909 0,0.431631 0.30632,0.828441 0.82148,0.828441 0.93287,0 1.42715,-1.343611 1.42715,-1.406261 0,-0.0557 -0.0348,-0.0835 -0.0905,-0.0835 -0.0209,0 -0.0557,0 -0.0766,0.0348 -0.007,0.0139 -0.0209,0.0209 -0.0835,0.16708 -0.19493,0.45947 -0.61263,1.106911 -1.14868,1.106911 -0.27847,0 -0.29239,-0.22974 -0.29239,-0.43163 0,-0.0139 0,-0.187961 0.0279,-0.299351 z m 0,0"
         id="path367-8" /></g><path
       style="fill:#ff9955;fill-opacity:1;stroke:none;stroke-width:0.698678"
       d="m -356.62071,75.064168 c 2.33621,-0.196503 3.71173,-1.65936 3.71173,-3.056716 0,-1.45194 -1.43011,-2.87113 -3.71173,-3.067633 v -0.82968 c 0,-0.513092 0.0327,-0.665927 1.12444,-0.665927 h 0.31658 v -0.371173 c -0.58951,0.03275 -1.27727,0.03275 -1.88861,0.03275 -0.60043,0 -1.31002,0 -1.89953,-0.03274 v 0.371173 h 0.31658 c 1.09169,0 1.12444,0.152836 1.12444,0.665927 v 0.82968 c -2.2707,0.196504 -3.67897,1.62661 -3.67897,3.056717 0,1.48469 1.47377,2.871129 3.67897,3.067633 v 0.82968 c 0,0.513091 -0.0327,0.665927 -1.12444,0.665927 h -0.31658 v 0.371169 c 0.58951,-0.03275 1.2991,-0.03275 1.89953,-0.03275 0.61134,0 1.2991,0 1.88861,0.03275 v -0.371173 h -0.31658 c -1.09169,0 -1.12444,-0.152836 -1.12444,-0.665927 z m -0.9061,-0.240171 c -1.2991,-0.141918 -2.60912,-0.895181 -2.60912,-2.816545 0,-1.975948 1.35369,-2.69646 2.60912,-2.827462 z m 0.9061,-5.644007 c 1.14627,0.09825 2.64188,0.753262 2.64188,2.816545 0,2.117867 -1.56111,2.72921 -2.64188,2.827462 z m 0,0"
       id="path30-4" /><path
       style="fill:#6f7c91;fill-opacity:1;stroke:none;stroke-width:0.114316;stroke-opacity:1"
       d="m -376.72928,61.440629 c -0.69927,0.166458 -1.62911,0.56867 -2.30091,0.995045 -0.32972,0.209263 -0.88411,0.624582 -1.17941,0.883546 -0.25997,0.228 -0.59263,0.549897 -0.56541,0.547148 0.01,-9.54e-4 0.10376,-0.0704 0.20865,-0.154359 0.2422,-0.193718 0.83,-0.582878 1.14765,-0.759784 1.90403,-1.060491 3.70779,-1.282093 5.3214,-0.653733 0.27418,0.106878 0.83864,0.39301 0.96436,0.489053 0.0149,0.011 -0.0632,0.151059 -0.17294,0.310862 -0.15669,0.227852 -0.18822,0.291887 -0.14659,0.297258 0.12304,0.0165 2.29111,0.184828 2.29836,0.179108 0.009,-0.0073 -0.99398,-2.108662 -1.01238,-2.123677 -0.006,-0.0036 -0.0894,0.108895 -0.1861,0.251979 l -0.17594,0.260338 -0.23985,-0.110911 c -0.81934,-0.378783 -1.61337,-0.565846 -2.47255,-0.582529 -0.35906,-0.0073 -1.09872,0.07791 -1.48836,0.170675 z"
       id="path365-7-2-1-8-0-4-7-7-7-7" /><path
       style="fill:#6f7c91;fill-opacity:1;stroke:none;stroke-width:0.383066;stroke-opacity:1"
       d="m -375.92116,64.209458 h 0.72424 c 0.14963,0 0.23342,0 0.23342,-0.14347 0,-0.08969 -0.0479,-0.08969 -0.20949,-0.08969 h -0.6943 l 0.29328,-1.155164 c 0.0299,-0.107538 0.0299,-0.125907 0.0299,-0.179657 0,-0.125907 -0.10174,-0.197494 -0.20349,-0.197494 -0.0659,0 -0.2454,0.02431 -0.31124,0.275465 l -0.30526,1.256911 h -0.74818 c -0.15564,0 -0.22746,0 -0.22746,0.149665 0,0.08376 0.0539,0.08376 0.2035,0.08376 h 0.70627 l -0.52073,2.088927 c -0.0658,0.275195 -0.0898,0.35314 -0.0898,0.45486 0,0.371131 0.26337,0.712302 0.70629,0.712302 0.80204,0 1.227,-1.15522 1.227,-1.209066 0,-0.04781 -0.0299,-0.07187 -0.0778,-0.07187 -0.0181,0 -0.0479,0 -0.0659,0.03 -0.006,0.01082 -0.0181,0.01613 -0.0718,0.14345 -0.16759,0.395043 -0.52671,0.951701 -0.98759,0.951701 -0.23942,0 -0.25139,-0.197494 -0.25139,-0.371105 0,-0.01082 0,-0.161564 0.0238,-0.257472 z m 0,0"
       id="path250-6-0-8-6-2-8-2-7-7" /><path
       style="fill:#ff9955;fill-opacity:1;stroke:none;stroke-width:0.114316;stroke-opacity:1"
       d="m -357.81992,61.43103 c -0.69927,0.166458 -1.62911,0.56867 -2.30091,0.995045 -0.32972,0.209263 -0.88411,0.624582 -1.17941,0.883546 -0.25997,0.228 -0.59263,0.549897 -0.56541,0.547148 0.01,-9.54e-4 0.10376,-0.0704 0.20865,-0.154359 0.2422,-0.193718 0.83,-0.582878 1.14765,-0.759784 1.90403,-1.060491 3.70779,-1.282093 5.3214,-0.653733 0.27418,0.106878 0.83864,0.39301 0.96436,0.489053 0.0149,0.011 -0.0632,0.151059 -0.17294,0.310862 -0.15669,0.227852 -0.18822,0.291887 -0.14659,0.297258 0.12304,0.0165 2.29111,0.184828 2.29836,0.179108 0.009,-0.0073 -0.99398,-2.108662 -1.01238,-2.123677 -0.006,-0.0036 -0.0894,0.108895 -0.1861,0.251979 l -0.17594,0.260338 -0.23985,-0.110911 c -0.81934,-0.378783 -1.61337,-0.565846 -2.47255,-0.582529 -0.35906,-0.0073 -1.09872,0.07791 -1.48836,0.170675 z"
       id="path365-7-2-1-8-0-4-7-6" /></g></svg>
